<svg width="1591" height="1144" viewBox="0 0 1591 1144" fill="none" xmlns="http://www.w3.org/2000/svg">
<g clip-path="url(#clip0_49_104)">
<path d="M1440.39 667.333C1434.75 653.314 1419.14 646.499 1405.61 652.341C1240.52 722.631 1049.3 775.786 768.578 689.141C575.1 633.064 428.817 629.17 279.901 676.29C248.501 685.441 192.93 688.186 160.401 699.868C136.334 708.63 134.753 717.335 112.183 733.729C128.541 746.19 130.363 757.616 142.961 773.971C158.943 768.519 170.956 755.799 186.562 750.152C218.339 738.665 264.671 738.207 294.943 729.251C433.894 685.246 571.34 689.141 753.912 742.102C1050.05 833.42 1251.8 777.344 1425.91 703.354C1439.45 697.513 1446.03 681.352 1440.39 667.333Z" fill="#04A139"/>
<path d="M852.625 138.423C870.361 127.078 890.513 123.81 910.86 129.002L910.875 129.007L910.891 129.01C912.892 129.384 914.724 130.135 916.58 131.091C953.442 150.655 978.326 188.265 996.841 233.391C1015.36 278.515 1027.47 331.069 1038.84 380.432C1050.49 431.085 1061.42 478.834 1077.03 510.286L1077.78 511.771C1077.96 512.155 1078.15 512.54 1078.34 512.925C1078.52 513.306 1078.71 513.688 1078.89 514.07C1090.56 543.321 1104.35 560.333 1121.47 566.017V566.018C1133.27 569.937 1147.76 568.89 1165.53 562.799C1183.29 556.707 1204.38 545.553 1229.39 529.188L1229.4 529.178L1229.42 529.168C1237.01 523.374 1281.5 490.358 1341.17 467.593C1400.76 444.854 1475.41 432.377 1543.55 467.335V467.72L1543.82 467.86C1556.72 474.505 1561.9 490.658 1555.44 503.971C1548.98 517.273 1533.31 522.581 1520.41 515.938L1519.11 515.277C1463.86 487.604 1399.7 501.654 1349.11 522.793C1298.39 543.99 1261.18 572.37 1260.02 573.264C1259.74 573.456 1259.46 573.65 1259.18 573.842C1258.9 574.033 1258.62 574.224 1258.34 574.416C1236.27 588.925 1210.9 603.947 1184.62 613.241C1158.35 622.535 1131.22 626.085 1105.62 617.713C1073.68 607.129 1048.59 579.791 1030.96 535.938L1030.95 535.919L1030.94 535.9L1030.07 534.142C1011.81 497.01 1000.16 446.542 987.95 393.177V393.176L984.215 377.026C975.405 339.127 965.814 300.02 953.286 266.245C938.976 227.666 920.793 195.923 895.454 180.926L895.376 180.879L895.287 180.863C889.693 179.87 885.058 181.072 880.086 184.223L880.084 184.225C870.005 190.69 860.818 203.629 852.371 220.922C843.915 238.231 836.166 259.975 828.999 284.132C814.663 332.445 802.633 390.482 791.923 442.153V442.154C775.761 520.259 761.957 583.46 744.92 629.433C727.875 675.428 707.652 704.012 678.765 713.13H678.763C672.797 715.05 666.836 716.009 660.877 716.01C640.957 716.01 620.222 705.657 599.232 684.813C576.408 660.037 561.468 622.013 546.054 581.129L542.962 572.916C535.166 552.114 526.843 529.934 517.861 510.776C508.886 491.636 499.218 475.432 488.697 466.645L488.65 466.605L488.593 466.579L487.629 466.127C482.836 463.948 478.426 462.962 474.049 463.554C469.379 464.187 464.819 466.606 459.921 471.137C450.152 480.176 438.889 497.767 422.549 526.976C408.728 551.478 391.481 582.118 368.19 601.936C356.554 611.837 343.43 619.018 328.491 621.389C313.558 623.759 296.767 621.331 277.777 611.939C268.015 606.332 260.129 601.691 252.618 597.242L252.617 597.241L250.337 595.908C227.002 582.325 210.229 574.791 194.09 572.139C177.532 569.419 161.693 571.846 140.192 578.049C133.889 560.76 127.848 549.273 118.441 534.239C136.736 512.181 162.861 508.07 191.38 513.578C220.029 519.111 250.994 534.336 278.604 550.683L278.607 550.686C285.937 554.945 293.64 559.395 301.907 564.233L301.922 564.243L301.939 564.251C308.522 567.47 314.448 568.862 320.169 568.141C325.893 567.42 331.346 564.593 336.999 559.504C348.275 549.35 360.48 530.062 377.382 499.983L377.383 499.981C390.547 476.351 407.089 446.776 429.228 427.853C440.288 418.4 452.723 411.626 466.81 409.572C480.892 407.518 496.675 410.174 514.449 419.665L514.465 419.674L514.482 419.68C515.744 420.237 516.831 420.982 517.959 421.757C535.06 434.559 548.64 454.412 560.393 477.609C570.677 497.906 579.543 520.724 588.147 543.554L591.822 553.333C598.773 571.91 605.872 590.795 613.255 607.263C620.634 623.722 628.318 637.817 636.455 646.782L636.463 646.792L636.472 646.801C641.849 652.144 647.147 656.289 651.827 658.883C656.475 661.459 660.629 662.569 663.656 661.634L663.658 661.633C667.717 660.356 671.655 657.116 675.471 652.341C679.293 647.558 683.029 641.189 686.672 633.576C693.96 618.348 700.91 598.074 707.442 575.384C720.508 529.999 731.927 474.867 741.04 430.937C754.665 365.317 767.86 301.623 785.019 249.592C802.187 197.535 823.282 157.287 852.625 138.422L852.625 138.423Z" fill="#2F91CF"/>
<path d="M852.625 138.423C870.361 127.078 890.513 123.81 910.86 129.002L910.875 129.007L910.891 129.01C912.892 129.384 914.724 130.135 916.58 131.091C953.442 150.655 978.326 188.265 996.841 233.391C1015.36 278.515 1027.47 331.069 1038.84 380.432C1050.49 431.085 1061.42 478.834 1077.03 510.286L1077.78 511.771C1077.96 512.155 1078.15 512.54 1078.34 512.925C1078.52 513.306 1078.71 513.688 1078.89 514.07C1090.56 543.321 1104.35 560.333 1121.47 566.017V566.018C1133.27 569.937 1147.76 568.89 1165.53 562.799C1183.29 556.707 1204.38 545.553 1229.39 529.188L1229.4 529.178L1229.42 529.168C1237.01 523.374 1281.5 490.358 1341.17 467.593C1400.76 444.854 1475.41 432.377 1543.55 467.335V467.72L1543.82 467.86C1556.72 474.505 1561.9 490.658 1555.44 503.971C1548.98 517.273 1533.31 522.581 1520.41 515.938L1519.11 515.277C1463.86 487.604 1399.7 501.654 1349.11 522.793C1298.39 543.99 1261.18 572.37 1260.02 573.264C1259.74 573.456 1259.46 573.65 1259.18 573.842C1258.9 574.033 1258.62 574.224 1258.34 574.416C1236.27 588.925 1210.9 603.947 1184.62 613.241C1158.35 622.535 1131.22 626.085 1105.62 617.713C1073.68 607.129 1048.59 579.791 1030.96 535.938L1030.95 535.919L1030.94 535.9L1030.07 534.142C1011.81 497.01 1000.16 446.542 987.95 393.177V393.176L984.215 377.026C975.405 339.127 965.814 300.02 953.286 266.245C938.976 227.666 920.793 195.923 895.454 180.926L895.376 180.879L895.287 180.863C889.693 179.87 885.058 181.072 880.086 184.223L880.084 184.225C870.005 190.69 860.818 203.629 852.371 220.922C843.915 238.231 836.166 259.975 828.999 284.132C814.663 332.445 802.633 390.482 791.923 442.153V442.154C775.761 520.259 761.957 583.46 744.92 629.433C727.875 675.428 707.652 704.012 678.765 713.13H678.763C672.797 715.05 666.836 716.009 660.877 716.01C640.957 716.01 620.222 705.657 599.232 684.813C576.408 660.037 561.468 622.013 546.054 581.129L542.962 572.916C535.166 552.114 526.843 529.934 517.861 510.776C508.886 491.636 499.218 475.432 488.697 466.645L488.65 466.605L488.593 466.579L487.629 466.127C482.836 463.948 478.426 462.962 474.049 463.554C469.379 464.187 464.819 466.606 459.921 471.137C450.152 480.176 438.889 497.767 422.549 526.976C408.728 551.478 391.481 582.118 368.19 601.936C356.554 611.837 343.43 619.018 328.491 621.389C313.558 623.759 296.767 621.331 277.777 611.939C268.015 606.332 260.129 601.691 252.618 597.242L252.617 597.241L250.337 595.908C227.002 582.325 210.229 574.791 194.09 572.139C177.532 569.419 161.693 571.846 140.192 578.049C133.889 560.76 127.848 549.273 118.441 534.239C136.736 512.181 162.861 508.07 191.38 513.578C220.029 519.111 250.994 534.336 278.604 550.683L278.607 550.686C285.937 554.945 293.64 559.395 301.907 564.233L301.922 564.243L301.939 564.251C308.522 567.47 314.448 568.862 320.169 568.141C325.893 567.42 331.346 564.593 336.999 559.504C348.275 549.35 360.48 530.062 377.382 499.983L377.383 499.981C390.547 476.351 407.089 446.776 429.228 427.853C440.288 418.4 452.723 411.626 466.81 409.572C480.892 407.518 496.675 410.174 514.449 419.665L514.465 419.674L514.482 419.68C515.744 420.237 516.831 420.982 517.959 421.757C535.06 434.559 548.64 454.412 560.393 477.609C570.677 497.906 579.543 520.724 588.147 543.554L591.822 553.333C598.773 571.91 605.872 590.795 613.255 607.263C620.634 623.722 628.318 637.817 636.455 646.782L636.463 646.792L636.472 646.801C641.849 652.144 647.147 656.289 651.827 658.883C656.475 661.459 660.629 662.569 663.656 661.634L663.658 661.633C667.717 660.356 671.655 657.116 675.471 652.341C679.293 647.558 683.029 641.189 686.672 633.576C693.96 618.348 700.91 598.074 707.442 575.384C720.508 529.999 731.927 474.867 741.04 430.937C754.665 365.317 767.86 301.623 785.019 249.592C802.187 197.535 823.282 157.287 852.625 138.422L852.625 138.423Z" stroke="black"/>
<path d="M852.625 138.423C870.361 127.078 890.513 123.81 910.86 129.002L910.875 129.007L910.891 129.01C912.892 129.384 914.724 130.135 916.58 131.091C953.442 150.655 978.326 188.265 996.841 233.391C1015.36 278.515 1027.47 331.069 1038.84 380.432C1050.49 431.085 1061.42 478.834 1077.03 510.286L1077.78 511.771C1077.96 512.155 1078.15 512.54 1078.34 512.925C1078.52 513.306 1078.71 513.688 1078.89 514.07C1090.56 543.321 1104.35 560.333 1121.47 566.017V566.018C1133.27 569.937 1147.76 568.89 1165.53 562.799C1183.29 556.707 1204.38 545.553 1229.39 529.188L1229.4 529.178L1229.42 529.168C1237.01 523.374 1281.5 490.358 1341.17 467.593C1400.76 444.854 1475.41 432.377 1543.55 467.335V467.72L1543.82 467.86C1556.72 474.505 1561.9 490.658 1555.44 503.971C1548.98 517.273 1533.31 522.581 1520.41 515.938L1519.11 515.277C1463.86 487.604 1399.7 501.654 1349.11 522.793C1298.39 543.99 1261.18 572.37 1260.02 573.264C1259.74 573.456 1259.46 573.65 1259.18 573.842C1258.9 574.033 1258.62 574.224 1258.34 574.416C1236.27 588.925 1210.9 603.947 1184.62 613.241C1158.35 622.535 1131.22 626.085 1105.62 617.713C1073.68 607.129 1048.59 579.791 1030.96 535.938L1030.95 535.919L1030.94 535.9L1030.07 534.142C1011.81 497.01 1000.16 446.542 987.95 393.177V393.176L984.215 377.026C975.405 339.127 965.814 300.02 953.286 266.245C938.976 227.666 920.793 195.923 895.454 180.926L895.376 180.879L895.287 180.863C889.693 179.87 885.058 181.072 880.086 184.223L880.084 184.225C870.005 190.69 860.818 203.629 852.371 220.922C843.915 238.231 836.166 259.975 828.999 284.132C814.663 332.445 802.633 390.482 791.923 442.153V442.154C775.761 520.259 761.957 583.46 744.92 629.433C727.875 675.428 707.652 704.012 678.765 713.13H678.763C672.797 715.05 666.836 716.009 660.877 716.01C640.957 716.01 620.222 705.657 599.232 684.813C576.408 660.037 561.468 622.013 546.054 581.129L542.962 572.916C535.166 552.114 526.843 529.934 517.861 510.776C508.886 491.636 499.218 475.432 488.697 466.645L488.65 466.605L488.593 466.579L487.629 466.127C482.836 463.948 478.426 462.962 474.049 463.554C469.379 464.187 464.819 466.606 459.921 471.137C450.152 480.176 438.889 497.767 422.549 526.976C408.728 551.478 391.481 582.118 368.19 601.936C356.554 611.837 343.43 619.018 328.491 621.389C313.558 623.759 296.767 621.331 277.777 611.939C268.015 606.332 260.129 601.691 252.618 597.242L252.617 597.241L250.337 595.908C227.002 582.325 210.229 574.791 194.09 572.139C177.532 569.419 161.693 571.846 140.192 578.049C133.889 560.76 127.848 549.273 118.441 534.239C136.736 512.181 162.861 508.07 191.38 513.578C220.029 519.111 250.994 534.336 278.604 550.683L278.607 550.686C285.937 554.945 293.64 559.395 301.907 564.233L301.922 564.243L301.939 564.251C308.522 567.47 314.448 568.862 320.169 568.141C325.893 567.42 331.346 564.593 336.999 559.504C348.275 549.35 360.48 530.062 377.382 499.983L377.383 499.981C390.547 476.351 407.089 446.776 429.228 427.853C440.288 418.4 452.723 411.626 466.81 409.572C480.892 407.518 496.675 410.174 514.449 419.665L514.465 419.674L514.482 419.68C515.744 420.237 516.831 420.982 517.959 421.757C535.06 434.559 548.64 454.412 560.393 477.609C570.677 497.906 579.543 520.724 588.147 543.554L591.822 553.333C598.773 571.91 605.872 590.795 613.255 607.263C620.634 623.722 628.318 637.817 636.455 646.782L636.463 646.792L636.472 646.801C641.849 652.144 647.147 656.289 651.827 658.883C656.475 661.459 660.629 662.569 663.656 661.634L663.658 661.633C667.717 660.356 671.655 657.116 675.471 652.341C679.293 647.558 683.029 641.189 686.672 633.576C693.96 618.348 700.91 598.074 707.442 575.384C720.508 529.999 731.927 474.867 741.04 430.937C754.665 365.317 767.86 301.623 785.019 249.592C802.187 197.535 823.282 157.287 852.625 138.422L852.625 138.423Z" stroke="black" stroke-opacity="0.2"/>
<path d="M1194.46 836.252C1189.98 832.599 1187.5 830.772 1185.5 829.25C1183.51 827.728 1182.02 826.662 1179.03 823.923C1178.54 823.466 1178.04 823.162 1177.54 822.705C1144.86 799.417 1140.54 762.886 1135.57 720.724C1133.74 705.503 1131.92 689.825 1128.6 675.061C1119.31 627.419 1112.34 577.95 1105.7 530.004C1101.72 501.54 1097.74 473.077 1093.26 444.766C1089.28 420.564 1078.66 356.179 1022.59 347.655C1020.76 347.351 1018.77 347.351 1016.95 347.351C957.387 351.461 938.142 412.802 921.22 466.989C911.929 496.822 900.316 534.113 885.384 540.963C876.26 545.225 864.48 546.899 852.038 548.726C836.94 551.009 820.018 553.444 805.253 560.446C787.003 567.752 772.736 579.929 760.127 590.736C750.505 598.955 741.546 606.718 732.587 610.219C723.296 614.176 711.849 615.394 699.572 616.764C689.95 617.829 679.995 618.895 670.373 621.178C607.33 634.268 583.771 687.39 562.868 734.27C554.738 752.384 547.272 769.431 537.65 783.587C528.857 797.286 519.401 805.201 513.096 804.44C504.138 803.222 487.879 786.935 479.75 754.362C468.302 711.743 463.159 665.471 458.016 620.721C449.555 546.595 440.928 469.881 404.263 400.625C387.341 369.878 366.935 354.505 343.874 355.418C320.648 356.027 301.237 372.618 286.803 403.669C268.72 437.916 257.77 476.121 248.148 509.912C245.991 517.37 244 524.524 242.009 531.221C237.696 544.768 232.553 558.163 224.258 564.86C216.294 571.253 201.529 572.623 185.934 574.145C176.312 575.058 166.191 575.971 157.233 578.102C134.338 582.364 114.098 591.649 94.3551 600.63C73.6171 610.067 54.2063 619.047 33.6342 620.721C10.2418 623.461 19.0925 625.44 -9.90137 631.191C-2.10389 644.129 -3.05503 655.227 1.42437 669.84C23.1698 669.84 15.4683 669.84 38.4455 663.493C66.9809 661.362 91.5347 650.098 115.259 639.139C132.845 631.072 149.601 623.309 167.187 620.112C173.989 618.59 182.118 617.829 190.579 617.068C211.815 615.09 235.871 612.806 254.95 597.433C272.37 583.582 280.499 563.338 286.969 543.094C289.126 535.94 291.283 528.482 293.439 521.023C303.062 487.537 312.85 452.985 329.441 421.782C337.902 403.669 344.538 399.407 344.704 398.798C346.031 399.407 352.667 403.06 362.124 420.108C394.973 482.21 402.77 551.77 411.231 625.44C416.54 671.712 421.849 719.354 433.96 764.713C445.573 811.137 473.113 842.797 505.962 847.363C521.557 849.494 551.918 847.059 577.965 806.114C589.246 789.371 598.039 769.736 606.5 750.709C624.584 709.917 641.672 671.56 681.489 663.34C688.788 661.666 696.752 660.753 705.047 659.839C719.646 658.165 736.403 656.339 751.666 649.794C767.427 643.705 779.87 632.898 791.981 622.548C802.764 613.415 812.884 604.739 824.995 599.716C834.452 595.302 846.563 593.476 859.172 591.649C873.937 589.518 890.527 587.083 906.288 579.777C939.469 564.403 952.409 523.002 966.014 479.165C978.29 440.047 992.061 395.906 1017.11 391.035C1030.55 395.297 1040.34 415.541 1046.31 451.311C1050.79 479.318 1054.61 507.477 1058.59 535.636C1065.39 584.039 1072.36 634.116 1081.98 683.28C1084.97 696.522 1086.63 710.526 1088.28 725.442C1093.59 770.649 1099.57 821.944 1147.35 856.343C1150.83 859.235 1152.66 860.605 1154.98 862.432C1156.8 863.802 1158.96 865.476 1162.94 868.673C1167.42 872.326 1172.9 874 1178.54 874C1185.01 874 1191.64 871.565 1196.12 866.694C1204.75 857.714 1203.75 844.167 1193.97 836.252H1194.46Z" fill="#CD0765"/>
</g>
<defs>
<clipPath id="clip0_49_104">
<rect width="1293.69" height="892.409" fill="white" transform="translate(149.116 126.101)"/>
</clipPath>
</defs>
</svg>
