<svg width="1591" height="1144" viewBox="0 0 1591 1144" fill="none" xmlns="http://www.w3.org/2000/svg">
<g clip-path="url(#clip0_61_2)">
<path d="M1405.61 652.341C1240.52 722.631 1049.3 775.786 768.577 689.141C575.1 633.064 428.817 629.17 279.901 676.29C248.501 685.441 192.929 688.186 160.401 699.868C136.334 708.63 134.753 717.335 112.183 733.729" stroke="#04A139" stroke-width="20"/>
<path d="M117.825 545.196C154.758 500.205 223.613 528.544 278.858 561.254C286.186 565.512 293.89 569.963 302.158 574.802C328.278 587.576 343.123 570.931 376.946 510.738C403.253 463.513 443.278 392.095 514.683 430.223C515.999 430.804 517.126 431.578 518.253 432.352C552.641 458.094 572.747 512.093 592.29 564.157C606.195 601.318 620.664 639.64 636.824 657.446C647.535 668.091 657.87 673.897 663.507 672.155C694.888 662.285 722.322 529.706 740.55 441.836C767.796 310.612 793.352 186.936 852.355 149.001C870.207 137.582 890.501 134.292 910.983 139.518C913.05 139.905 914.929 140.679 916.808 141.647C990.844 180.936 1016.59 292.612 1039.32 391.32C1051.16 442.804 1062.25 491.19 1078.22 522.544C1078.6 523.319 1078.97 524.093 1079.35 524.867C1091 554.093 1104.72 570.931 1121.63 576.544C1144.93 584.286 1179.13 572.479 1229.11 539.77C1244.33 528.157 1407.25 407.578 1544.05 478.029V478.416" stroke="#2F91CF" stroke-width="20"/>
<path d="M117.825 545.196C154.758 500.205 223.613 528.544 278.858 561.254C286.186 565.512 293.89 569.963 302.158 574.802C328.278 587.576 343.123 570.931 376.946 510.738C403.253 463.513 443.278 392.095 514.683 430.223C515.999 430.804 517.126 431.578 518.253 432.352C552.641 458.094 572.747 512.093 592.29 564.157C606.195 601.318 620.664 639.64 636.824 657.446C647.535 668.091 657.87 673.897 663.507 672.155C694.888 662.285 722.322 529.706 740.55 441.836C767.796 310.612 793.352 186.936 852.355 149.001C870.207 137.582 890.501 134.292 910.983 139.518C913.05 139.905 914.929 140.679 916.808 141.647C990.844 180.936 1016.59 292.612 1039.32 391.32C1051.16 442.804 1062.25 491.19 1078.22 522.544C1078.6 523.319 1078.97 524.093 1079.35 524.867C1091 554.093 1104.72 570.931 1121.63 576.544C1144.93 584.286 1179.13 572.479 1229.11 539.77C1244.33 528.157 1407.25 407.578 1544.05 478.029V478.416" stroke="black" stroke-opacity="0.2" stroke-width="20"/>
<path d="M1481 822.705C1519 734.271 1481.5 860.795 1247 830C1211.5 818.295 1165.43 810.776 1141 730C1136.16 714 1129.82 688.264 1126.5 673.5C1117.21 625.858 1112.34 577.95 1105.7 530.004C1101.72 501.54 1097.74 473.077 1093.26 444.766C1089.28 420.565 1078.66 356.179 1022.59 347.656C1020.76 347.351 1018.77 347.351 1016.95 347.351C957.386 351.461 938.142 412.802 921.22 466.989C911.929 496.822 900.316 534.114 885.384 540.963C876.26 545.225 864.48 546.899 852.038 548.726C836.94 551.009 820.018 553.444 805.253 560.446C787.003 567.752 772.736 579.929 760.127 590.736C750.505 598.955 741.546 606.718 732.587 610.219C723.296 614.176 711.849 615.394 699.572 616.764C689.95 617.829 679.995 618.895 670.373 621.178C607.33 634.268 583.771 687.39 562.867 734.271C554.738 752.384 547.272 769.431 537.65 783.587C528.857 797.286 519.401 805.201 513.096 804.44C504.137 803.222 487.879 786.936 479.75 754.362C468.302 711.743 463.159 665.472 458.016 620.722C449.555 546.595 440.928 469.881 404.263 400.625C387.341 369.878 366.935 354.505 343.874 355.418C320.648 356.027 301.237 372.618 286.803 403.669C268.72 437.916 257.77 476.121 248.148 509.912C245.991 517.371 244 524.524 242.009 531.222C237.696 544.768 232.553 558.163 224.258 564.86C216.294 571.253 201.529 572.623 185.934 574.145C176.311 575.058 166.191 575.972 157.233 578.103C134.338 582.364 114.098 591.649 94.3551 600.63C73.6171 610.067 54.2063 619.047 33.6342 620.722C10.2418 623.461 19.0925 625.44 -9.90137 631.191" stroke="#CD0765" stroke-width="20"/>
</g>
<defs>
<clipPath id="clip0_61_2">
<rect width="1293.69" height="892.409" fill="white" transform="translate(149.116 126.101)"/>
</clipPath>
</defs>
</svg>
