<svg width="1609" height="256" viewBox="0 0 1609 256" fill="none" xmlns="http://www.w3.org/2000/svg">
<g clip-path="url(#clip0_1912_256)">
<g opacity="0.5" clip-path="url(#clip1_1912_256)">
<path d="M379.599 44.4974C377.47 43.1956 373.483 40.7537 368.254 41.8023C358.578 44.8118 361.142 54.8356 362.096 58.6103L362.122 58.6792C362.144 58.88 362.206 59.1183 362.236 59.3421C363.293 59.656 364.174 60.2703 364.845 61.0931C365.074 61.008 365.304 60.9229 365.536 60.9152C365.254 59.8703 365.045 58.9547 364.974 58.1974L364.863 57.8987C363.447 52.1006 362.973 46.4496 368.951 44.601C372.624 43.8673 375.48 45.3698 378.043 46.9286C380.317 48.4116 382.429 50.1635 384.481 51.964C384.639 51.8269 384.82 51.6814 384.95 51.6074C385.838 51.0432 386.771 50.8806 387.68 50.9358C385.171 48.6776 382.553 46.4075 379.59 44.4744L379.599 44.4974Z" fill="white"/>
<path d="M409.907 39.2793C409.527 38.1135 409.108 36.9103 408.807 36.0288L408.552 35.3395C408.552 35.3395 408.535 35.2936 408.526 35.2706C407.522 32.5596 406.584 29.7457 405.984 27.0678C405.804 26.2986 405.043 25.7966 404.242 25.9626C403.473 26.143 402.971 26.9038 403.137 27.7045C403.917 31.1516 405.185 34.7841 406.465 38.0984C407.717 38.2353 408.905 38.762 409.884 39.2878L409.907 39.2793Z" fill="white"/>
<path d="M410.055 47.2975C410.381 48.248 410.593 49.0317 410.592 49.4503C410.588 49.5822 410.608 49.7056 410.65 49.8205C411.991 54.4971 411.128 58.6574 408.405 60.6853C405.839 62.5762 402.121 62.2029 398.2 59.658C397.328 59.0667 396.479 58.4668 395.635 57.8125C395.149 58.3325 394.196 59.0771 392.728 59.2031C393.963 60.2088 395.243 61.1975 396.613 62.0748C401.533 65.2688 406.598 65.6131 410.147 62.992C413.863 60.2569 415.138 54.9513 413.512 49.1523C413.485 48.7966 413.4 48.3576 413.299 47.8725C412.178 47.9483 411.075 47.6514 410.084 47.2345L410.055 47.2975Z" fill="white"/>
<path d="M411.367 32.7817C410.617 33.0856 410.209 33.8897 410.482 34.6249L410.737 35.3141C411.466 37.4219 412.986 41.6662 412.734 42.9613C412.43 42.9171 411.639 42.6874 410.064 41.6774C407.975 40.4131 405.826 39.4066 404.327 40.5103C402.912 41.5571 403.214 43.6401 403.563 45.0782C403.721 45.8559 403.975 46.7545 404.247 47.699C404.561 48.7584 404.869 49.8722 405.012 50.6814C403.354 49.5192 400.156 46.1055 395.458 40.4777C394.756 39.6404 394.191 38.9614 393.885 38.6304C385.446 27.9093 383.443 28.9909 382.673 29.3807C380.943 30.2828 381.747 32.8066 382.147 34.0957C383.307 37.0884 385.044 40.155 386.716 43.1153C387.991 45.36 389.324 47.688 390.336 49.9259C391.459 52.2531 391.815 53.6367 391.867 54.2707C391.5 54.1975 390.896 53.9771 390.37 53.7542C388.869 53.1604 387.323 52.5835 386.038 53.3469C385.575 53.649 384.982 54.2345 384.902 55.5705C384.976 58.0254 386.545 61.4154 388.072 64.6905C388.982 66.6527 389.857 68.523 390.316 69.973C390.35 70.0649 390.384 70.1568 390.418 70.2487C388.689 68.8252 385.751 65.7594 383.131 62.4971C382.438 61.6829 381.639 60.7248 380.782 59.6833C376.276 54.2197 372.632 49.9526 370.208 48.6295C368.716 48.0586 367.883 48.6288 367.54 49.0432C366.194 50.5605 367.5 53.2383 370.867 59.6465C372.324 62.451 374.68 66.9081 374.997 68.7503C374.006 68.3334 372.403 66.9678 371.351 66.1033C369.605 64.6338 368.099 63.389 366.615 63.0504C367.783 64.1591 369.272 68.1797 369.464 68.3439C371.736 70.2456 373.874 72.0664 375.957 71.7651C376.72 71.6391 377.295 71.217 377.622 70.5473C378.582 68.6241 377.078 65.3405 373.404 58.3146C372.493 56.5617 371.261 54.2226 370.531 52.5336C372.802 54.6446 376.13 58.6897 378.504 61.5725C379.36 62.614 380.167 63.595 380.853 64.3864C388.694 74.1273 391.24 74.2292 392.182 73.8803C392.296 73.8377 392.388 73.8037 392.449 73.7552C394.193 72.8216 393.395 70.2434 393.041 69.1465C392.537 67.5043 391.627 65.5421 390.66 63.4965C389.409 60.8247 388.008 57.8167 387.791 55.9634C388.23 56.0885 388.834 56.3088 389.266 56.4883C390.091 56.8099 390.852 57.1026 391.451 57.1681C393.013 57.5041 393.827 56.8106 394.161 56.3732C394.876 55.4813 395.347 53.7914 392.916 48.7089C391.847 46.3876 390.497 44.0136 389.196 41.7C387.559 38.8317 385.887 35.8714 384.829 33.1544C384.812 33.1085 384.803 33.0855 384.786 33.0396C386.455 34.5116 389.156 37.4301 391.584 40.5282C391.929 40.8966 392.463 41.5611 393.156 42.3754C401.196 52.0168 404.316 54.7277 406.476 53.9277C407.027 53.7234 407.945 53.0962 407.912 51.1748C407.811 49.9844 407.364 48.4255 406.943 46.9355C406.705 46.0829 406.445 45.2388 406.296 44.484C406.132 43.7608 406.071 43.3132 406.078 43.0494C406.453 43.1455 407.16 43.4322 408.442 44.2116C410.39 45.4496 412.834 46.6867 414.488 45.3685C416.504 43.7593 415.432 40.159 413.373 34.3899L413.118 33.7006C412.837 32.9425 412.033 32.5349 411.275 32.8158L411.367 32.7817Z" fill="white"/>
<path d="M285.432 113.817L277.735 116.668L280.927 125.283L288.623 122.432L285.432 113.817Z" fill="white"/>
<path d="M276.747 117.034L269.051 119.885L272.242 128.501L279.939 125.65L276.747 117.034Z" fill="white"/>
<path d="M302.846 107.366L295.15 110.217L298.341 118.832L306.038 115.981L302.846 107.366Z" fill="white"/>
<path d="M268.04 120.26L260.343 123.111L263.535 131.726L271.231 128.875L268.04 120.26Z" fill="white"/>
<path d="M294.139 110.591L286.442 113.442L289.634 122.058L297.33 119.207L294.139 110.591Z" fill="white"/>
<path d="M259.332 123.485L255.289 124.982C252.9 125.868 251.685 128.512 252.57 130.902C253.455 133.291 256.1 134.506 258.489 133.621L262.532 132.123L259.341 123.508L259.332 123.485Z" fill="white"/>
<path d="M333.747 95.919L329.956 97.3233L333.148 105.939L336.939 104.534C339.328 103.649 340.543 101.005 339.658 98.6152C338.773 96.2259 336.128 95.0109 333.739 95.896L333.747 95.919Z" fill="white" fill-opacity="0.4"/>
<path d="M311.554 104.14L303.857 106.991L307.049 115.607L314.745 112.756L311.554 104.14Z" fill="white"/>
<path d="M328.968 97.6889L321.272 100.54L324.463 109.155L332.16 106.304L328.968 97.6889Z" fill="white"/>
<path d="M320.261 100.915L312.565 103.766L315.756 112.381L323.453 109.53L320.261 100.915Z" fill="white"/>
<path d="M294.062 137.113L286.365 139.964L289.557 148.58L297.253 145.729L294.062 137.113Z" fill="white" fill-opacity="0.4"/>
<path d="M285.377 140.331L277.681 143.182L280.872 151.797L288.569 148.946L285.377 140.331Z" fill="white" fill-opacity="0.4"/>
<path d="M311.476 130.662L303.78 133.513L306.971 142.129L314.668 139.278L311.476 130.662Z" fill="white" fill-opacity="0.4"/>
<path d="M276.67 143.556L268.973 146.407L272.165 155.023L279.861 152.172L276.67 143.556Z" fill="white" fill-opacity="0.4"/>
<path d="M302.769 133.888L295.072 136.739L298.264 145.354L305.96 142.503L302.769 133.888Z" fill="white" fill-opacity="0.4"/>
<path d="M267.962 146.781L263.919 148.278C261.529 149.164 260.314 151.808 261.199 154.198C262.085 156.587 264.729 157.802 267.119 156.917L271.162 155.419L267.971 146.803L267.962 146.781Z" fill="white"/>
<path d="M342.377 119.215L338.586 120.62L341.778 129.235L345.569 127.831C347.958 126.946 349.173 124.301 348.288 121.912C347.403 119.522 344.758 118.307 342.368 119.192L342.377 119.215Z" fill="white" fill-opacity="0.4"/>
<path d="M320.184 127.436L312.487 130.288L315.679 138.903L323.375 136.052L320.184 127.436Z" fill="white" fill-opacity="0.4"/>
<path d="M337.598 120.985L329.902 123.836L333.093 132.452L340.79 129.601L337.598 120.985Z" fill="white" fill-opacity="0.4"/>
<path d="M328.891 124.211L321.194 127.062L324.386 135.677L332.082 132.826L328.891 124.211Z" fill="white" fill-opacity="0.4"/>
<path d="M302.683 160.386L294.986 163.237L298.178 171.853L305.874 169.002L302.683 160.386Z" fill="white"/>
<path d="M293.999 163.603L286.302 166.455L289.494 175.07L297.19 172.219L293.999 163.603Z" fill="white"/>
<path d="M320.098 153.935L312.401 156.786L315.593 165.402L323.289 162.55L320.098 153.935Z" fill="white" fill-opacity="0.4"/>
<path d="M285.291 166.829L277.595 169.68L280.786 178.296L288.483 175.445L285.291 166.829Z" fill="white"/>
<path d="M311.39 157.161L303.694 160.012L306.885 168.627L314.582 165.776L311.39 157.161Z" fill="white" fill-opacity="0.4"/>
<path d="M276.584 170.054L272.54 171.552C270.151 172.437 268.936 175.082 269.821 177.472C270.706 179.861 273.351 181.076 275.74 180.191L279.784 178.693L276.592 170.077L276.584 170.054Z" fill="white"/>
<path d="M328.805 150.709L321.108 153.561L324.3 162.176L331.997 159.325L328.805 150.709Z" fill="white" fill-opacity="0.4"/>
<path d="M334.683 153.81C334.622 153.153 334.648 152.516 334.805 151.883C334.825 150.387 335.359 148.935 336.547 147.841L329.816 150.335L333.007 158.95L334.547 158.38C334.349 156.86 334.367 155.285 334.691 153.833L334.683 153.81Z" fill="white" fill-opacity="0.4"/>
<path d="M353.356 102.163C352.874 102.341 352.384 102.288 352.006 102.114L343.267 98.2712C342.322 97.8373 341.939 96.8034 342.373 95.8589C342.807 94.9143 343.841 94.5313 344.785 94.9653L351.749 98.1073L358.127 83.7262C358.561 82.7816 359.595 82.3986 360.539 82.8326C361.484 83.2665 361.867 84.3003 361.433 85.2449L354.387 101.206C354.144 101.61 353.807 101.97 353.325 102.148" fill="white"/>
<path d="M366.943 141.52L371.653 139.775L374.517 133.541C374.962 132.697 374.562 131.617 373.649 131.197C372.804 130.752 371.725 131.152 371.305 132.065L368.441 138.3L362.207 135.436C361.363 134.991 360.283 135.391 359.864 136.304C359.419 137.148 359.819 138.228 360.732 138.647L366.966 141.511L366.943 141.52Z" fill="white"/>
<path d="M361.91 115.872L364.774 109.638C365.219 108.794 364.819 107.714 363.906 107.295C363.061 106.85 361.982 107.25 361.562 108.163L358.698 114.397L352.464 111.533C351.62 111.088 350.54 111.488 350.121 112.401C349.676 113.245 350.076 114.325 350.989 114.744L357.223 117.608L354.359 123.842C353.914 124.686 354.314 125.766 355.227 126.186C355.7 126.403 356.202 126.347 356.615 126.194C357.029 126.041 357.343 125.69 357.594 125.309L360.458 119.075L366.692 121.939C367.164 122.156 367.666 122.1 368.079 121.947C368.493 121.794 368.876 121.417 369.058 121.062C369.503 120.218 369.103 119.138 368.19 118.719L361.956 115.855L361.91 115.872Z" fill="white"/>
<path d="M455.478 171.114L461.143 170.113C461.513 170.055 461.893 170.306 461.952 170.676L462.953 176.34C463.012 176.711 462.761 177.091 462.391 177.15L456.726 178.151C456.356 178.209 455.976 177.958 455.917 177.588L454.916 171.924C454.857 171.554 455.108 171.173 455.478 171.114Z" fill="white"/>
<path d="M473.126 167.974L478.791 166.973C479.161 166.914 479.541 167.165 479.6 167.535L480.601 173.2C480.66 173.57 480.409 173.95 480.039 174.009L474.374 175.01C474.004 175.069 473.624 174.818 473.565 174.448L472.564 168.783C472.428 168.415 472.71 168.049 473.126 167.974Z" fill="white"/>
<path d="M448.216 181.486L453.881 180.485C454.251 180.427 454.631 180.678 454.69 181.048L455.691 186.712C455.75 187.082 455.499 187.463 455.129 187.522L449.464 188.523C449.094 188.581 448.714 188.33 448.655 187.96L447.654 182.296C447.518 181.928 447.8 181.562 448.216 181.486Z" fill="white"/>
<path d="M457.034 179.97L462.699 178.969C463.069 178.911 463.449 179.162 463.508 179.532L464.509 185.196C464.568 185.566 464.317 185.947 463.947 186.006L458.282 187.007C457.912 187.065 457.532 186.814 457.473 186.444L456.472 180.78C456.396 180.363 456.67 179.975 457.034 179.97Z" fill="white"/>
<path d="M465.841 178.354L471.506 177.353C471.876 177.294 472.256 177.545 472.315 177.915L473.316 183.58C473.375 183.95 473.124 184.33 472.754 184.389L467.089 185.39C466.719 185.449 466.339 185.198 466.28 184.828L465.279 179.163C465.22 178.793 465.471 178.412 465.841 178.354Z" fill="white"/>
<path d="M474.688 176.775L480.353 175.774C480.723 175.715 481.103 175.966 481.162 176.336L482.163 182.001C482.222 182.371 481.971 182.751 481.601 182.81L475.936 183.811C475.566 183.87 475.186 183.619 475.127 183.248L474.126 177.584C474.067 177.214 474.272 176.85 474.688 176.775Z" fill="white"/>
<path d="M483.506 175.258L489.171 174.257C489.541 174.199 489.921 174.45 489.98 174.82L490.981 180.484C491.04 180.854 490.789 181.235 490.419 181.294L484.754 182.295C484.384 182.353 484.004 182.102 483.945 181.732L482.944 176.068C482.868 175.652 483.142 175.263 483.506 175.258Z" fill="white"/>
<path d="M449.795 190.333L455.46 189.332C455.83 189.273 456.21 189.524 456.269 189.894L457.27 195.559C457.329 195.929 457.078 196.31 456.708 196.368L451.043 197.369C450.673 197.428 450.293 197.177 450.234 196.807L449.233 191.142C449.097 190.775 449.379 190.409 449.795 190.333Z" fill="white"/>
<path d="M458.596 188.771L464.261 187.77C464.631 187.711 465.011 187.962 465.07 188.333L466.071 193.997C466.13 194.367 465.879 194.748 465.509 194.806L459.844 195.807C459.474 195.866 459.094 195.615 459.035 195.245L458.034 189.58C457.975 189.21 458.226 188.83 458.596 188.771Z" fill="white"/>
<path d="M467.42 187.201L473.085 186.2C473.455 186.141 473.835 186.392 473.894 186.762L474.895 192.427C474.954 192.797 474.703 193.177 474.333 193.236L468.668 194.237C468.298 194.296 467.918 194.045 467.859 193.675L466.858 188.01C466.799 187.64 467.05 187.26 467.42 187.201Z" fill="white"/>
<path d="M476.267 185.622L481.932 184.621C482.302 184.562 482.682 184.813 482.741 185.183L483.742 190.848C483.801 191.218 483.55 191.598 483.18 191.657L477.515 192.658C477.145 192.717 476.765 192.466 476.706 192.095L475.705 186.431C475.569 186.063 475.851 185.697 476.267 185.622Z" fill="white"/>
<path d="M485.068 184.06L490.733 183.059C491.103 183 491.483 183.251 491.542 183.621L492.543 189.286C492.602 189.656 492.351 190.036 491.981 190.095L486.316 191.096C485.946 191.155 485.566 190.904 485.507 190.534L484.506 184.869C484.447 184.499 484.698 184.119 485.068 184.06Z" fill="white"/>
<path d="M460.181 197.564L465.846 196.563C466.216 196.504 466.596 196.755 466.655 197.125L467.656 202.79C467.715 203.16 467.464 203.54 467.094 203.599L461.429 204.6C461.059 204.659 460.679 204.408 460.62 204.038L459.619 198.373C459.56 198.003 459.811 197.622 460.181 197.564Z" fill="white"/>
<path d="M468.982 196.002L474.647 195.001C475.017 194.942 475.397 195.193 475.456 195.563L476.457 201.228C476.516 201.598 476.265 201.978 475.895 202.037L470.23 203.038C469.86 203.097 469.48 202.846 469.421 202.475L468.42 196.811C468.361 196.441 468.612 196.06 468.982 196.002Z" fill="white"/>
<path d="M477.829 194.423L483.494 193.422C483.864 193.363 484.244 193.614 484.303 193.984L485.304 199.649C485.363 200.019 485.112 200.399 484.742 200.458L479.077 201.459C478.707 201.518 478.327 201.267 478.268 200.897L477.267 195.232C477.131 194.865 477.413 194.499 477.829 194.423Z" fill="white"/>
<path d="M470.544 204.803L476.209 203.802C476.579 203.743 476.959 203.994 477.018 204.364L478.019 210.029C478.078 210.399 477.827 210.779 477.457 210.838L471.792 211.839C471.422 211.898 471.042 211.647 470.983 211.277L469.982 205.612C469.923 205.242 470.174 204.862 470.544 204.803Z" fill="white"/>
<path d="M497.799 82.5155C473.71 85.1949 472.783 85.3031 458.695 54.4663C458.027 53.0155 456.384 52.3178 454.882 52.848C453.325 53.3723 452.556 54.9636 452.949 56.5165C461.869 90.4698 460.342 91.4271 441.664 103.284C440.434 104.054 439.911 105.606 440.445 106.976C440.956 108.354 442.392 109.128 443.818 108.888C466.178 104.994 466.807 106.198 482.796 137.088C483.516 138.468 485.125 139.073 486.572 138.537C488.02 138.001 488.829 136.447 488.485 134.955C480.176 100.958 480.403 100.09 499.73 88.1494C500.946 87.4116 501.485 85.9054 501.006 84.5414C500.527 83.1774 499.197 82.3376 497.768 82.5011L497.799 82.5155Z" fill="white"/>
<path d="M443.076 125.153C432.209 126.357 431.785 126.409 425.434 112.511C425.141 111.861 424.394 111.537 423.728 111.784C423.039 112.039 422.675 112.749 422.852 113.441C426.877 128.75 426.179 129.191 417.758 134.531C417.212 134.891 416.971 135.581 417.201 136.201C417.431 136.821 418.086 137.18 418.726 137.073C428.815 135.321 429.097 135.87 436.316 149.787C436.647 150.396 437.354 150.683 438.02 150.436C438.686 150.189 439.028 149.488 438.881 148.81C435.134 133.477 435.222 133.079 443.944 127.705C444.498 127.369 444.739 126.679 444.518 126.082C444.297 125.484 443.702 125.078 443.053 125.161L443.076 125.153Z" fill="white"/>
<path d="M435.585 75.3069C427.483 76.2179 427.182 76.2511 422.452 65.8803C422.219 65.3919 421.661 65.1545 421.178 65.3333C420.673 65.5205 420.395 66.0413 420.537 66.5637C423.533 77.9686 423.025 78.2877 416.746 82.2857C416.32 82.5479 416.175 83.0721 416.345 83.5315C416.515 83.991 417.005 84.2539 417.475 84.1841C424.982 82.8664 425.19 83.2859 430.579 93.6737C430.827 94.1306 431.354 94.3536 431.859 94.1663C432.342 93.9876 432.619 93.4668 432.509 92.9588C429.713 81.5319 429.789 81.2425 436.3 77.2368C436.702 76.9832 436.879 76.4735 436.741 76.0284C436.602 75.5834 436.127 75.289 435.648 75.3359L435.585 75.3069Z" fill="white"/>
<path d="M513.892 116.294C511.956 114.947 509.589 114.413 507.262 114.831L489.098 118.059C489.46 119.884 489.905 121.861 490.427 124.046L508.345 120.857C509.054 120.725 509.796 120.894 510.391 121.301C510.994 121.731 511.402 122.337 511.519 123.078L514.994 142.614C515.126 143.323 514.956 144.065 514.55 144.66C514.12 145.263 513.513 145.67 512.773 145.788L467.505 153.857L414.432 163.145C412.983 163.394 411.607 163.982 410.402 164.82C409.197 165.659 408.172 166.77 407.387 168.106L402.757 176.274L387.66 178.967L380.608 172.905C378.391 170.8 375.22 169.858 372.115 170.434L362.752 172.1C360.278 172.546 357.992 173.993 356.231 176.292C354.706 178.451 354.086 181.293 354.558 183.835L363.533 235.43C363.979 237.904 365.427 240.189 367.725 241.95C369.947 243.505 372.626 244.106 375.278 243.647L383.562 242.172L390.695 248.308C393.022 250.216 396.041 251.031 398.953 250.5L416.409 247.404C416.871 247.312 417.331 247.141 417.776 247.003C420.053 246.238 422.057 244.737 423.546 242.409L428.095 234.375L442.5 231.861L442.531 232.084L525.5 217.313C526.995 217.046 528.439 218.053 528.705 219.548L531.058 232.811C531.19 233.52 531.021 234.262 530.614 234.857C530.184 235.46 529.555 235.876 528.838 235.985L362.484 265.604C361.775 265.736 361.033 265.567 360.438 265.16C359.835 264.73 359.427 264.124 359.309 263.383L339.779 153.673C339.647 152.964 339.816 152.222 340.223 151.627C340.549 151.167 340.995 150.819 341.523 150.623C341.684 150.563 341.845 150.504 341.999 150.498L413.131 137.839C413.131 137.839 413.123 137.816 413.114 137.793C412.232 135.481 412.922 132.9 414.746 131.336L395.456 134.772L382.205 99.0002L417.678 73.6582C417.336 71.747 416.663 69.2266 416.265 67.7281C416.205 67.5673 416.215 67.3809 416.17 67.1886L379.992 93.0269L370.409 67.1575C367.745 59.9665 359.748 56.2927 352.557 58.9565L342.655 62.6247L340.274 59.3002C338.389 56.6804 339.012 53.0009 341.64 51.1389L401.718 8.21675C402.149 7.90017 402.615 7.6755 403.097 7.49678C405.51 6.60315 408.334 7.38582 409.902 9.57432L435.863 45.9414C437.748 48.5613 437.125 52.2407 434.497 54.1027L424.084 61.5397C425.094 62.0799 425.959 62.9351 426.485 64.0727C426.821 64.8368 427.213 65.6844 427.637 66.5463L438.073 59.1009C443.442 55.2569 444.691 47.7661 440.87 42.3884L414.909 6.02136C411.065 0.65224 403.574 -0.596449 398.197 3.22457L398.105 3.25861L397.934 3.00845C396.08 0.403019 393.303 -1.31143 390.153 -1.84306C386.981 -2.36618 383.827 -1.64184 381.221 0.211653L381.129 0.245697L380.958 -0.00446735C379.105 -2.6099 376.327 -4.32434 373.178 -4.85597C370.006 -5.37909 366.851 -4.65475 364.246 -2.80126L304.168 40.1209C301.562 41.9744 299.848 44.7519 299.316 47.9012C298.793 51.0735 299.518 54.2279 301.371 56.8333L313.271 73.5099L238.649 101.153C231.458 103.817 227.784 111.814 230.448 119.005L261.674 203.299L249.888 207.665C245.845 209.163 243.707 213.9 245.23 218.012C248.754 227.524 259.318 232.415 268.761 228.917L342.095 201.751L353.26 264.475C353.678 266.802 354.978 268.829 356.922 270.199C358.858 271.546 361.225 272.08 363.552 271.662L529.906 242.043C530.445 241.948 530.968 241.807 531.45 241.628C533.127 241.007 534.571 239.897 535.63 238.381C536.977 236.445 537.511 234.079 537.093 231.752L534.74 218.488C533.876 213.687 529.258 210.46 524.449 211.301L512.804 213.368C513.139 212.016 513.208 210.579 512.969 209.231L503.913 157.77C503.658 156.376 503.118 155.06 502.351 153.907L513.873 151.86C516.2 151.442 518.25 150.134 519.597 148.198C520.944 146.262 521.478 143.896 521.06 141.569L517.585 122.032C517.167 119.705 515.868 117.678 513.923 116.308L513.892 116.294ZM384.743 5.20383C385.174 4.88726 385.639 4.66259 386.099 4.49237C387.041 4.14343 388.076 4.04721 389.105 4.21478C390.664 4.47336 391.994 5.31314 392.904 6.56991L393.084 6.84304L338.041 46.1493C332.672 49.9933 331.423 57.4841 335.244 62.8617L336.659 64.846L330.892 66.9822L323.253 56.3044C322.343 55.0476 321.996 53.4776 322.264 51.9417C322.522 50.3828 323.353 49.0297 324.619 48.143L384.697 5.22086L384.743 5.20383ZM305.311 48.9203C305.57 47.3614 306.401 46.0083 307.666 45.1216L367.744 2.19943C368.176 1.88286 368.641 1.65818 369.101 1.48797C370.043 1.13902 371.078 1.04281 372.107 1.21038C373.666 1.46896 374.996 2.30874 375.906 3.5655L376.085 3.83864L321.066 43.1364C318.46 44.9898 316.737 47.7444 316.214 50.9167C315.691 54.089 316.415 57.2434 318.269 59.8488L324.933 69.1635L319.144 71.3082L306.277 53.2914C305.368 52.0347 305.021 50.4647 305.288 48.9288L305.311 48.9203ZM235.916 116.979C234.393 112.867 236.585 108.136 240.675 106.621L354.583 64.4245C358.695 62.9011 363.426 65.0936 364.941 69.1831L389.614 135.786L340.908 144.449C338.581 144.867 336.554 146.167 335.184 148.111C333.837 150.047 333.303 152.414 333.721 154.741L337.375 175.256L267.142 201.273L235.916 116.979ZM266.693 223.334C260.26 225.717 253.041 222.382 250.633 215.88C250.207 214.732 250.814 213.409 251.963 212.984L338.393 180.966L341.038 195.794L266.693 223.334ZM497.878 158.83L506.935 210.29C507.114 211.269 506.857 212.409 506.347 213.147C505.603 214.102 504.663 214.738 503.707 214.909L447.452 224.775L425.864 228.565C425.618 228.604 425.356 228.675 425.127 228.76C425.127 228.76 425.127 228.76 425.104 228.769C424.736 228.905 424.44 229.093 424.161 229.327C424.1 229.375 424.04 229.424 423.988 229.495C423.718 229.752 423.487 230.047 423.305 230.402L418.303 239.257C417.625 240.318 416.724 240.991 415.68 241.274C415.565 241.316 415.45 241.359 415.326 241.378L397.871 244.474C396.723 244.69 395.503 244.359 394.602 243.621L386.823 236.94C386.206 236.332 385.154 235.677 383.558 235.955L374.195 237.621C373.162 237.794 372.107 237.558 371.338 237.033C370.36 236.298 369.748 235.349 369.577 234.393L360.601 182.799C360.422 181.82 360.678 180.68 361.212 179.933C361.947 178.956 362.896 178.343 363.851 178.172L373.215 176.506C374.417 176.296 375.606 176.613 376.534 177.497L384.393 184.253C385.113 184.927 385.927 185.148 386.503 185.222C386.698 185.254 386.852 185.249 386.961 185.261L404.928 182.133C405.929 181.945 406.795 181.389 407.409 180.508L412.705 171.178C412.867 170.909 413.037 170.664 413.247 170.455C413.299 170.384 413.368 170.358 413.42 170.287C413.99 169.71 414.706 169.314 415.492 169.179L468.533 159.877L468.556 159.869L493.243 155.557C494.299 155.375 495.353 155.611 496.234 156.226C497.115 156.84 497.688 157.751 497.893 158.799L497.878 158.83Z" fill="white"/>
<path d="M446.269 131.442C445.889 131.687 445.547 131.892 445.228 132.089L472.656 127.206C471.5 125.074 470.446 123.217 469.461 121.544L448.869 125.201C449.421 127.609 448.433 130.092 446.283 131.411L446.269 131.442Z" fill="white"/>
</g>
<g opacity="0.5">
<path d="M1246.47 202.799C1237.46 200.957 1231.61 192.115 1233.46 183.099L1234.02 180.35L1237.86 186.158C1238.87 187.693 1240.94 188.117 1242.48 187.102C1244.01 186.088 1244.44 184.014 1243.42 182.479L1235.5 170.493C1234.49 168.958 1232.42 168.534 1230.88 169.548L1218.89 177.468C1217.36 178.482 1216.94 180.555 1217.95 182.091C1218.46 182.868 1219.23 183.344 1220.06 183.514C1220.89 183.683 1221.8 183.533 1222.56 183.032L1227.31 179.891L1226.93 181.75C1224.36 194.36 1232.52 206.731 1245.14 209.311C1246.94 209.678 1248.71 208.52 1249.08 206.708C1249.45 204.896 1248.29 203.138 1246.48 202.768L1246.47 202.799Z" fill="white"/>
<path d="M1272.17 134.432C1268.11 133.603 1264.14 136.231 1263.31 140.286C1262.48 144.341 1265.11 148.318 1269.16 149.146C1273.22 149.975 1277.19 147.347 1278.02 143.292C1278.85 139.237 1276.22 135.26 1272.17 134.432ZM1271.71 136.674C1274.54 137.252 1276.37 140.026 1275.79 142.853C1275.21 145.679 1272.44 147.512 1269.61 146.934C1268.25 146.655 1267.07 145.854 1266.3 144.689C1265.53 143.523 1265.25 142.123 1265.53 140.756C1266.11 137.93 1268.88 136.097 1271.71 136.674Z" fill="white"/>
<path d="M1243.35 128.545C1239.3 127.716 1235.32 130.344 1234.49 134.399C1233.67 138.453 1236.29 142.43 1240.35 143.259C1244.4 144.087 1248.38 141.46 1249.21 137.405C1250.04 133.35 1247.41 129.373 1243.35 128.545ZM1242.9 130.787C1245.72 131.365 1247.56 134.139 1246.98 136.965C1246.4 139.791 1243.63 141.625 1240.8 141.047C1237.97 140.47 1236.14 137.695 1236.72 134.869C1237.3 132.043 1240.07 130.21 1242.9 130.787Z" fill="white"/>
<path d="M1214.53 122.655C1210.47 121.826 1206.49 124.454 1205.66 128.508C1204.84 132.563 1207.46 136.54 1211.52 137.369C1215.57 138.197 1219.55 135.57 1220.38 131.515C1221.21 127.46 1218.58 123.483 1214.53 122.655ZM1214.07 124.897C1216.89 125.474 1218.73 128.249 1218.15 131.075C1217.57 133.901 1214.8 135.734 1211.97 135.157C1209.14 134.58 1207.31 131.805 1207.89 128.979C1208.47 126.153 1211.24 124.32 1214.07 124.897Z" fill="white"/>
<path d="M1293.32 59.1824C1292.49 59.0129 1291.7 59.5723 1291.54 60.3863C1291.36 61.2311 1291.92 62.0481 1292.77 62.2054C1293.6 62.3595 1294.4 61.8032 1294.55 60.9707C1294.71 60.1381 1294.15 59.3365 1293.32 59.1824Z" fill="white"/>
<path d="M1282.04 56.8294C1281.21 56.6753 1280.41 57.2315 1280.25 58.0641C1280.1 58.8966 1280.65 59.6983 1281.49 59.8524C1282.32 60.0065 1283.1 59.4624 1283.27 58.6484C1283.44 57.8036 1282.89 56.9866 1282.04 56.8294Z" fill="white"/>
<path d="M1294.75 53.2664L1283.27 50.873C1283.15 50.8479 1283.03 50.8228 1282.92 50.8008C1278.77 50.0334 1274.8 52.7901 1274.05 56.9252C1273.28 61.0726 1276.04 65.0439 1280.18 65.7928L1291.66 68.1862C1291.79 68.2145 1291.92 68.2396 1292.06 68.2678C1296.21 69.0198 1300.16 66.26 1300.91 62.1249C1301.66 57.9744 1298.9 54.0184 1294.77 53.2695L1294.75 53.2664ZM1292.26 65.2065L1280.79 62.8131C1280.79 62.8131 1280.71 62.7974 1280.66 62.788C1278.2 62.2367 1276.63 59.7891 1277.19 57.3256C1277.74 54.8622 1280.19 53.2982 1282.65 53.8495L1294.13 56.243C1294.13 56.243 1294.27 56.2712 1294.34 56.2869C1296.8 56.8536 1298.33 59.3256 1297.76 61.7859C1297.2 64.2462 1294.72 65.7732 1292.26 65.2065Z" fill="white"/>
<path d="M1262.17 71.0593C1261.31 70.8836 1260.46 71.4458 1260.29 72.3059C1260.11 73.166 1260.67 74.0169 1261.53 74.1927C1262.39 74.3684 1263.24 73.8062 1263.42 72.9461C1263.59 72.086 1263.03 71.2351 1262.17 71.0593Z" fill="white"/>
<path d="M1273.44 72.0345C1271.88 71.7144 1270.36 72.7319 1270.04 74.2832C1269.72 75.8498 1270.74 77.3698 1272.29 77.6867C1273.86 78.0068 1275.38 76.9893 1275.69 75.438C1276.01 73.8714 1275.01 72.3545 1273.44 72.0345Z" fill="white"/>
<path d="M1283.56 78.6766C1284.42 78.8523 1285.27 78.2901 1285.45 77.43C1285.62 76.5699 1285.08 75.7221 1284.2 75.5432C1283.34 75.3675 1282.49 75.9297 1282.31 76.7898C1282.14 77.6499 1282.7 78.5008 1283.56 78.6766Z" fill="white"/>
<path d="M1295.47 76.5345C1293.9 76.2144 1292.39 77.2165 1292.07 78.7832C1291.75 80.3498 1292.75 81.8666 1294.32 82.1867C1295.88 82.5068 1297.4 81.5047 1297.72 79.938C1298.04 78.3714 1297.04 76.8545 1295.47 76.5345Z" fill="white"/>
<path d="M1305.57 83.1731C1306.43 83.3489 1307.28 82.8021 1307.46 81.9266C1307.63 81.0665 1307.09 80.2187 1306.21 80.0398C1305.33 79.8609 1304.5 80.4109 1304.32 81.2864C1304.14 82.1619 1304.69 82.9943 1305.57 83.1731Z" fill="white"/>
<path d="M1260.18 80.7971C1258.62 80.4771 1257.1 81.4945 1256.78 83.0458C1256.46 84.5971 1257.48 86.1324 1259.03 86.4494C1260.59 86.7695 1262.11 85.752 1262.43 84.2007C1262.75 82.634 1261.73 81.1141 1260.18 80.7971Z" fill="white"/>
<path d="M1271.19 83.0471C1269.63 82.7271 1268.11 83.7445 1267.79 85.2958C1267.47 86.8625 1268.49 88.3824 1270.04 88.6994C1271.61 89.0195 1273.13 88.002 1273.44 86.4507C1273.76 84.884 1272.76 83.3672 1271.19 83.0471Z" fill="white"/>
<path d="M1281.05 90.9494C1282.62 91.2695 1284.14 90.252 1284.46 88.7007C1284.78 87.134 1283.77 85.6172 1282.21 85.2971C1280.64 84.9771 1279.12 85.9945 1278.8 87.5458C1278.49 89.0971 1279.5 90.6324 1281.05 90.9494Z" fill="white"/>
<path d="M1293.22 87.5471C1291.65 87.2271 1290.14 88.2292 1289.82 89.7958C1289.5 91.3625 1290.5 92.8793 1292.07 93.1994C1293.63 93.5195 1295.15 92.5173 1295.47 90.9507C1295.79 89.384 1294.79 87.8672 1293.22 87.5471Z" fill="white"/>
<path d="M1303.06 95.4464C1304.63 95.7665 1306.15 94.7644 1306.47 93.1978C1306.79 91.6311 1305.78 90.1143 1304.22 89.7942C1302.65 89.4741 1301.13 90.4763 1300.81 92.0429C1300.49 93.6096 1301.5 95.1263 1303.06 95.4464Z" fill="white"/>
<path d="M1257.94 91.7947C1256.37 91.4746 1254.85 92.4921 1254.53 94.0434C1254.21 95.5947 1255.23 97.13 1256.78 97.4469C1258.35 97.767 1259.87 96.7495 1260.18 95.1982C1260.5 93.6316 1259.49 92.1117 1257.94 91.7947Z" fill="white"/>
<path d="M1268.95 94.0447C1267.38 93.7246 1265.86 94.7421 1265.54 96.2934C1265.23 97.8447 1266.24 99.38 1267.79 99.6969C1269.36 100.017 1270.88 98.9995 1271.2 97.4482C1271.52 95.8816 1270.51 94.3648 1268.95 94.0447Z" fill="white"/>
<path d="M1278.8 101.962C1280.37 102.282 1281.89 101.264 1282.21 99.7129C1282.53 98.1462 1281.52 96.6294 1279.96 96.3094C1278.39 95.9893 1276.87 97.0068 1276.55 98.558C1276.24 100.109 1277.25 101.645 1278.8 101.962Z" fill="white"/>
<path d="M1290.97 98.5447C1289.41 98.2246 1287.89 99.2267 1287.57 100.793C1287.25 102.36 1288.25 103.877 1289.82 104.197C1291.39 104.517 1292.9 103.515 1293.22 101.948C1293.54 100.382 1292.52 98.8617 1290.97 98.5447Z" fill="white"/>
<path d="M1300.81 106.459C1302.38 106.779 1303.9 105.777 1304.22 104.21C1304.54 102.643 1303.52 101.123 1301.97 100.806C1300.4 100.486 1298.88 101.488 1298.56 103.055C1298.24 104.622 1299.25 106.139 1300.81 106.459Z" fill="white"/>
<path d="M1255.42 104.082C1254.56 103.906 1253.71 104.468 1253.54 105.328C1253.36 106.188 1253.92 107.039 1254.78 107.215C1255.64 107.391 1256.5 106.829 1256.67 105.969C1256.85 105.108 1256.28 104.258 1255.42 104.082Z" fill="white"/>
<path d="M1266.7 105.057C1265.13 104.737 1263.61 105.754 1263.29 107.306C1262.98 108.857 1263.99 110.392 1265.54 110.709C1267.11 111.029 1268.63 110.012 1268.95 108.46C1269.27 106.894 1268.26 105.377 1266.7 105.057Z" fill="white"/>
<path d="M1276.56 112.959C1278.12 113.279 1279.64 112.262 1279.96 110.71C1280.28 109.144 1279.28 107.627 1277.71 107.307C1276.14 106.987 1274.62 108.004 1274.31 109.556C1273.99 111.107 1275 112.642 1276.56 112.959Z" fill="white"/>
<path d="M1288.72 109.557C1287.16 109.237 1285.64 110.239 1285.32 111.806C1285 113.373 1286 114.89 1287.57 115.21C1289.14 115.53 1290.65 114.528 1290.97 112.961C1291.29 111.394 1290.29 109.877 1288.72 109.557Z" fill="white"/>
<path d="M1298.82 116.196C1299.68 116.372 1300.53 115.825 1300.71 114.95C1300.89 114.074 1300.34 113.242 1299.46 113.063C1298.59 112.884 1297.76 113.434 1297.58 114.309C1297.4 115.185 1297.95 116.017 1298.82 116.196Z" fill="white"/>
<path d="M1253.18 115.078C1252.32 114.902 1251.47 115.464 1251.29 116.324C1251.12 117.185 1251.68 118.035 1252.54 118.211C1253.4 118.387 1254.25 117.84 1254.42 116.965C1254.6 116.105 1254.04 115.254 1253.18 115.078Z" fill="white"/>
<path d="M1264.19 117.328C1263.33 117.152 1262.48 117.714 1262.3 118.574C1262.13 119.435 1262.69 120.285 1263.55 120.461C1264.41 120.637 1265.26 120.09 1265.44 119.215C1265.61 118.355 1265.07 117.507 1264.19 117.328Z" fill="white"/>
<path d="M1274.31 123.972C1275.87 124.292 1277.39 123.29 1277.71 121.723C1278.03 120.156 1277.03 118.64 1275.46 118.32C1273.89 118 1272.37 119.017 1272.06 120.568C1271.74 122.12 1272.74 123.652 1274.31 123.972Z" fill="white"/>
<path d="M1393.85 178.701L1388.52 177.612C1388.15 177.538 1387.8 177.773 1387.72 178.138L1386.63 183.468C1386.56 183.832 1386.79 184.189 1387.16 184.263L1392.49 185.352C1392.85 185.427 1393.21 185.191 1393.28 184.827L1394.37 179.497C1394.45 179.132 1394.21 178.776 1393.85 178.701Z" fill="white"/>
<path d="M1410.53 182.11L1405.18 181.018C1404.78 180.936 1404.41 181.181 1404.39 181.543L1403.3 186.888C1403.22 187.242 1403.47 187.612 1403.82 187.684L1409.17 188.776C1409.52 188.848 1409.89 188.604 1409.96 188.25L1411.05 182.905C1411.13 182.552 1410.88 182.182 1410.53 182.11Z" fill="white"/>
<path d="M1383.84 185.329L1378.49 184.236C1378.09 184.155 1377.72 184.399 1377.7 184.762L1376.6 190.107C1376.53 190.46 1376.78 190.83 1377.13 190.902L1382.48 191.995C1382.83 192.067 1383.2 191.822 1383.27 191.469L1384.36 186.124C1384.44 185.771 1384.19 185.401 1383.84 185.329Z" fill="white"/>
<path d="M1392.14 187.073L1386.79 185.981C1386.45 185.863 1386.08 186.092 1386 186.507L1384.9 191.852C1384.83 192.205 1385.08 192.575 1385.43 192.647L1390.78 193.739C1391.13 193.811 1391.5 193.567 1391.57 193.214L1392.66 187.868C1392.73 187.515 1392.49 187.145 1392.14 187.073Z" fill="white"/>
<path d="M1400.46 188.724L1395.13 187.635C1394.76 187.56 1394.41 187.796 1394.33 188.16L1393.24 193.49C1393.17 193.855 1393.4 194.211 1393.77 194.286L1399.1 195.374C1399.46 195.449 1399.82 195.214 1399.89 194.849L1400.98 189.519C1401.06 189.155 1400.82 188.798 1400.46 188.724Z" fill="white"/>
<path d="M1408.83 190.434L1403.48 189.342C1403.08 189.26 1402.76 189.514 1402.69 189.867L1401.59 195.213C1401.52 195.566 1401.77 195.936 1402.12 196.008L1407.47 197.1C1407.82 197.172 1408.19 196.928 1408.26 196.575L1409.35 191.229C1409.42 190.876 1409.18 190.506 1408.83 190.434Z" fill="white"/>
<path d="M1417.13 192.179L1411.78 191.086C1411.44 190.968 1411.07 191.197 1410.99 191.612L1409.89 196.957C1409.82 197.31 1410.07 197.68 1410.42 197.752L1415.76 198.844C1416.12 198.917 1416.49 198.672 1416.56 198.319L1417.65 192.974C1417.72 192.621 1417.48 192.251 1417.13 192.179Z" fill="white"/>
<path d="M1382.13 193.684L1376.79 192.592C1376.39 192.511 1376.02 192.755 1375.99 193.118L1374.9 198.463C1374.83 198.816 1375.07 199.186 1375.42 199.258L1380.77 200.35C1381.12 200.423 1381.49 200.178 1381.56 199.825L1382.66 194.48C1382.73 194.127 1382.48 193.757 1382.13 193.684Z" fill="white"/>
<path d="M1390.44 195.382L1385.11 194.293C1384.75 194.219 1384.39 194.454 1384.31 194.819L1383.23 200.148C1383.15 200.513 1383.39 200.869 1383.75 200.944L1389.08 202.033C1389.45 202.107 1389.8 201.872 1389.88 201.507L1390.96 196.177C1391.04 195.813 1390.8 195.457 1390.44 195.382Z" fill="white"/>
<path d="M1398.75 197.08L1393.42 195.991C1393.05 195.916 1392.7 196.152 1392.62 196.516L1391.53 201.846C1391.46 202.211 1391.7 202.567 1392.06 202.642L1397.39 203.73C1397.75 203.805 1398.11 203.57 1398.19 203.205L1399.27 197.875C1399.35 197.51 1399.11 197.154 1398.75 197.08Z" fill="white"/>
<path d="M1407.12 198.79L1401.77 197.698C1401.38 197.617 1401.01 197.861 1400.98 198.224L1399.89 203.569C1399.82 203.922 1400.06 204.292 1400.41 204.364L1405.76 205.456C1406.11 205.529 1406.48 205.284 1406.55 204.931L1407.65 199.586C1407.72 199.233 1407.47 198.863 1407.12 198.79Z" fill="white"/>
<path d="M1415.43 200.488L1410.1 199.399C1409.73 199.325 1409.38 199.56 1409.3 199.925L1408.22 205.254C1408.14 205.619 1408.38 205.975 1408.74 206.05L1414.07 207.139C1414.44 207.213 1414.79 206.978 1414.87 206.613L1415.95 201.283C1416.03 200.919 1415.79 200.563 1415.43 200.488Z" fill="white"/>
<path d="M1388.74 203.69L1383.41 202.601C1383.05 202.527 1382.69 202.762 1382.62 203.127L1381.53 208.456C1381.45 208.821 1381.69 209.177 1382.05 209.252L1387.38 210.341C1387.75 210.415 1388.1 210.18 1388.18 209.815L1389.27 204.486C1389.34 204.121 1389.11 203.765 1388.74 203.69Z" fill="white"/>
<path d="M1397.05 205.388L1391.72 204.299C1391.36 204.224 1391 204.46 1390.93 204.825L1389.84 210.154C1389.76 210.519 1390 210.875 1390.36 210.95L1395.69 212.038C1396.06 212.113 1396.41 211.878 1396.49 211.513L1397.58 206.183C1397.65 205.819 1397.42 205.462 1397.05 205.388Z" fill="white"/>
<path d="M1405.42 207.099L1400.08 206.006C1399.68 205.925 1399.31 206.169 1399.28 206.532L1398.19 211.877C1398.12 212.23 1398.36 212.6 1398.72 212.672L1404.06 213.764C1404.41 213.837 1404.78 213.592 1404.86 213.239L1405.95 207.894C1406.02 207.541 1405.78 207.171 1405.42 207.099Z" fill="white"/>
<path d="M1395.35 213.698L1390.02 212.609C1389.66 212.535 1389.3 212.77 1389.23 213.135L1388.14 218.464C1388.07 218.829 1388.3 219.185 1388.67 219.26L1393.99 220.349C1394.36 220.423 1394.72 220.188 1394.79 219.823L1395.88 214.493C1395.95 214.129 1395.72 213.773 1395.35 213.698Z" fill="white"/>
<path d="M1470.3 120.895C1449.45 110.94 1448.64 110.549 1452.77 78.5116C1452.96 77.0151 1451.97 75.6121 1450.5 75.2955C1448.99 74.9388 1447.54 75.8428 1447.1 77.289C1437.24 109.259 1435.51 109.274 1414.41 109.46C1413.02 109.479 1411.84 110.47 1411.58 111.825C1411.31 113.195 1412.06 114.548 1413.35 115.066C1433.4 123.165 1433.3 124.456 1430.7 157.526C1430.6 158.992 1431.59 160.315 1433.03 160.61C1434.48 160.905 1435.91 160.063 1436.38 158.653C1446.77 126.953 1447.38 126.356 1469.04 126.43C1470.4 126.436 1471.58 125.494 1471.89 124.164C1472.19 122.834 1471.53 121.466 1470.3 120.88L1470.3 120.895Z" fill="white"/>
<path d="M1403.56 132.636C1394.16 128.154 1393.8 127.968 1395.65 113.514C1395.74 112.844 1395.29 112.209 1394.62 112.055C1393.93 111.899 1393.29 112.296 1393.09 112.959C1388.64 127.378 1387.87 127.397 1378.34 127.483C1377.72 127.484 1377.18 127.933 1377.07 128.551C1376.94 129.165 1377.28 129.778 1377.88 130.011C1386.92 133.668 1386.88 134.252 1385.71 149.164C1385.65 149.825 1386.1 150.429 1386.75 150.561C1387.39 150.693 1388.05 150.314 1388.26 149.685C1392.94 135.377 1393.22 135.114 1402.99 135.142C1403.61 135.142 1404.13 134.72 1404.27 134.124C1404.41 133.528 1404.1 132.906 1403.55 132.648L1403.56 132.636Z" fill="white"/>
<path d="M1427.04 142.425C1427.17 139.797 1427.22 137.534 1427.17 135.572L1408.65 131.788C1409.03 132.841 1409.13 133.997 1408.86 135.158C1408.57 136.427 1407.88 137.518 1406.96 138.323L1427.04 142.425Z" fill="white"/>
<path d="M1462.8 172.724L1466.81 153.095C1467.83 148.103 1464.6 143.22 1459.61 142.2L1448.11 139.849C1447.3 141.62 1446.47 143.723 1445.56 146.209L1458.28 148.808C1459.63 149.084 1460.5 150.397 1460.22 151.749L1456.21 171.378C1455.93 172.729 1454.62 173.597 1453.27 173.321L1407.76 164.023L1355.2 153.139L1354.52 153.001C1352.26 152.54 1349.93 152.847 1347.83 153.859C1347.14 154.197 1346.47 154.604 1345.84 155.099L1338.54 160.969L1323.64 157.925L1319.31 149.679C1318.14 147.2 1315.93 145.293 1313.28 144.431C1312.9 144.306 1312.51 144.209 1312.11 144.128L1302.71 142.207C1301.43 141.947 1300.11 141.947 1298.77 142.203C1297.44 142.459 1296.12 142.973 1294.83 143.749C1293.68 144.506 1292.69 145.505 1291.91 146.642C1291.14 147.779 1290.59 149.059 1290.32 150.38L1279.52 202.128C1279.39 202.773 1279.32 203.415 1279.33 204.073C1279.33 206.041 1279.91 208.078 1281.08 210.014C1282.04 211.475 1283.34 212.652 1284.84 213.47C1285.73 213.956 1286.7 214.314 1287.73 214.524L1295.9 216.194L1298.07 220.35L1300.25 224.507C1300.56 225.083 1300.93 225.607 1301.35 226.091C1302.4 227.378 1303.72 228.401 1305.22 229.074C1305.9 229.391 1306.64 229.621 1307.39 229.775L1324.92 233.356C1326.76 233.732 1328.66 233.608 1330.45 232.998C1331.53 232.627 1332.57 232.102 1333.54 231.39L1340.86 225.493L1354.91 228.395L1354.87 228.61L1438.48 245.694C1439.83 245.97 1440.7 247.284 1440.42 248.635L1437.7 261.952C1437.43 263.303 1436.11 264.171 1434.76 263.895L1267.67 229.755C1266.32 229.479 1265.45 228.165 1265.73 226.814L1288.24 116.611C1288.52 115.259 1289.83 114.391 1291.18 114.667L1372.97 131.378C1372.44 130.245 1372.22 128.968 1372.47 127.659C1372.68 126.519 1373.23 125.51 1373.98 124.705L1359.36 121.717L1371.19 63.8432C1372.73 56.2865 1367.84 48.8721 1360.27 47.325L1225.33 19.7531C1217.77 18.2091 1210.35 23.0944 1208.81 30.6666L1187.61 134.403C1186.07 141.96 1190.95 149.375 1198.53 150.922L1203.12 151.86C1204.21 152.083 1205.32 151.749 1206.09 150.947C1207.28 149.719 1209.27 149.693 1210.5 150.888C1210.82 151.194 1211.06 151.579 1211.23 151.998C1211.63 153.024 1212.52 153.781 1213.61 154.003L1231.95 157.75C1233.04 157.973 1234.15 157.64 1234.92 156.837C1236.11 155.609 1238.1 155.584 1239.33 156.779C1239.65 157.1 1239.89 157.47 1240.06 157.888C1240.46 158.914 1241.35 159.671 1242.44 159.894L1260.78 163.641C1261.87 163.863 1262.98 163.53 1263.75 162.728C1264.33 162.127 1265.1 161.805 1265.94 161.784C1266.77 161.778 1267.56 162.082 1268.16 162.669C1268.48 162.975 1268.74 163.363 1268.89 163.779C1269.29 164.82 1270.18 165.561 1271.27 165.784L1271.34 165.8L1259.16 225.455C1258.14 230.447 1261.36 235.33 1266.35 236.35L1433.45 270.49C1438.44 271.51 1443.32 268.284 1444.34 263.292L1447.06 249.976C1448.08 244.984 1444.86 240.1 1439.86 239.081L1428.59 236.777C1429.31 235.676 1429.83 234.455 1430.09 233.211L1440.76 181.549C1441.03 180.228 1441.02 178.915 1440.8 177.654L1451.95 179.932C1456.94 180.952 1461.83 177.725 1462.85 172.734L1462.8 172.724ZM1272.64 158.033C1269.35 154.816 1264.26 154.416 1260.52 156.98L1245.22 153.855C1244.82 153.229 1244.36 152.67 1243.83 152.146C1240.53 148.928 1235.45 148.529 1231.71 151.093L1216.41 147.967C1216.01 147.342 1215.55 146.783 1215.01 146.258C1211.7 143.038 1206.62 142.639 1202.89 145.206L1199.82 144.578C1195.77 143.75 1193.14 139.773 1193.97 135.718L1208.68 63.6982L1253.08 34.5764L1248.95 54.4204L1272.94 38.7786L1271.01 48.0647L1285.26 38.6391L1358.97 53.6991C1363.02 54.5276 1365.65 58.5045 1364.82 62.5594L1353 120.433L1292.53 108.078C1287.54 107.058 1282.65 110.285 1281.63 115.277L1272.85 158.252C1272.79 158.19 1272.72 158.113 1272.66 158.036L1272.64 158.033ZM1423.44 231.852C1423.25 232.774 1422.63 233.687 1421.93 234.136C1420.94 234.735 1419.89 234.952 1419 234.77L1340.88 218.585C1339.65 218.334 1338.56 218.606 1337.64 219.395C1337.64 219.41 1337.61 219.42 1337.59 219.432L1335.96 220.747L1329.54 225.916C1329.28 226.103 1329.01 226.255 1328.73 226.389C1328.32 226.578 1327.9 226.684 1327.49 226.729C1327.08 226.788 1326.66 226.799 1326.24 226.714L1308.72 223.134C1308.18 223.024 1307.67 222.791 1307.24 222.463C1306.81 222.136 1306.43 221.722 1306.18 221.254L1301.31 211.955C1301.21 211.742 1301.09 211.527 1300.93 211.317C1300.84 211.203 1300.72 211.082 1300.61 210.98C1300.52 210.882 1300.46 210.789 1300.35 210.703C1299.9 210.307 1299.28 209.988 1298.46 209.822L1289.06 207.901C1288.59 207.804 1288.13 207.614 1287.74 207.342C1287.34 207.07 1287.01 206.761 1286.78 206.394C1286.18 205.393 1285.95 204.353 1286.13 203.462L1296.93 151.714C1297.11 150.792 1297.73 149.879 1298.43 149.43C1298.69 149.289 1298.94 149.149 1299.18 149.055C1299.93 148.744 1300.69 148.658 1301.36 148.796L1310.76 150.717C1311.88 150.946 1312.8 151.645 1313.23 152.581L1318.15 162.003C1318.31 162.324 1318.49 162.601 1318.69 162.832C1318.71 162.869 1318.75 162.894 1318.78 162.931C1318.99 163.166 1319.19 163.351 1319.4 163.49C1319.76 163.756 1320.11 163.939 1320.33 164.032L1320.71 164.206L1338.4 167.821C1338.76 167.878 1339.13 167.889 1339.48 167.865C1340.21 167.822 1340.91 167.598 1341.58 167.173L1350.04 160.389C1350.95 159.68 1352.1 159.386 1353.17 159.606L1353.85 159.744L1431.18 175.769C1433.21 176.183 1434.53 178.181 1434.12 180.193L1423.45 231.855L1423.44 231.852Z" fill="white"/>
<path d="M1423.55 83.7438C1416.54 80.3912 1416.28 80.2732 1417.66 69.4999C1417.73 69.0021 1417.4 68.5181 1416.89 68.4145C1416.39 68.2956 1415.9 68.5948 1415.75 69.0769C1412.43 79.8238 1411.86 79.8337 1404.77 79.8904C1404.31 79.8916 1403.9 80.225 1403.82 80.6889C1403.73 81.1497 1403.99 81.6028 1404.42 81.7859C1411.16 84.5071 1411.12 84.9465 1410.25 96.051C1410.22 96.5397 1410.54 96.99 1411.03 97.0904C1411.53 97.1908 1412 96.9037 1412.16 96.4402C1415.65 85.7924 1415.85 85.578 1423.14 85.6113C1423.6 85.6102 1424.01 85.2921 1424.1 84.8467C1424.19 84.4013 1423.98 83.9423 1423.57 83.7469L1423.55 83.7438Z" fill="white"/>
</g>
<g opacity="0.5">
<path d="M1178.34 157.704C1158.94 152.82 1158.2 152.637 1156.21 124.723C1156.12 123.421 1155.04 122.394 1153.74 122.379C1152.39 122.339 1151.32 123.348 1151.19 124.649C1148.29 153.466 1146.83 153.775 1128.95 157.547C1127.77 157.797 1126.93 158.843 1126.94 160.048C1126.95 161.253 1127.82 162.279 1129 162.499C1147.4 165.947 1147.54 167.056 1150.98 195.564C1151.14 196.83 1152.21 197.785 1153.48 197.788C1154.76 197.792 1155.84 196.831 1155.98 195.566C1159.38 166.883 1159.8 166.27 1178.19 162.632C1179.34 162.406 1180.19 161.396 1180.22 160.216C1180.24 159.035 1179.45 157.996 1178.31 157.704L1178.34 157.704Z" fill="white"/>
<path d="M1101.47 177.017C1109.77 178.57 1109.84 179.077 1111.4 191.938C1111.47 192.505 1111.95 192.94 1112.53 192.942C1113.1 192.943 1113.59 192.511 1113.65 191.932C1115.18 178.995 1115.37 178.718 1123.67 177.077C1124.19 176.97 1124.57 176.526 1124.59 175.995C1124.6 175.465 1124.24 174.994 1123.72 174.86C1114.97 172.656 1114.63 172.57 1113.74 159.987C1113.69 159.397 1113.21 158.938 1112.62 158.924C1112.02 158.898 1111.53 159.355 1111.47 159.945C1110.16 172.944 1109.51 173.087 1101.44 174.788C1100.91 174.895 1100.54 175.376 1100.53 175.918C1100.53 176.461 1100.93 176.92 1101.46 177.03L1101.47 177.017Z" fill="white"/>
<path d="M1115.74 135.784C1121.93 136.945 1121.97 137.319 1123.13 146.89C1123.18 147.312 1123.54 147.638 1123.98 147.64C1124.41 147.641 1124.77 147.316 1124.82 146.895C1125.97 137.258 1126.1 137.053 1132.29 135.829C1132.67 135.757 1132.96 135.421 1132.98 135.023C1132.99 134.626 1132.72 134.275 1132.34 134.178C1125.82 132.534 1125.57 132.473 1124.9 123.096C1124.86 122.662 1124.5 122.311 1124.07 122.31C1123.61 122.297 1123.26 122.633 1123.21 123.079C1122.23 132.765 1121.75 132.872 1115.73 134.133C1115.34 134.216 1115.06 134.565 1115.06 134.975C1115.06 135.384 1115.36 135.723 1115.75 135.796L1115.74 135.784Z" fill="white"/>
<path d="M1125.94 189.544C1125.93 195.75 1121.49 201.233 1115.18 202.336L1079.78 208.471C1072.79 209.56 1066.19 204.855 1064.96 197.851C1063.74 190.774 1068.47 184.05 1075.55 182.816L1093.1 179.767L1091.45 170.243L1073.71 173.316C1061.06 175.619 1053.21 186.853 1055.4 199.536C1057.57 212.074 1068.58 219.936 1081.13 218.018L1116.83 211.836C1128.85 209.748 1136.61 199.635 1135.62 187.847L1125.94 189.532L1125.94 189.544Z" fill="white"/>
<path d="M1077.02 190.846C1074.39 191.296 1072.63 193.81 1073.09 196.438C1073.54 199.066 1076.04 200.833 1078.68 200.37C1081.31 199.919 1083.08 197.405 1082.61 194.777C1082.16 192.149 1079.66 190.383 1077.02 190.846Z" fill="white"/>
<path d="M1102.95 222.246C1102.97 226.235 1100.11 229.77 1096.05 230.482C1091.99 231.182 1088.1 228.81 1086.77 225.059L1080.56 226.138C1082.51 233.494 1089.39 237.935 1097.12 236.594C1104.83 235.254 1109.81 228.748 1109.16 221.167L1102.95 222.246Z" fill="white"/>
<path d="M1065.99 148.303L1066.55 151.509C1066.88 153.426 1068.72 154.721 1070.64 154.388L1077.51 153.202C1079.42 152.87 1080.72 151.03 1080.39 149.113L1079.83 145.906C1083.01 142.926 1084.46 138.628 1083.73 134.384C1082.52 127.416 1075.87 122.723 1068.89 123.933C1061.92 125.143 1057.22 131.794 1058.43 138.775C1059.17 143.018 1061.99 146.581 1065.99 148.303ZM1069.69 128.623C1074.08 127.863 1078.28 130.815 1079.04 135.203C1079.52 138.036 1078.48 140.853 1076.23 142.739L1075.67 143.219C1075.09 143.712 1074.77 144.567 1074.9 145.314L1075.49 148.726L1071.02 149.497L1070.43 146.085C1070.3 145.338 1069.71 144.625 1069 144.37L1068.3 144.115C1065.54 143.096 1063.61 140.789 1063.12 137.956C1062.36 133.567 1065.32 129.382 1069.7 128.611L1069.69 128.623Z" fill="white"/>
<path d="M1080.61 156.163C1080.47 155.355 1079.62 154.834 1078.72 154.989L1070.09 156.484C1069.18 156.638 1068.57 157.419 1068.71 158.227C1068.85 159.035 1069.69 159.567 1070.6 159.401L1079.23 157.906C1080.13 157.752 1080.75 156.97 1080.61 156.163Z" fill="white"/>
<path d="M1072.34 164.19L1079.28 162.992C1080.28 162.814 1080.97 162.02 1080.82 161.212C1080.68 160.405 1079.75 159.896 1078.77 160.062L1071.83 161.261C1070.83 161.439 1070.14 162.232 1070.29 163.04C1070.43 163.848 1071.34 164.356 1072.34 164.19Z" fill="white"/>
</g>
<g opacity="0.5">
<path d="M1099.31 27.9166L1089.09 30.6023C1088.39 30.7877 1087.97 31.5095 1088.15 32.2146L1090.84 42.4274C1091.02 43.1324 1091.75 43.5536 1092.45 43.3682L1102.66 40.6825C1103.37 40.4971 1103.79 39.7753 1103.6 39.0702L1100.92 28.8575C1100.73 28.1524 1100.01 27.7312 1099.31 27.9166Z" fill="white"/>
<path d="M1131.27 19.419L1121.05 22.1047C1120.35 22.2901 1119.93 23.012 1120.11 23.717L1122.8 33.9298C1122.98 34.6348 1123.71 35.0561 1124.41 34.8707L1134.62 32.185C1135.33 31.9996 1135.75 31.2777 1135.56 30.5727L1132.88 20.3599C1132.69 19.6549 1131.97 19.2336 1131.27 19.419Z" fill="white"/>
<path d="M1087.58 48.1451L1077.36 50.8308C1076.66 51.0162 1076.24 51.7381 1076.42 52.4431L1079.11 62.6559C1079.29 63.3609 1080.02 63.7822 1080.72 63.5968L1090.93 60.9111C1091.64 60.7256 1092.06 60.0038 1091.87 59.2987L1089.19 49.086C1089 48.3809 1088.28 47.9597 1087.58 48.1451Z" fill="white"/>
<path d="M1103.56 43.9L1093.35 46.5857C1092.64 46.7711 1092.22 47.4929 1092.41 48.198L1095.09 58.4107C1095.28 59.1158 1096 59.537 1096.71 59.3516L1106.92 56.6659C1107.62 56.4805 1108.05 55.7587 1107.86 55.0536L1105.17 44.8409C1104.99 44.1358 1104.27 43.7146 1103.56 43.9Z" fill="white"/>
<path d="M1119.54 39.6475L1109.32 42.3332C1108.62 42.5186 1108.2 43.2405 1108.38 43.9455L1111.07 54.1583C1111.25 54.8634 1111.97 55.2846 1112.68 55.0992L1122.89 52.4135C1123.6 52.2281 1124.02 51.5062 1123.83 50.8012L1121.15 40.5884C1120.96 39.8834 1120.24 39.4621 1119.54 39.6475Z" fill="white"/>
<path d="M1135.52 35.4024L1125.31 38.0881C1124.6 38.2735 1124.18 38.9954 1124.37 39.7004L1127.05 49.9132C1127.24 50.6182 1127.96 51.0395 1128.67 50.8541L1138.88 48.1684C1139.58 47.983 1140 47.2611 1139.82 46.5561L1137.13 36.3433C1136.95 35.6383 1136.23 35.217 1135.52 35.4024Z" fill="white"/>
<path d="M1151.5 31.1597L1141.28 33.8454C1140.58 34.0308 1140.16 34.7527 1140.34 35.4577L1143.03 45.6705C1143.21 46.3756 1143.94 46.7968 1144.64 46.6114L1154.85 43.9257C1155.56 43.7403 1155.98 43.0184 1155.8 42.3134L1153.11 32.1006C1152.92 31.3956 1152.2 30.9743 1151.5 31.1597Z" fill="white"/>
<path d="M1091.82 64.1212L1081.61 66.8069C1080.9 66.9923 1080.48 67.7141 1080.66 68.4192L1083.35 78.6319C1083.54 79.337 1084.26 79.7582 1084.96 79.5728L1095.18 76.8871C1095.88 76.7017 1096.3 75.9799 1096.12 75.2748L1093.43 65.0621C1093.25 64.357 1092.52 63.9358 1091.82 64.1212Z" fill="white"/>
<path d="M1107.8 59.8761L1097.59 62.5617C1096.89 62.7472 1096.47 63.469 1096.65 64.1741L1099.34 74.3868C1099.52 75.0919 1100.24 75.5131 1100.95 75.3277L1111.16 72.642C1111.87 72.4566 1112.29 71.7348 1112.1 71.0297L1109.42 60.8169C1109.23 60.1119 1108.51 59.6906 1107.8 59.8761Z" fill="white"/>
<path d="M1123.78 55.6236L1113.57 58.3093C1112.86 58.4947 1112.44 59.2166 1112.62 59.9216L1115.31 70.1344C1115.5 70.8394 1116.22 71.2607 1116.92 71.0753L1127.14 68.3896C1127.84 68.2042 1128.26 67.4823 1128.08 66.7773L1125.39 56.5645C1125.2 55.8595 1124.48 55.4382 1123.78 55.6236Z" fill="white"/>
<path d="M1139.76 51.3785L1129.55 54.0642C1128.85 54.2496 1128.42 54.9715 1128.61 55.6765L1131.3 65.8893C1131.48 66.5943 1132.2 67.0156 1132.91 66.8302L1143.12 64.1445C1143.83 63.959 1144.25 63.2372 1144.06 62.5322L1141.38 52.3194C1141.19 51.6143 1140.47 51.1931 1139.76 51.3785Z" fill="white"/>
<path d="M1155.74 47.1358L1145.53 49.8215C1144.82 50.0069 1144.4 50.7288 1144.59 51.4338L1147.27 61.6466C1147.46 62.3516 1148.18 62.7729 1148.88 62.5875L1159.1 59.9018C1159.8 59.7164 1160.22 58.9945 1160.04 58.2895L1157.35 48.0767C1157.17 47.3717 1156.45 46.9504 1155.74 47.1358Z" fill="white"/>
<path d="M1112.05 75.8619L1101.84 78.5476C1101.13 78.733 1100.71 79.4549 1100.9 80.1599L1103.58 90.3727C1103.77 91.0777 1104.49 91.499 1105.19 91.3136L1115.41 88.6279C1116.11 88.4425 1116.53 87.7206 1116.35 87.0156L1113.66 76.8028C1113.48 76.0977 1112.75 75.6765 1112.05 75.8619Z" fill="white"/>
<path d="M1128.02 71.6095L1117.81 74.2951C1117.11 74.4806 1116.68 75.2024 1116.87 75.9075L1119.56 86.1202C1119.74 86.8253 1120.46 87.2465 1121.17 87.0611L1131.38 84.3754C1132.09 84.19 1132.51 83.4682 1132.32 82.7631L1129.64 72.5503C1129.45 71.8453 1128.73 71.424 1128.02 71.6095Z" fill="white"/>
<path d="M1144.01 67.3643L1133.8 70.05C1133.09 70.2354 1132.67 70.9573 1132.86 71.6623L1135.54 81.8751C1135.73 82.5802 1136.45 83.0014 1137.15 82.816L1147.37 80.1303C1148.07 79.9449 1148.49 79.223 1148.31 78.518L1145.62 68.3052C1145.44 67.6002 1144.71 67.1789 1144.01 67.3643Z" fill="white"/>
<path d="M1132.27 87.586L1122.05 90.2717C1121.35 90.4571 1120.93 91.179 1121.11 91.884L1123.8 102.097C1123.98 102.802 1124.71 103.223 1125.41 103.038L1135.62 100.352C1136.33 100.167 1136.75 99.4447 1136.56 98.7397L1133.88 88.5269C1133.69 87.8219 1132.97 87.4006 1132.27 87.586Z" fill="white"/>
</g>
<g opacity="0.5">
<path d="M170.4 -12.9224L174.683 2.17027" stroke="white" stroke-width="5" stroke-linecap="round" stroke-linejoin="round"/>
<path d="M170.4 -12.9224L174.683 2.17027" stroke="white" stroke-width="5" stroke-miterlimit="10" stroke-linecap="round"/>
<path d="M151.072 2.57422L164.92 10.2984" stroke="white" stroke-width="5" stroke-linecap="round" stroke-linejoin="round"/>
<path d="M151.072 2.57422L164.92 10.2984" stroke="white" stroke-width="5" stroke-miterlimit="10" stroke-linecap="round"/>
<path d="M195.064 -10.0352L187.258 3.96281" stroke="white" stroke-width="5" stroke-linecap="round" stroke-linejoin="round"/>
<path d="M195.064 -10.0352L187.258 3.96281" stroke="white" stroke-width="5" stroke-miterlimit="10" stroke-linecap="round"/>
<path d="M150.97 32.9917L140.707 51.2246C136.905 58.0381 135.965 66.083 138.094 73.5895C140.223 81.096 145.247 87.4493 152.061 91.2516C158.874 95.0539 166.919 95.9938 174.426 93.8646C181.932 91.7354 188.286 86.7114 192.088 79.8979L202.289 61.6171" stroke="white" stroke-width="5" stroke-miterlimit="10" stroke-linecap="round"/>
<path d="M200.66 64.5249L209.315 49.0012C209.692 48.3267 209.933 47.5844 210.023 46.8167C210.113 46.0491 210.051 45.2712 209.84 44.5277C209.629 43.7841 209.273 43.0895 208.793 42.4836C208.314 41.8777 207.719 41.3723 207.044 40.9965C205.681 40.2363 204.072 40.0485 202.571 40.4745C201.07 40.9004 199.799 41.9053 199.039 43.2679L191.198 57.3343" stroke="white" stroke-width="5" stroke-miterlimit="10" stroke-linecap="round"/>
<path d="M191.198 57.3346L205.183 32.26C205.943 30.8973 206.131 29.2884 205.705 27.7873C205.279 26.2861 204.274 25.0156 202.911 24.2553C202.237 23.878 201.494 23.6374 200.727 23.5474C199.959 23.4573 199.181 23.5195 198.438 23.7305C197.694 23.9415 197 24.2971 196.394 24.7769C195.788 25.2567 195.282 25.8514 194.907 26.5267L180.915 51.5739" stroke="white" stroke-width="5" stroke-miterlimit="10" stroke-linecap="round"/>
<path d="M180.915 51.5736L197.725 21.4705C198.486 20.1078 198.673 18.4989 198.247 16.9977C197.821 15.4965 196.817 14.2261 195.454 13.4658C194.091 12.7055 192.482 12.5177 190.981 12.9437C189.48 13.3697 188.21 14.3745 187.449 15.7372L170.639 45.8403" stroke="white" stroke-width="5" stroke-miterlimit="10" stroke-linecap="round"/>
<path d="M170.639 45.8678L184.63 20.7864C185.389 19.4233 185.576 17.815 185.15 16.3144C184.724 14.8138 183.72 13.5433 182.359 12.7817C181.685 12.4044 180.942 12.1638 180.175 12.0737C179.407 11.9837 178.629 12.0459 177.885 12.2569C177.142 12.4679 176.447 12.8235 175.841 13.3033C175.235 13.7831 174.73 14.3777 174.354 15.0531L158.338 43.7537" stroke="white" stroke-width="5" stroke-miterlimit="10" stroke-linecap="round"/>
<path d="M151.414 56.1715L159.953 40.8668C160.58 39.7416 160.979 38.5039 161.128 37.2243C161.277 35.9447 161.172 34.6483 160.819 33.4093C160.466 32.1703 159.873 31.013 159.073 30.0034C158.273 28.9939 157.281 28.1519 156.156 27.5256C155.702 27.2725 155.166 27.2095 154.666 27.3506C154.166 27.4917 153.742 27.8252 153.487 28.2782L140.543 51.4987" stroke="white" stroke-width="5" stroke-miterlimit="10" stroke-linecap="round"/>
<path d="M182.051 90.6805C184.554 90.6232 187.039 90.2485 189.447 89.5653L209.575 83.8525" stroke="white" stroke-width="5" stroke-miterlimit="10" stroke-linecap="round"/>
<path d="M206.373 84.7626L223.477 79.905C224.221 79.6945 224.915 79.3394 225.521 78.8601C226.127 78.3809 226.633 77.7868 227.009 77.112C227.385 76.4371 227.625 75.6947 227.714 74.9272C227.803 74.1597 227.739 73.3822 227.527 72.6392C227.317 71.8958 226.962 71.2012 226.483 70.5952C226.003 69.9892 225.409 69.4836 224.734 69.1074C224.06 68.7313 223.317 68.4918 222.55 68.4029C221.782 68.3139 221.005 68.3771 220.262 68.589L204.772 72.9813" stroke="white" stroke-width="5" stroke-miterlimit="10" stroke-linecap="round"/>
<path d="M204.772 72.9814L232.392 65.1477C233.135 64.9364 233.83 64.5806 234.436 64.1007C235.042 63.6208 235.548 63.0261 235.924 62.3507C236.3 61.6753 236.54 60.9324 236.628 60.1644C236.717 59.3965 236.654 58.6185 236.442 57.875C236.232 57.1317 235.876 56.4371 235.397 55.8311C234.918 55.2251 234.324 54.7195 233.649 54.3433C232.974 53.9671 232.232 53.7277 231.464 53.6387C230.697 53.5497 229.919 53.613 229.176 53.8248" stroke="white" stroke-width="5" stroke-miterlimit="10" stroke-linecap="round"/>
<path d="M202.371 61.4325L234.745 52.2579C235.489 52.0473 236.183 51.6923 236.789 51.213C237.395 50.7337 237.901 50.1397 238.277 49.4648C238.653 48.79 238.893 48.0476 238.982 47.2801C239.071 46.5126 239.007 45.7351 238.796 44.9921C238.585 44.2486 238.23 43.5538 237.751 42.9475C237.272 42.3412 236.678 41.8353 236.003 41.4585C235.328 41.0818 234.586 40.8416 233.819 40.7518C233.051 40.662 232.273 40.7242 231.53 40.935L210.04 47.0377" stroke="white" stroke-width="5" stroke-miterlimit="10" stroke-linecap="round"/>
<path d="M225.94 42.5019C226.688 42.2964 227.388 41.945 227.999 41.468C228.611 40.9911 229.122 40.3979 229.504 39.7227C229.885 39.0474 230.129 38.3034 230.222 37.5334C230.315 36.7635 230.255 35.9827 230.045 35.2361C229.618 33.7355 228.613 32.4656 227.251 31.705C225.889 30.9444 224.281 30.7552 222.779 31.179L202.651 36.8918" stroke="white" stroke-width="5" stroke-miterlimit="10" stroke-linecap="round"/>
</g>
<g opacity="0.5">
<path d="M1474.01 76.6643C1480.22 109.757 1511.25 133.114 1544.55 128.086C1560.3 125.72 1574.54 117.39 1584.33 104.818C1594.12 92.2454 1598.7 76.3931 1597.13 60.5384C1597.05 59.8537 1596.83 59.1922 1596.49 58.5955C1596.15 57.9988 1595.68 57.4797 1595.13 57.0707C1594.57 56.6617 1593.94 56.3717 1593.27 56.2189C1592.6 56.0661 1591.9 56.0538 1591.22 56.1828L1515.85 70.3283C1514.55 70.5729 1513.2 70.2897 1512.1 69.5411C1511.01 68.7925 1510.26 67.6397 1510.01 66.3363L1503.87 33.6077C1503.42 31.2001 1502.5 28.9045 1501.17 26.8521C1499.83 24.7996 1498.1 23.0305 1496.08 21.6456C1494.06 20.2608 1491.79 19.2874 1489.39 18.781C1487 18.2747 1484.52 18.2452 1482.12 18.6944C1479.71 19.1453 1477.41 20.0669 1475.36 21.4066C1473.3 22.7462 1471.53 24.4775 1470.15 26.5015C1468.77 28.5255 1467.8 30.8024 1467.29 33.202C1466.79 35.6016 1466.77 38.0768 1467.22 40.4859L1474.01 76.6643Z" stroke="white" stroke-width="5" stroke-miterlimit="10"/>
<path d="M1484.07 35.9099C1483.24 36.065 1482.48 36.4615 1481.88 37.0494C1481.28 37.6373 1480.86 38.3902 1480.69 39.2128C1480.52 40.0353 1480.59 40.8907 1480.91 41.6708C1481.22 42.4508 1481.76 43.1204 1482.45 43.595C1483.14 44.0695 1483.96 44.3277 1484.8 44.3368C1485.64 44.3459 1486.47 44.1055 1487.17 43.6461C1487.88 43.1867 1488.43 42.5289 1488.76 41.7559C1489.09 40.9828 1489.18 40.1292 1489.03 39.3031C1488.82 38.1953 1488.18 37.2154 1487.25 36.5791C1486.32 35.9427 1485.17 35.702 1484.07 35.9099Z" fill="white"/>
<path d="M1469.38 51.975L1446.76 47.2972L1466.14 34.7458" stroke="white" stroke-width="5" stroke-linecap="round" stroke-linejoin="round"/>
<path d="M1535.18 67.3824L1541.88 103.119L1545.65 102.412C1555.13 100.632 1563.52 95.1585 1568.97 87.1946C1574.41 79.2306 1576.47 69.429 1574.69 59.946" stroke="white" stroke-width="5" stroke-linecap="round" stroke-linejoin="round"/>
</g>
<g opacity="0.5" clip-path="url(#clip2_1912_256)">
<path d="M121.423 150.109L112.782 140.365C111.137 138.506 108.9 137.271 106.45 136.87C103.999 136.469 101.485 136.926 99.3336 138.165" stroke="white" stroke-width="5" stroke-miterlimit="10"/>
<path d="M135.77 166.342L128.713 158.36" stroke="white" stroke-width="5" stroke-miterlimit="10"/>
<path d="M55.5712 137.533C53.0449 136.856 50.3587 137.118 48.012 138.272C45.6653 139.426 43.8176 141.392 42.8124 143.805L26.3107 183.5C25.5708 186.261 25.9587 189.204 27.3891 191.68C28.8196 194.156 31.1753 195.963 33.9381 196.703L173.16 234.007C175.923 234.748 178.866 234.361 181.343 232.932C183.82 231.502 185.627 229.148 186.367 226.387C188.463 218.564 187.365 210.23 183.314 203.215C179.264 196.2 172.592 191.08 164.766 188.98L162.421 188.352C156.281 186.707 150.762 183.292 146.553 178.531L143.312 174.867" stroke="white" stroke-width="5" stroke-miterlimit="10"/>
<path d="M28.4708 182.708L187.38 225.288" stroke="white" stroke-width="5" stroke-miterlimit="10"/>
<path d="M98.0639 139.783L56.699 135.637C54.6253 135.429 52.7761 136.941 52.5687 139.013L49.842 166.257C49.6346 168.329 51.1475 170.178 53.2212 170.386L94.5861 174.533C96.6598 174.741 98.509 173.229 98.7165 171.156L101.443 143.913C101.651 141.84 100.138 139.991 98.0639 139.783Z" stroke="white" stroke-width="5" stroke-miterlimit="10"/>
<path d="M130.067 156.899C132.552 155.291 133.261 151.973 131.652 149.489C130.042 147.005 126.723 146.295 124.238 147.903L116.104 153.168C113.62 154.777 112.91 158.094 114.52 160.579C116.13 163.063 119.449 163.772 121.934 162.164L130.067 156.899Z" stroke="white" stroke-width="5" stroke-miterlimit="10"/>
<path d="M145.107 173.375C147.592 171.767 148.301 168.449 146.692 165.965C145.082 163.481 141.763 162.771 139.278 164.38L131.144 169.645C128.66 171.253 127.95 174.571 129.56 177.055C131.17 179.539 134.489 180.249 136.974 178.64L145.107 173.375Z" stroke="white" stroke-width="5" stroke-miterlimit="10"/>
<path d="M67.8087 96.5322L57.8075 133.857" stroke="white" stroke-width="5" stroke-linecap="round" stroke-linejoin="round"/>
<path d="M106.493 106.898L97.93 138.854" stroke="white" stroke-width="5" stroke-linecap="round" stroke-linejoin="round"/>
<path d="M7.16732 192.684L-19.6631 195.588" stroke="white" stroke-width="5" stroke-linecap="round" stroke-linejoin="round"/>
<path d="M9.2817 178.904L-15.3882 168.019" stroke="white" stroke-width="5" stroke-linecap="round" stroke-linejoin="round"/>
<path d="M12.2051 205.683L-9.57266 221.612" stroke="white" stroke-width="5" stroke-linecap="round" stroke-linejoin="round"/>
<path d="M197.738 243.53L219.229 259.861" stroke="white" stroke-width="5" stroke-linecap="round" stroke-linejoin="round"/>
<path d="M186.713 252.062L197.154 276.939" stroke="white" stroke-width="5" stroke-linecap="round" stroke-linejoin="round"/>
<path d="M229.796 234.031L203.045 230.627" stroke="white" stroke-width="5" stroke-linecap="round" stroke-linejoin="round"/>
</g>
<path d="M1535.93 150.956L1525.52 149.199C1524.8 149.077 1524.12 149.562 1524 150.281L1522.24 160.693C1522.12 161.412 1522.6 162.093 1523.32 162.215L1533.73 163.972C1534.45 164.093 1535.13 163.608 1535.26 162.89L1537.01 152.477C1537.13 151.758 1536.65 151.077 1535.93 150.956Z" fill="white" fill-opacity="0.4"/>
<path d="M1533.23 167.273L1522.82 165.516C1522.1 165.395 1521.42 165.88 1521.29 166.598L1519.54 177.011C1519.42 177.73 1519.9 178.411 1520.62 178.533L1531.03 180.289C1531.75 180.411 1532.43 179.926 1532.55 179.207L1534.31 168.795C1534.43 168.076 1533.95 167.395 1533.23 167.273Z" fill="white" fill-opacity="0.4"/>
<path d="M1549.54 169.986L1539.13 168.229C1538.41 168.108 1537.73 168.592 1537.61 169.311L1535.85 179.724C1535.73 180.443 1536.22 181.124 1536.94 181.245L1547.35 183.002C1548.07 183.123 1548.75 182.639 1548.87 181.92L1550.63 171.507C1550.75 170.788 1550.26 170.107 1549.54 169.986Z" fill="white" fill-opacity="0.4"/>
<path d="M1530.52 183.58L1520.1 181.823C1519.39 181.701 1518.71 182.186 1518.58 182.905L1516.83 193.317C1516.71 194.036 1517.19 194.717 1517.91 194.839L1528.32 196.596C1529.04 196.717 1529.72 196.232 1529.84 195.514L1531.6 185.101C1531.72 184.382 1531.24 183.701 1530.52 183.58Z" fill="white" fill-opacity="0.4"/>
<path d="M1563.14 189.002L1552.73 187.245C1552.01 187.124 1551.33 187.609 1551.21 188.327L1549.45 198.74C1549.33 199.459 1549.81 200.14 1550.53 200.262L1560.94 202.018C1561.66 202.14 1562.34 201.655 1562.46 200.936L1564.22 190.524C1564.34 189.805 1563.86 189.124 1563.14 189.002Z" fill="white" fill-opacity="0.4"/>
<path d="M1495.18 194.482L1484.77 192.725C1484.05 192.604 1483.37 193.088 1483.25 193.807L1481.49 204.22C1481.37 204.939 1481.85 205.62 1482.57 205.741L1492.99 207.498C1493.7 207.619 1494.39 207.135 1494.51 206.416L1496.26 196.003C1496.38 195.284 1495.9 194.603 1495.18 194.482Z" fill="white" fill-opacity="0.4"/>
<path d="M1511.5 197.194L1501.08 195.437C1500.37 195.316 1499.68 195.801 1499.56 196.519L1497.81 206.932C1497.69 207.651 1498.17 208.332 1498.89 208.453L1509.3 210.21C1510.02 210.332 1510.7 209.847 1510.82 209.128L1512.58 198.716C1512.7 197.997 1512.22 197.316 1511.5 197.194Z" fill="white" fill-opacity="0.4"/>
<path d="M1527.81 199.896L1517.39 198.139C1516.67 198.017 1515.99 198.502 1515.87 199.221L1514.11 209.633C1513.99 210.352 1514.48 211.033 1515.2 211.155L1525.61 212.912C1526.33 213.033 1527.01 212.548 1527.13 211.83L1528.89 201.417C1529.01 200.698 1528.52 200.017 1527.81 199.896Z" fill="white" fill-opacity="0.4"/>
<path d="M1492.47 210.788L1482.06 209.031C1481.34 208.91 1480.66 209.394 1480.54 210.113L1478.78 220.526C1478.66 221.245 1479.14 221.926 1479.86 222.047L1490.27 223.804C1490.99 223.925 1491.67 223.441 1491.8 222.722L1493.55 212.309C1493.67 211.59 1493.19 210.909 1492.47 210.788Z" fill="white" fill-opacity="0.4"/>
<path d="M1508.79 213.5L1498.37 211.744C1497.66 211.622 1496.97 212.107 1496.85 212.826L1495.1 223.238C1494.97 223.957 1495.46 224.638 1496.18 224.76L1506.59 226.517C1507.31 226.638 1507.99 226.153 1508.11 225.435L1509.87 215.022C1509.99 214.303 1509.51 213.622 1508.79 213.5Z" fill="white" fill-opacity="0.4"/>
<path d="M1525.09 216.202L1514.68 214.445C1513.96 214.323 1513.28 214.808 1513.16 215.527L1511.4 225.94C1511.28 226.658 1511.77 227.339 1512.49 227.461L1522.9 229.218C1523.62 229.339 1524.3 228.855 1524.42 228.136L1526.18 217.723C1526.3 217.004 1525.81 216.323 1525.09 216.202Z" fill="white" fill-opacity="0.4"/>
<path d="M552.096 21.5468L541.422 20.6441C540.685 20.5818 540.037 21.1286 539.975 21.8655L539.072 32.5393C539.01 33.2762 539.556 33.9241 540.293 33.9864L550.967 34.8891C551.704 34.9514 552.352 34.4046 552.414 33.6677L553.317 22.9939C553.379 22.257 552.832 21.6091 552.096 21.5468Z" fill="white" fill-opacity="0.4"/>
<path d="M585.53 24.2831L574.856 23.3804C574.119 23.3181 573.471 23.8649 573.409 24.6018L572.506 35.2757C572.444 36.0125 572.99 36.6604 573.727 36.7227L584.401 37.6254C585.138 37.6878 585.786 37.1409 585.848 36.4041L586.751 25.7302C586.813 24.9933 586.266 24.3454 585.53 24.2831Z" fill="white" fill-opacity="0.4"/>
<path d="M532.628 53.6073L521.954 52.7046C521.217 52.6423 520.569 53.1892 520.507 53.926L519.604 64.5999C519.542 65.3368 520.089 65.9846 520.826 66.047L531.499 66.9497C532.236 67.012 532.884 66.4652 532.947 65.7283L533.849 55.0544C533.912 54.3175 533.365 53.6697 532.628 53.6073Z" fill="white" fill-opacity="0.4"/>
<path d="M599.495 59.0888L588.821 58.1861C588.084 58.1238 587.436 58.6706 587.374 59.4075L586.471 70.0813C586.409 70.8182 586.956 71.4661 587.693 71.5284L598.367 72.4311C599.104 72.4934 599.751 71.9466 599.814 71.2097L600.717 60.5359C600.779 59.799 600.232 59.1511 599.495 59.0888Z" fill="white" fill-opacity="0.4"/>
<path d="M547.977 71.6923L537.303 70.7896C536.566 70.7273 535.918 71.2741 535.856 72.011L534.953 82.6849C534.891 83.4217 535.438 84.0696 536.175 84.1319L546.849 85.0346C547.585 85.0969 548.233 84.5501 548.296 83.8132L549.198 73.1394C549.261 72.4025 548.714 71.7546 547.977 71.6923Z" fill="white" fill-opacity="0.4"/>
<path d="M564.689 73.0546L554.015 72.1519C553.279 72.0896 552.631 72.6364 552.568 73.3733L551.666 84.0472C551.603 84.784 552.15 85.4319 552.887 85.4942L563.561 86.3969C564.298 86.4593 564.946 85.9124 565.008 85.1755L565.911 74.5017C565.973 73.7648 565.426 73.1169 564.689 73.0546Z" fill="white" fill-opacity="0.4"/>
<path d="M581.411 74.4281L570.737 73.5254C570 73.4631 569.352 74.01 569.29 74.7468L568.387 85.4207C568.325 86.1576 568.872 86.8054 569.609 86.8678L580.283 87.7705C581.019 87.8328 581.667 87.2859 581.73 86.5491L582.632 75.8752C582.695 75.1383 582.148 74.4905 581.411 74.4281Z" fill="white" fill-opacity="0.4"/>
<g clip-path="url(#clip3_1912_256)">
<path d="M26.7634 -3.30106L15.4134 -6.37416C14.6298 -6.58632 13.8226 -6.1231 13.6105 -5.33955L10.5374 6.01048C10.3252 6.79404 10.7885 7.60122 11.572 7.81337L22.922 10.8865C23.7056 11.0986 24.5128 10.6354 24.7249 9.85185L27.798 -1.49817C28.0102 -2.28173 27.547 -3.08891 26.7634 -3.30106Z" fill="white" fill-opacity="0.4"/>
<path d="M44.5524 1.46945L33.2023 -1.60366C32.4188 -1.81581 31.6116 -1.3526 31.3994 -0.56904L28.3263 10.781C28.1142 11.5645 28.5774 12.3717 29.3609 12.5839L40.711 15.657C41.4945 15.8691 42.3017 15.4059 42.5139 14.6224L45.587 3.27234C45.7991 2.48878 45.3359 1.6816 44.5524 1.46945Z" fill="white" fill-opacity="0.4"/>
<path d="M22.0038 14.4909L10.6538 11.4178C9.87024 11.2057 9.06306 11.6689 8.85091 12.4524L5.77781 23.8025C5.56566 24.586 6.02887 25.3932 6.81242 25.6054L18.1625 28.6785C18.946 28.8906 19.7532 28.4274 19.9653 27.6438L23.0384 16.2938C23.2506 15.5103 22.7874 14.7031 22.0038 14.4909Z" fill="white" fill-opacity="0.4"/>
<path d="M39.7928 19.2614L28.4427 16.1883C27.6592 15.9762 26.852 16.4394 26.6398 17.223L23.5667 28.573C23.3546 29.3565 23.8178 30.1637 24.6014 30.3759L35.9514 33.449C36.7349 33.6611 37.5421 33.1979 37.7543 32.4144L40.8274 21.0643C41.0395 20.2808 40.5763 19.4736 39.7928 19.2614Z" fill="white" fill-opacity="0.4"/>
<path d="M75.3628 28.7883L64.0127 25.7152C63.2292 25.503 62.422 25.9663 62.2099 26.7498L59.1368 38.0998C58.9246 38.8834 59.3878 39.6906 60.1714 39.9027L71.5214 42.9758C72.305 43.188 73.1121 42.7248 73.3243 41.9412L76.3974 30.5912C76.6095 29.8076 76.1463 29.0004 75.3628 28.7883Z" fill="white" fill-opacity="0.4"/>
<path d="M93.141 33.5559L81.7909 30.4828C81.0074 30.2706 80.2002 30.7338 79.9881 31.5174L76.915 42.8674C76.7028 43.651 77.166 44.4581 77.9496 44.6703L89.2996 47.7434C90.0832 47.9556 90.8903 47.4923 91.1025 46.7088L94.1756 35.3588C94.3877 34.5752 93.9245 33.768 93.141 33.5559Z" fill="white" fill-opacity="0.4"/>
<path d="M35.0253 37.0393L23.6753 33.9662C22.8918 33.754 22.0846 34.2172 21.8724 35.0008L18.7993 46.3508C18.5872 47.1344 19.0504 47.9416 19.8339 48.1537L31.184 51.2268C31.9675 51.439 32.7747 50.9757 32.9869 50.1922L36.06 38.8422C36.2721 38.0586 35.8089 37.2514 35.0253 37.0393Z" fill="white" fill-opacity="0.4"/>
<path d="M70.5953 46.5666L59.2453 43.4935C58.4618 43.2814 57.6546 43.7446 57.4424 44.5281L54.3693 55.8782C54.1572 56.6617 54.6204 57.4689 55.4039 57.681L66.754 60.7541C67.5375 60.9663 68.3447 60.5031 68.5569 59.7195L71.63 48.3695C71.8421 47.5859 71.3789 46.7788 70.5953 46.5666Z" fill="white" fill-opacity="0.4"/>
<path d="M30.255 54.8283L18.905 51.7552C18.1214 51.5431 17.3143 52.0063 17.1021 52.7898L14.029 64.1399C13.8168 64.9234 14.2801 65.7306 15.0636 65.9428L26.4136 69.0159C27.1972 69.228 28.0044 68.7648 28.2165 67.9813L31.2896 56.6312C31.5018 55.8477 31.0386 55.0405 30.255 54.8283Z" fill="white" fill-opacity="0.4"/>
<path d="M48.0361 59.5852L36.6861 56.5121C35.9025 56.2999 35.0953 56.7631 34.8832 57.5467L31.8101 68.8967C31.5979 69.6803 32.0611 70.4875 32.8447 70.6996L44.1947 73.7727C44.9783 73.9849 45.7855 73.5217 45.9976 72.7381L49.0707 61.3881C49.2829 60.6045 48.8196 59.7973 48.0361 59.5852Z" fill="white" fill-opacity="0.4"/>
<path d="M65.825 64.3552L54.475 61.2821C53.6914 61.0699 52.8843 61.5331 52.6721 62.3167L49.599 73.6667C49.3869 74.4503 49.8501 75.2575 50.6336 75.4696L61.9836 78.5427C62.7672 78.7549 63.5744 78.2917 63.7865 77.5081L66.8596 66.1581C67.0718 65.3745 66.6086 64.5673 65.825 64.3552Z" fill="white" fill-opacity="0.4"/>
</g>
<g opacity="0.5">
<path d="M1018.7 197.16L1024.37 208.7L1037.09 210.57L1027.86 219.52L1030.01 232.2L1018.65 226.19L1007.26 232.15L1009.46 219.49L1000.27 210.5L1012.99 208.67L1018.7 197.16Z" stroke="white" stroke-width="5" stroke-linecap="round" stroke-linejoin="round"/>
</g>
<g opacity="0.5">
<path d="M1018.73 48.2L1018.78 39.73" stroke="white" stroke-width="5" stroke-linecap="round" stroke-linejoin="round"/>
<path d="M1018.62 65.1499L1018.57 73.6299" stroke="white" stroke-width="5" stroke-linecap="round" stroke-linejoin="round"/>
<path d="M1026.04 52.49L1033.41 48.29" stroke="white" stroke-width="5" stroke-linecap="round" stroke-linejoin="round"/>
<path d="M1025.99 60.96L1033.3 65.24" stroke="white" stroke-width="5" stroke-linecap="round" stroke-linejoin="round"/>
<path d="M1011.37 52.3999L1004.05 48.1099" stroke="white" stroke-width="5" stroke-linecap="round" stroke-linejoin="round"/>
<path d="M1011.31 60.8701L1003.95 65.0601" stroke="white" stroke-width="5" stroke-linecap="round" stroke-linejoin="round"/>
</g>
<g opacity="0.5">
<path d="M552.269 202.466L555.303 203.351C556.914 203.804 558.639 203.6 560.101 202.784C561.562 201.969 562.641 200.608 563.102 198.999L566.308 187.673C566.768 186.065 567.847 184.705 569.309 183.891C570.77 183.077 572.495 182.876 574.104 183.331C574.904 183.552 575.653 183.928 576.307 184.439C576.961 184.95 577.508 185.585 577.915 186.308C578.323 187.031 578.584 187.827 578.683 188.651C578.783 189.475 578.718 190.311 578.493 191.11L568.392 226.705C568.165 227.503 568.097 228.337 568.193 229.161C568.289 229.985 568.547 230.782 568.951 231.507C569.355 232.231 569.898 232.869 570.549 233.383C571.2 233.897 571.946 234.278 572.744 234.504C574.353 234.959 576.078 234.758 577.539 233.944C579.001 233.13 580.08 231.77 580.54 230.161L594.094 182.396C594.552 180.785 595.631 179.423 597.093 178.607C598.555 177.791 600.282 177.588 601.893 178.044C603.504 178.502 604.866 179.581 605.682 181.043C606.498 182.505 606.701 184.232 606.245 185.843L596.143 221.438C595.917 222.235 595.849 223.069 595.944 223.892C596.04 224.716 596.297 225.512 596.7 226.236C597.103 226.96 597.645 227.597 598.295 228.112C598.944 228.626 599.689 229.008 600.486 229.234C602.086 229.676 603.795 229.469 605.244 228.659C606.693 227.849 607.764 226.501 608.225 224.907L611.501 213.665C611.727 212.866 612.108 212.12 612.622 211.47C613.137 210.819 613.774 210.276 614.499 209.871C615.223 209.467 616.02 209.21 616.844 209.114C617.668 209.018 618.502 209.086 619.3 209.313L622.334 210.197" stroke="white" stroke-width="5" stroke-linecap="round" stroke-linejoin="round"/>
</g>
</g>
<defs>
<clipPath id="clip0_1912_256">
<rect width="1609" height="256" rx="10" fill="white"/>
</clipPath>
<clipPath id="clip1_1912_256">
<rect width="294.003" height="294.003" fill="white" transform="translate(184 60.1289) rotate(-20.3268)"/>
</clipPath>
<clipPath id="clip2_1912_256">
<rect width="272.341" height="196.559" fill="white" transform="translate(5.87378 51.9946) rotate(15)"/>
</clipPath>
<clipPath id="clip3_1912_256">
<rect width="126.261" height="126.261" fill="white" transform="translate(-3.32117 -31) rotate(15)"/>
</clipPath>
</defs>
</svg>
