<svg width="103" height="81" viewBox="0 0 103 81" fill="none" xmlns="http://www.w3.org/2000/svg">
<path d="M90.7643 2.08984H8.50728C4.96009 2.08984 2.08984 4.98252 2.08984 8.55069V72.1623C2.08984 75.7305 4.9655 78.6232 8.50728 78.6232H11.3071C12.439 76.8473 14.7893 76.3352 16.5548 77.4737C17.0151 77.7679 17.3996 78.1601 17.6975 78.6232H28.8752C30.0071 76.8473 32.3574 76.3352 34.1229 77.4737C34.5832 77.7679 34.9677 78.1601 35.2656 78.6232H46.4433C47.5751 76.8473 49.9255 76.3352 51.691 77.4737C52.1513 77.7679 52.5358 78.1601 52.8337 78.6232H64.0168C65.1487 76.8473 67.499 76.3352 69.2645 77.4737C69.7248 77.7679 70.1147 78.1601 70.4072 78.6232H81.5849C82.7167 76.8473 85.0671 76.3352 86.8326 77.4737C87.2929 77.7679 87.6828 78.1601 87.9752 78.6232H90.7751C94.3223 78.6232 97.1979 75.7305 97.1979 72.1678V8.55614C97.1979 4.98796 94.3223 2.10074 90.7805 2.10074L90.7643 2.08984Z" stroke="black" stroke-width="4.18" stroke-linecap="round" stroke-linejoin="round"/>
<path d="M88.5708 66.5186C88.5708 68.6323 86.8649 70.3428 84.7636 70.3428C82.6624 70.3428 80.9619 68.6269 80.9619 66.5132C80.9619 64.3995 82.6678 62.689 84.7636 62.689C86.8595 62.689 88.5654 64.3995 88.5654 66.5132L88.5708 66.5186Z" stroke="black" stroke-width="2.51" stroke-linecap="round" stroke-linejoin="round"/>
<path d="M71.0083 66.5186C71.0083 68.6323 69.3024 70.3428 67.2011 70.3428C65.0999 70.3428 63.3994 68.6269 63.3994 66.5132C63.3994 64.3995 65.1053 62.689 67.2066 62.689C69.3078 62.689 71.0083 64.405 71.0083 66.5132V66.5186Z" stroke="black" stroke-width="2.51" stroke-linecap="round" stroke-linejoin="round"/>
<path d="M53.4399 66.5186C53.4399 68.6323 51.734 70.3428 49.6328 70.3428C47.5316 70.3428 45.8311 68.6269 45.8311 66.5132C45.8311 64.3995 47.537 62.689 49.6328 62.689C51.734 62.689 53.4345 64.3995 53.4345 66.5132L53.4399 66.5186Z" stroke="black" stroke-width="2.51" stroke-linecap="round" stroke-linejoin="round"/>
<path d="M35.8716 66.5186C35.8716 68.6323 34.1657 70.3428 32.0644 70.3428C29.9632 70.3428 28.2627 68.6269 28.2627 66.5132C28.2627 64.3995 29.9686 62.689 32.0644 62.689C34.1657 62.689 35.8661 64.3995 35.8661 66.5132L35.8716 66.5186Z" stroke="black" stroke-width="2.51" stroke-linecap="round" stroke-linejoin="round"/>
<path d="M18.3032 66.5186C18.3032 68.6323 16.5973 70.3428 14.4961 70.3428C12.3948 70.3428 10.6943 68.6269 10.6943 66.5132C10.6943 64.3995 12.4002 62.689 14.4961 62.689C16.5919 62.689 18.2978 64.3995 18.2978 66.5132L18.3032 66.5186Z" stroke="black" stroke-width="2.51" stroke-linecap="round" stroke-linejoin="round"/>
<path d="M89.3348 46.0954H80.2042C79.576 46.0954 79.0669 45.5833 79.0615 44.9459V35.7613C79.0615 35.1293 79.576 34.6173 80.2042 34.6118H89.3348C89.9631 34.6118 90.4721 35.1239 90.4775 35.7613V44.9459C90.4775 45.5778 89.9631 46.0899 89.3348 46.0954Z" fill="black"/>
<path d="M80.2042 34.6177H89.3348C89.9631 34.6177 90.4775 35.1298 90.4775 35.7671V44.9518C90.4775 45.5837 89.9685 46.1012 89.3348 46.1012H80.2042C79.576 46.1012 79.0615 45.5891 79.0615 44.9518V35.7671C79.0615 35.1352 79.5706 34.6177 80.2042 34.6177Z" stroke="black" stroke-width="1.25" stroke-linecap="round" stroke-linejoin="round"/>
<path d="M87.2389 40.3538C87.2389 41.7266 86.1341 42.8434 84.764 42.8434C83.3993 42.8434 82.2891 41.732 82.2891 40.3538C82.2891 38.981 83.3938 37.8643 84.764 37.8643C86.1287 37.8643 87.2389 38.9756 87.2389 40.3538Z" fill="white"/>
<path d="M87.2389 40.3538C87.2389 41.7266 86.1341 42.8434 84.764 42.8434C83.3993 42.8434 82.2891 41.732 82.2891 40.3538C82.2891 38.981 83.3938 37.8643 84.764 37.8643C86.1287 37.8643 87.2389 38.9756 87.2389 40.3538Z" stroke="white" stroke-width="2.09" stroke-miterlimit="10"/>
<path d="M19.0673 46.0954H9.93663C9.30842 46.0954 8.79936 45.5833 8.79395 44.9459V35.7613C8.79395 35.1293 9.30842 34.6173 9.93663 34.6118H19.0673C19.6955 34.6118 20.2045 35.1293 20.21 35.7613V44.9459C20.21 45.5778 19.7009 46.0899 19.0673 46.0954Z" fill="black"/>
<path d="M9.93663 34.6177H19.0673C19.6955 34.6177 20.21 35.1298 20.21 35.7671V44.9518C20.21 45.5837 19.7009 46.1012 19.0673 46.1012H9.93663C9.30842 46.1012 8.79395 45.5891 8.79395 44.9518V35.7671C8.79395 35.1352 9.30301 34.6177 9.93663 34.6177Z" stroke="black" stroke-width="1.25" stroke-linecap="round" stroke-linejoin="round"/>
<path d="M16.9772 40.3538C16.9772 41.7266 15.8724 42.8434 14.5023 42.8434C13.1321 42.8434 12.0273 41.732 12.0273 40.3538C12.0273 38.9756 13.1321 37.8643 14.5023 37.8643C15.8724 37.8643 16.9772 38.9756 16.9772 40.3538Z" fill="white"/>
<path d="M16.9772 40.3538C16.9772 41.7266 15.8724 42.8434 14.5023 42.8434C13.1321 42.8434 12.0273 41.732 12.0273 40.3538C12.0273 38.9756 13.1321 37.8643 14.5023 37.8643C15.8724 37.8643 16.9772 38.9756 16.9772 40.3538Z" stroke="white" stroke-width="2.09" stroke-miterlimit="10"/>
<path d="M28.1873 2.53076L2.58789 28.1127V7.50442C2.58789 4.75883 4.80285 2.53076 7.53229 2.53076H28.1873Z" fill="black"/>
<path d="M40.3558 2.5802L27.418 15.4365L27.4667 2.53662L40.3558 2.5802Z" fill="black"/>
<path d="M45.9829 2.55263L39.5654 9.01348L39.5925 2.52539L45.9883 2.54718L45.9829 2.55263Z" fill="black"/>
<path d="M53.0502 15.1312C53.5592 15.1203 53.9654 14.7008 53.9546 14.1888C53.9437 13.6767 53.5268 13.2681 53.0177 13.279C52.514 13.2899 52.1133 13.6985 52.1133 14.2051C52.1133 14.7226 52.5357 15.1367 53.0502 15.1312Z" fill="black"/>
<path d="M46.1351 13.2574C45.626 13.2683 45.2198 13.6877 45.2307 14.1998C45.2415 14.7119 45.6585 15.1205 46.1676 15.1096C46.6712 15.0987 47.072 14.6901 47.072 14.1835C47.0666 13.6659 46.6441 13.2519 46.1351 13.2574Z" fill="black"/>
<path d="M46.1462 11.4324C44.6352 11.4052 43.3951 12.6146 43.368 14.1345C43.3409 15.6543 44.5432 16.9018 46.0541 16.9291C46.0812 16.9291 46.1029 16.9291 46.1299 16.9291L53.1268 16.9563C54.6378 16.9999 55.8942 15.8014 55.9321 14.287C55.97 12.7726 54.784 11.5033 53.2785 11.4651C53.2352 11.4651 53.1918 11.4651 53.1485 11.4651L46.1516 11.4379L46.1462 11.4324ZM53.116 18.7867L46.1191 18.7595C43.6063 18.8085 41.5267 16.8038 41.4726 14.2761C41.4238 11.7484 43.4167 9.65653 45.9296 9.60205C46.0054 9.60205 46.0758 9.60205 46.1516 9.60205L53.1485 9.62929C55.6613 9.56937 57.7463 11.5741 57.8059 14.1018C57.8655 16.6295 55.8725 18.7268 53.3597 18.7867C53.2785 18.7867 53.1972 18.7867 53.1214 18.7867" fill="black"/>
<path d="M37.166 26.8543C37.166 27.3827 36.7382 27.8131 36.2129 27.8131C35.6876 27.8131 35.2598 27.3827 35.2598 26.8543C35.2598 26.3259 35.6876 25.8955 36.2129 25.8955C36.7382 25.8955 37.166 26.3259 37.166 26.8543Z" fill="black"/>
<path d="M43.876 26.8543C43.876 27.3827 43.4482 27.8131 42.9229 27.8131C42.3976 27.8131 41.9697 27.3827 41.9697 26.8543C41.9697 26.3259 42.3976 25.8955 42.9229 25.8955C43.4482 25.8955 43.876 26.3259 43.876 26.8543Z" fill="black"/>
<path d="M50.586 26.8543C50.586 27.3827 50.1581 27.8131 49.6328 27.8131C49.1075 27.8131 48.6797 27.3827 48.6797 26.8543C48.6797 26.3259 49.1075 25.8955 49.6328 25.8955C50.1581 25.8955 50.586 26.3259 50.586 26.8543Z" fill="black"/>
<path d="M57.2959 26.8543C57.2959 27.3827 56.8681 27.8131 56.3428 27.8131C55.8175 27.8131 55.3896 27.3827 55.3896 26.8543C55.3896 26.3259 55.8175 25.8955 56.3428 25.8955C56.8681 25.8955 57.2959 26.3259 57.2959 26.8543Z" fill="black"/>
<path d="M64.0059 26.8543C64.0059 27.3827 63.5781 27.8131 63.0528 27.8131C62.5274 27.8131 62.0996 27.3827 62.0996 26.8543C62.0996 26.3259 62.5274 25.8955 63.0528 25.8955C63.5781 25.8955 64.0059 26.3259 64.0059 26.8543Z" fill="black"/>
<path d="M37.166 33.6043C37.166 34.1327 36.7382 34.5631 36.2129 34.5631C35.6876 34.5631 35.2598 34.1327 35.2598 33.6043C35.2598 33.0759 35.6876 32.6455 36.2129 32.6455C36.7382 32.6455 37.166 33.0759 37.166 33.6043Z" fill="black"/>
<path d="M43.876 33.6043C43.876 34.1327 43.4482 34.5631 42.9229 34.5631C42.3976 34.5631 41.9697 34.1327 41.9697 33.6043C41.9697 33.0759 42.3976 32.6455 42.9229 32.6455C43.4482 32.6455 43.876 33.0759 43.876 33.6043Z" fill="black"/>
<path d="M50.586 33.6043C50.586 34.1327 50.1581 34.5631 49.6328 34.5631C49.1075 34.5631 48.6797 34.1327 48.6797 33.6043C48.6797 33.0759 49.1075 32.6455 49.6328 32.6455C50.1581 32.6455 50.586 33.0759 50.586 33.6043Z" fill="black"/>
<path d="M57.2959 33.6043C57.2959 34.1327 56.8681 34.5631 56.3428 34.5631C55.8175 34.5631 55.3896 34.1327 55.3896 33.6043C55.3896 33.0759 55.8175 32.6455 56.3428 32.6455C56.8681 32.6455 57.2959 33.0759 57.2959 33.6043Z" fill="black"/>
<path d="M64.0059 33.6043C64.0059 34.1327 63.5781 34.5631 63.0528 34.5631C62.5274 34.5631 62.0996 34.1327 62.0996 33.6043C62.0996 33.0759 62.5274 32.6455 63.0528 32.6455C63.5781 32.6455 64.0059 33.0759 64.0059 33.6043Z" fill="black"/>
<path d="M37.166 40.3538C37.166 40.8822 36.7382 41.3126 36.2129 41.3126C35.6876 41.3126 35.2598 40.8822 35.2598 40.3538C35.2598 39.8254 35.6876 39.395 36.2129 39.395C36.7382 39.395 37.166 39.8254 37.166 40.3538Z" fill="black"/>
<path d="M43.876 40.3538C43.876 40.8822 43.4482 41.3126 42.9229 41.3126C42.3976 41.3126 41.9697 40.8822 41.9697 40.3538C41.9697 39.8254 42.3976 39.395 42.9229 39.395C43.4482 39.395 43.876 39.8254 43.876 40.3538Z" fill="black"/>
<path d="M50.586 40.3538C50.586 40.8822 50.1581 41.3126 49.6328 41.3126C49.1075 41.3126 48.6797 40.8822 48.6797 40.3538C48.6797 39.8254 49.1075 39.395 49.6328 39.395C50.1581 39.395 50.586 39.8254 50.586 40.3538Z" fill="black"/>
<path d="M57.2959 40.3538C57.2959 40.8822 56.8681 41.3126 56.3428 41.3126C55.8175 41.3126 55.3896 40.8822 55.3896 40.3538C55.3896 39.8254 55.8175 39.395 56.3428 39.395C56.8681 39.395 57.2959 39.8254 57.2959 40.3538Z" fill="black"/>
<path d="M64.0059 40.3538C64.0059 40.8822 63.5781 41.3126 63.0528 41.3126C62.5274 41.3126 62.0996 40.8822 62.0996 40.3538C62.0996 39.8254 62.5274 39.395 63.0528 39.395C63.5781 39.395 64.0059 39.8254 64.0059 40.3538Z" fill="black"/>
<path d="M37.166 47.1033C37.166 47.6317 36.7382 48.0621 36.2129 48.0621C35.6876 48.0621 35.2598 47.6317 35.2598 47.1033C35.2598 46.5749 35.6876 46.1445 36.2129 46.1445C36.7382 46.1445 37.166 46.5749 37.166 47.1033Z" fill="black"/>
<path d="M43.876 47.1033C43.876 47.6317 43.4482 48.0621 42.9229 48.0621C42.3976 48.0621 41.9697 47.6317 41.9697 47.1033C41.9697 46.5749 42.3976 46.1445 42.9229 46.1445C43.4482 46.1445 43.876 46.5749 43.876 47.1033Z" fill="black"/>
<path d="M50.586 47.1033C50.586 47.6317 50.1581 48.0621 49.6328 48.0621C49.1075 48.0621 48.6797 47.6317 48.6797 47.1033C48.6797 46.5749 49.1075 46.1445 49.6328 46.1445C50.1581 46.1445 50.586 46.5749 50.586 47.1033Z" fill="black"/>
<path d="M57.2959 47.1033C57.2959 47.6317 56.8681 48.0621 56.3428 48.0621C55.8175 48.0621 55.3896 47.6317 55.3896 47.1033C55.3896 46.5749 55.8175 46.1445 56.3428 46.1445C56.8681 46.1445 57.2959 46.5749 57.2959 47.1033Z" fill="black"/>
<path d="M64.0059 47.1033C64.0059 47.6317 63.5781 48.0621 63.0528 48.0621C62.5274 48.0621 62.0996 47.6317 62.0996 47.1033C62.0996 46.5749 62.5274 46.1445 63.0528 46.1445C63.5781 46.1445 64.0059 46.5749 64.0059 47.1033Z" fill="black"/>
<path d="M37.166 53.8528C37.166 54.3812 36.7382 54.8116 36.2129 54.8116C35.6876 54.8116 35.2598 54.3812 35.2598 53.8528C35.2598 53.3244 35.6876 52.894 36.2129 52.894C36.7382 52.894 37.166 53.3244 37.166 53.8528Z" fill="black"/>
<path d="M43.876 53.8528C43.876 54.3812 43.4482 54.8116 42.9229 54.8116C42.3976 54.8116 41.9697 54.3812 41.9697 53.8528C41.9697 53.3244 42.3976 52.894 42.9229 52.894C43.4482 52.894 43.876 53.3244 43.876 53.8528Z" fill="black"/>
<path d="M50.586 53.8528C50.586 54.3812 50.1581 54.8116 49.6328 54.8116C49.1075 54.8116 48.6797 54.3812 48.6797 53.8528C48.6797 53.3244 49.1075 52.894 49.6328 52.894C50.1581 52.894 50.586 53.3244 50.586 53.8528Z" fill="black"/>
<path d="M57.2959 53.8528C57.2959 54.3812 56.8681 54.8116 56.3428 54.8061C55.8175 54.8061 55.3896 54.3758 55.3896 53.8474C55.3896 53.319 55.8175 52.894 56.3428 52.894C56.8681 52.894 57.2959 53.3244 57.2959 53.8528Z" fill="black"/>
<path d="M64.0059 53.8528C64.0059 54.3812 63.5781 54.8116 63.0528 54.8061C62.5274 54.8061 62.0996 54.3758 62.0996 53.8474C62.0996 53.319 62.5274 52.894 63.0528 52.894C63.5781 52.894 64.0059 53.3244 64.0059 53.8528Z" fill="black"/>
<circle cx="84.6436" cy="39.6567" r="15" stroke="#3276C3" stroke-width="5"/>
</svg>
