<svg width="103" height="217" viewBox="0 0 103 217" fill="none" xmlns="http://www.w3.org/2000/svg">
<path d="M72.9388 214.8V202.967M23.9353 214.8V202.967M72.9388 124.467V117.997C77.9769 114.242 82.0792 109.361 84.922 103.739C87.7649 98.1164 89.2707 91.9065 89.3207 85.5987L89.7383 36.2322C89.7471 35.1538 89.5446 34.0842 89.1425 33.0845C88.7404 32.0849 88.1465 31.1747 87.3947 30.4059C86.6429 29.6371 85.7479 29.0249 84.7609 28.6041C83.7739 28.1833 82.7142 27.9623 81.6423 27.9535C79.4832 27.9331 77.4042 28.7752 75.8615 30.295C74.3188 31.8148 73.4384 33.8882 73.4133 36.0603L73.2235 58.5379L73.5557 18.4335C73.5657 17.3551 73.3645 16.2853 72.9635 15.2851C72.5625 14.2849 71.9697 13.374 71.2188 12.6044C70.4678 11.8347 69.5736 11.2214 68.5871 10.7995C67.6005 10.3776 66.5411 10.1553 65.4691 10.1453C63.3034 10.1275 61.2192 10.9753 59.6744 12.5025C58.1297 14.0298 57.2507 16.1115 57.2307 18.2903L56.8985 58.3946L57.3066 10.279C57.3154 9.20055 57.1129 8.13097 56.7108 7.13129C56.3087 6.13161 55.7147 5.22141 54.9629 4.45265C54.2111 3.6839 53.3162 3.07165 52.3292 2.65087C51.3422 2.23009 50.2825 2.00902 49.2106 2.00027C48.1386 1.99146 47.0755 2.19515 46.0818 2.59971C45.0881 3.00427 44.1834 3.60178 43.4193 4.35812C42.6551 5.11446 42.0465 6.01482 41.6283 7.00779C41.21 8.00075 40.9903 9.06687 40.9816 10.1453L40.602 58.2418L40.9436 18.1375C40.9537 17.0596 40.7524 15.9902 40.3513 14.9906C39.9502 13.9909 39.3572 13.0807 38.6061 12.3118C37.8551 11.5429 36.9608 10.9305 35.9743 10.5096C34.9878 10.0887 33.9285 9.86755 32.8571 9.85882C30.6913 9.84101 28.6071 10.6889 27.0624 12.2161C25.5176 13.7433 24.6387 15.825 24.6186 18.0038L24.2295 63.8374L24.0586 81.3687L24.2674 59.2158C24.2851 55.5884 22.8704 52.1024 20.3342 49.5241C17.798 46.9457 14.3479 45.486 10.7424 45.4657C10.3846 45.4632 10.0299 45.5316 9.69848 45.667C9.36703 45.8024 9.06534 46.0022 8.81062 46.2549C8.55591 46.5076 8.35317 46.8083 8.21398 47.1398C8.07479 47.4714 8.00186 47.8272 7.99938 48.1871L7.68617 84.854C7.62972 91.2516 9.0713 97.5728 11.8942 103.306C14.7172 109.039 18.8421 114.023 23.9353 117.854V124.467" stroke="black" stroke-width="4" stroke-linecap="round" stroke-linejoin="round"/>
<path d="M90.7643 125.4H8.50728C4.96009 125.4 2.08984 128.293 2.08984 131.861V195.472C2.08984 199.041 4.9655 201.933 8.50728 201.933H11.3071C12.439 200.157 14.7893 199.645 16.5548 200.784C17.0151 201.078 17.3996 201.47 17.6975 201.933H28.8752C30.0071 200.157 32.3574 199.645 34.1229 200.784C34.5832 201.078 34.9677 201.47 35.2656 201.933H46.4433C47.5751 200.157 49.9255 199.645 51.691 200.784C52.1513 201.078 52.5358 201.47 52.8337 201.933H64.0168C65.1487 200.157 67.499 199.645 69.2645 200.784C69.7248 201.078 70.1147 201.47 70.4072 201.933H81.5849C82.7167 200.157 85.0671 199.645 86.8326 200.784C87.2929 201.078 87.6828 201.47 87.9752 201.933H90.7751C94.3223 201.933 97.1979 199.041 97.1979 195.478V131.866C97.1979 128.298 94.3223 125.411 90.7805 125.411L90.7643 125.4Z" stroke="black" stroke-width="4.18" stroke-linecap="round" stroke-linejoin="round"/>
<path d="M88.5708 189.829C88.5708 191.942 86.8649 193.653 84.7636 193.653C82.6624 193.653 80.9619 191.937 80.9619 189.823C80.9619 187.71 82.6678 185.999 84.7636 185.999C86.8595 185.999 88.5654 187.71 88.5654 189.823L88.5708 189.829Z" stroke="black" stroke-width="2.51" stroke-linecap="round" stroke-linejoin="round"/>
<path d="M71.0083 189.829C71.0083 191.942 69.3024 193.653 67.2011 193.653C65.0999 193.653 63.3994 191.937 63.3994 189.823C63.3994 187.71 65.1053 185.999 67.2066 185.999C69.3078 185.999 71.0083 187.715 71.0083 189.823V189.829Z" stroke="black" stroke-width="2.51" stroke-linecap="round" stroke-linejoin="round"/>
<path d="M53.4399 189.829C53.4399 191.942 51.734 193.653 49.6328 193.653C47.5316 193.653 45.8311 191.937 45.8311 189.823C45.8311 187.71 47.537 185.999 49.6328 185.999C51.734 185.999 53.4345 187.71 53.4345 189.823L53.4399 189.829Z" stroke="black" stroke-width="2.51" stroke-linecap="round" stroke-linejoin="round"/>
<path d="M35.8716 189.829C35.8716 191.942 34.1657 193.653 32.0644 193.653C29.9632 193.653 28.2627 191.937 28.2627 189.823C28.2627 187.71 29.9686 185.999 32.0644 185.999C34.1657 185.999 35.8661 187.71 35.8661 189.823L35.8716 189.829Z" stroke="black" stroke-width="2.51" stroke-linecap="round" stroke-linejoin="round"/>
<path d="M18.3032 189.829C18.3032 191.942 16.5973 193.653 14.4961 193.653C12.3948 193.653 10.6943 191.937 10.6943 189.823C10.6943 187.71 12.4002 185.999 14.4961 185.999C16.5919 185.999 18.2978 187.71 18.2978 189.823L18.3032 189.829Z" stroke="black" stroke-width="2.51" stroke-linecap="round" stroke-linejoin="round"/>
<path d="M89.3348 169.405H80.2042C79.576 169.405 79.0669 168.893 79.0615 168.256V159.071C79.0615 158.439 79.576 157.927 80.2042 157.922H89.3348C89.9631 157.922 90.4721 158.434 90.4775 159.071V168.256C90.4775 168.888 89.9631 169.4 89.3348 169.405Z" fill="black"/>
<path d="M80.2042 157.928H89.3348C89.9631 157.928 90.4775 158.44 90.4775 159.077V168.262C90.4775 168.894 89.9685 169.411 89.3348 169.411H80.2042C79.576 169.411 79.0615 168.899 79.0615 168.262V159.077C79.0615 158.445 79.5706 157.928 80.2042 157.928Z" stroke="black" stroke-width="1.25" stroke-linecap="round" stroke-linejoin="round"/>
<path d="M87.2389 163.664C87.2389 165.037 86.1341 166.153 84.764 166.153C83.3993 166.153 82.2891 165.042 82.2891 163.664C82.2891 162.291 83.3938 161.174 84.764 161.174C86.1287 161.174 87.2389 162.286 87.2389 163.664Z" fill="white"/>
<path d="M87.2389 163.664C87.2389 165.037 86.1341 166.153 84.764 166.153C83.3993 166.153 82.2891 165.042 82.2891 163.664C82.2891 162.291 83.3938 161.174 84.764 161.174C86.1287 161.174 87.2389 162.286 87.2389 163.664Z" stroke="white" stroke-width="2.09" stroke-miterlimit="10"/>
<path d="M19.0673 169.405H9.93663C9.30842 169.405 8.79936 168.893 8.79395 168.256V159.071C8.79395 158.439 9.30842 157.927 9.93663 157.922H19.0673C19.6955 157.922 20.2045 158.439 20.21 159.071V168.256C20.21 168.888 19.7009 169.4 19.0673 169.405Z" fill="black"/>
<path d="M9.93663 157.928H19.0673C19.6955 157.928 20.21 158.44 20.21 159.077V168.262C20.21 168.894 19.7009 169.411 19.0673 169.411H9.93663C9.30842 169.411 8.79395 168.899 8.79395 168.262V159.077C8.79395 158.445 9.30301 157.928 9.93663 157.928Z" stroke="black" stroke-width="1.25" stroke-linecap="round" stroke-linejoin="round"/>
<path d="M16.9772 163.664C16.9772 165.037 15.8724 166.153 14.5023 166.153C13.1321 166.153 12.0273 165.042 12.0273 163.664C12.0273 162.286 13.1321 161.174 14.5023 161.174C15.8724 161.174 16.9772 162.286 16.9772 163.664Z" fill="white"/>
<path d="M16.9772 163.664C16.9772 165.037 15.8724 166.153 14.5023 166.153C13.1321 166.153 12.0273 165.042 12.0273 163.664C12.0273 162.286 13.1321 161.174 14.5023 161.174C15.8724 161.174 16.9772 162.286 16.9772 163.664Z" stroke="white" stroke-width="2.09" stroke-miterlimit="10"/>
<path d="M28.1873 125.841L2.58789 151.423V130.814C2.58789 128.069 4.80285 125.841 7.53229 125.841H28.1873Z" fill="black"/>
<path d="M40.3558 125.89L27.418 138.747L27.4667 125.847L40.3558 125.89Z" fill="black"/>
<path d="M45.9829 125.863L39.5654 132.324L39.5925 125.835L45.9883 125.857L45.9829 125.863Z" fill="black"/>
<path d="M53.0502 138.441C53.5592 138.43 53.9654 138.011 53.9546 137.499C53.9437 136.987 53.5268 136.578 53.0177 136.589C52.514 136.6 52.1133 137.009 52.1133 137.515C52.1133 138.033 52.5357 138.447 53.0502 138.441Z" fill="black"/>
<path d="M46.1351 136.567C45.626 136.578 45.2198 136.998 45.2307 137.51C45.2415 138.022 45.6585 138.431 46.1676 138.42C46.6712 138.409 47.072 138 47.072 137.494C47.0666 136.976 46.6441 136.562 46.1351 136.567Z" fill="black"/>
<path d="M46.1462 134.743C44.6352 134.715 43.3951 135.925 43.368 137.445C43.3409 138.964 44.5432 140.212 46.0541 140.239C46.0812 140.239 46.1029 140.239 46.1299 140.239L53.1268 140.266C54.6378 140.31 55.8942 139.111 55.9321 137.597C55.97 136.083 54.784 134.813 53.2785 134.775C53.2352 134.775 53.1918 134.775 53.1485 134.775L46.1516 134.748L46.1462 134.743ZM53.116 142.097L46.1191 142.07C43.6063 142.119 41.5267 140.114 41.4726 137.586C41.4238 135.058 43.4167 132.967 45.9296 132.912C46.0054 132.912 46.0758 132.912 46.1516 132.912L53.1485 132.939C55.6613 132.879 57.7463 134.884 57.8059 137.412C57.8655 139.94 55.8725 142.037 53.3597 142.097C53.2785 142.097 53.1972 142.097 53.1214 142.097" fill="black"/>
<path d="M37.166 150.164C37.166 150.693 36.7382 151.123 36.2129 151.123C35.6876 151.123 35.2598 150.693 35.2598 150.164C35.2598 149.636 35.6876 149.206 36.2129 149.206C36.7382 149.206 37.166 149.636 37.166 150.164Z" fill="black"/>
<path d="M43.876 150.164C43.876 150.693 43.4482 151.123 42.9229 151.123C42.3976 151.123 41.9697 150.693 41.9697 150.164C41.9697 149.636 42.3976 149.206 42.9229 149.206C43.4482 149.206 43.876 149.636 43.876 150.164Z" fill="black"/>
<path d="M50.586 150.164C50.586 150.693 50.1581 151.123 49.6328 151.123C49.1075 151.123 48.6797 150.693 48.6797 150.164C48.6797 149.636 49.1075 149.206 49.6328 149.206C50.1581 149.206 50.586 149.636 50.586 150.164Z" fill="black"/>
<path d="M57.2959 150.164C57.2959 150.693 56.8681 151.123 56.3428 151.123C55.8175 151.123 55.3896 150.693 55.3896 150.164C55.3896 149.636 55.8175 149.206 56.3428 149.206C56.8681 149.206 57.2959 149.636 57.2959 150.164Z" fill="black"/>
<path d="M64.0059 150.164C64.0059 150.693 63.5781 151.123 63.0528 151.123C62.5274 151.123 62.0996 150.693 62.0996 150.164C62.0996 149.636 62.5274 149.206 63.0528 149.206C63.5781 149.206 64.0059 149.636 64.0059 150.164Z" fill="black"/>
<path d="M37.166 156.914C37.166 157.443 36.7382 157.873 36.2129 157.873C35.6876 157.873 35.2598 157.443 35.2598 156.914C35.2598 156.386 35.6876 155.956 36.2129 155.956C36.7382 155.956 37.166 156.386 37.166 156.914Z" fill="black"/>
<path d="M43.876 156.914C43.876 157.443 43.4482 157.873 42.9229 157.873C42.3976 157.873 41.9697 157.443 41.9697 156.914C41.9697 156.386 42.3976 155.956 42.9229 155.956C43.4482 155.956 43.876 156.386 43.876 156.914Z" fill="black"/>
<path d="M50.586 156.914C50.586 157.443 50.1581 157.873 49.6328 157.873C49.1075 157.873 48.6797 157.443 48.6797 156.914C48.6797 156.386 49.1075 155.956 49.6328 155.956C50.1581 155.956 50.586 156.386 50.586 156.914Z" fill="black"/>
<path d="M57.2959 156.914C57.2959 157.443 56.8681 157.873 56.3428 157.873C55.8175 157.873 55.3896 157.443 55.3896 156.914C55.3896 156.386 55.8175 155.956 56.3428 155.956C56.8681 155.956 57.2959 156.386 57.2959 156.914Z" fill="black"/>
<path d="M64.0059 156.914C64.0059 157.443 63.5781 157.873 63.0528 157.873C62.5274 157.873 62.0996 157.443 62.0996 156.914C62.0996 156.386 62.5274 155.956 63.0528 155.956C63.5781 155.956 64.0059 156.386 64.0059 156.914Z" fill="black"/>
<path d="M37.166 163.664C37.166 164.192 36.7382 164.623 36.2129 164.623C35.6876 164.623 35.2598 164.192 35.2598 163.664C35.2598 163.135 35.6876 162.705 36.2129 162.705C36.7382 162.705 37.166 163.135 37.166 163.664Z" fill="black"/>
<path d="M43.876 163.664C43.876 164.192 43.4482 164.623 42.9229 164.623C42.3976 164.623 41.9697 164.192 41.9697 163.664C41.9697 163.135 42.3976 162.705 42.9229 162.705C43.4482 162.705 43.876 163.135 43.876 163.664Z" fill="black"/>
<path d="M50.586 163.664C50.586 164.192 50.1581 164.623 49.6328 164.623C49.1075 164.623 48.6797 164.192 48.6797 163.664C48.6797 163.135 49.1075 162.705 49.6328 162.705C50.1581 162.705 50.586 163.135 50.586 163.664Z" fill="black"/>
<path d="M57.2959 163.664C57.2959 164.192 56.8681 164.623 56.3428 164.623C55.8175 164.623 55.3896 164.192 55.3896 163.664C55.3896 163.135 55.8175 162.705 56.3428 162.705C56.8681 162.705 57.2959 163.135 57.2959 163.664Z" fill="black"/>
<path d="M64.0059 163.664C64.0059 164.192 63.5781 164.623 63.0528 164.623C62.5274 164.623 62.0996 164.192 62.0996 163.664C62.0996 163.135 62.5274 162.705 63.0528 162.705C63.5781 162.705 64.0059 163.135 64.0059 163.664Z" fill="black"/>
<path d="M37.166 170.413C37.166 170.942 36.7382 171.372 36.2129 171.372C35.6876 171.372 35.2598 170.942 35.2598 170.413C35.2598 169.885 35.6876 169.455 36.2129 169.455C36.7382 169.455 37.166 169.885 37.166 170.413Z" fill="black"/>
<path d="M43.876 170.413C43.876 170.942 43.4482 171.372 42.9229 171.372C42.3976 171.372 41.9697 170.942 41.9697 170.413C41.9697 169.885 42.3976 169.455 42.9229 169.455C43.4482 169.455 43.876 169.885 43.876 170.413Z" fill="black"/>
<path d="M50.586 170.413C50.586 170.942 50.1581 171.372 49.6328 171.372C49.1075 171.372 48.6797 170.942 48.6797 170.413C48.6797 169.885 49.1075 169.455 49.6328 169.455C50.1581 169.455 50.586 169.885 50.586 170.413Z" fill="black"/>
<path d="M57.2959 170.413C57.2959 170.942 56.8681 171.372 56.3428 171.372C55.8175 171.372 55.3896 170.942 55.3896 170.413C55.3896 169.885 55.8175 169.455 56.3428 169.455C56.8681 169.455 57.2959 169.885 57.2959 170.413Z" fill="black"/>
<path d="M64.0059 170.413C64.0059 170.942 63.5781 171.372 63.0528 171.372C62.5274 171.372 62.0996 170.942 62.0996 170.413C62.0996 169.885 62.5274 169.455 63.0528 169.455C63.5781 169.455 64.0059 169.885 64.0059 170.413Z" fill="black"/>
<path d="M37.166 177.163C37.166 177.691 36.7382 178.122 36.2129 178.122C35.6876 178.122 35.2598 177.691 35.2598 177.163C35.2598 176.634 35.6876 176.204 36.2129 176.204C36.7382 176.204 37.166 176.634 37.166 177.163Z" fill="black"/>
<path d="M43.876 177.163C43.876 177.691 43.4482 178.122 42.9229 178.122C42.3976 178.122 41.9697 177.691 41.9697 177.163C41.9697 176.634 42.3976 176.204 42.9229 176.204C43.4482 176.204 43.876 176.634 43.876 177.163Z" fill="black"/>
<path d="M50.586 177.163C50.586 177.691 50.1581 178.122 49.6328 178.122C49.1075 178.122 48.6797 177.691 48.6797 177.163C48.6797 176.634 49.1075 176.204 49.6328 176.204C50.1581 176.204 50.586 176.634 50.586 177.163Z" fill="black"/>
<path d="M57.2959 177.163C57.2959 177.691 56.8681 178.122 56.3428 178.116C55.8175 178.116 55.3896 177.686 55.3896 177.157C55.3896 176.629 55.8175 176.204 56.3428 176.204C56.8681 176.204 57.2959 176.634 57.2959 177.163Z" fill="black"/>
<path d="M64.0059 177.163C64.0059 177.691 63.5781 178.122 63.0528 178.116C62.5274 178.116 62.0996 177.686 62.0996 177.157C62.0996 176.629 62.5274 176.204 63.0528 176.204C63.5781 176.204 64.0059 176.634 64.0059 177.163Z" fill="black"/>
<circle cx="84.6436" cy="162.967" r="15" stroke="#3276C3" stroke-width="5"/>
</svg>
