<svg width="379" height="224" viewBox="0 0 379 224" fill="none" xmlns="http://www.w3.org/2000/svg">
<g clip-path="url(#clip0_1836_63)">
<mask id="mask0_1836_63" style="mask-type:luminance" maskUnits="userSpaceOnUse" x="0" y="0" width="379" height="224">
<path d="M378.452 0H0V223.948H378.452V0Z" fill="white"/>
</mask>
<g mask="url(#mask0_1836_63)">
<path d="M102.202 145.473L75.981 145.751" stroke="#48AC34" stroke-width="4.182" stroke-linecap="round" stroke-linejoin="round"/>
<path d="M94.311 132.959L105.4 145.412L94.6 158.118" stroke="#48AC34" stroke-width="4.182" stroke-linecap="round" stroke-linejoin="round"/>
<path d="M227.134 74.931L226.856 50.71" stroke="#48AC34" stroke-width="4.182" stroke-linecap="round" stroke-linejoin="round"/>
<path d="M239.647 68.04L227.194 79.132L214.488 68.332" stroke="#48AC34" stroke-width="4.182" stroke-linecap="round" stroke-linejoin="round"/>
<mask id="mask1_1836_63" style="mask-type:luminance" maskUnits="userSpaceOnUse" x="0" y="0" width="379" height="224">
<path d="M377.952 0.5V223.448H0.5V0.5H377.952Z" fill="white" stroke="white"/>
</mask>
<g mask="url(#mask1_1836_63)">
<path d="M67.536 95.865C67.6272 95.865 67.7146 95.9013 67.7792 95.9656C67.8278 96.0139 67.8605 96.0752 67.8739 96.1414L67.8808 96.2087L68.1806 206.36C68.1803 206.451 68.1449 206.538 68.081 206.602C68.0167 206.667 67.9289 206.703 67.8378 206.704L41.8905 206.775C41.7997 206.775 41.7128 206.739 41.6483 206.676C41.5998 206.627 41.5662 206.566 41.5526 206.5L41.5458 206.432L41.246 96.283C41.2461 96.1917 41.2822 96.1036 41.3466 96.0388C41.411 95.9741 41.4985 95.9379 41.5897 95.9373L41.5888 95.9363L67.536 95.865Z" stroke="black"/>
<path d="M41.587 95.437L67.536 95.365C67.7594 95.365 67.9737 95.4535 68.1321 95.6111C68.2904 95.7687 68.3799 95.9826 68.381 96.206L68.681 206.359C68.681 206.582 68.5927 206.796 68.4353 206.955C68.2779 207.113 68.0642 207.203 67.841 207.204L41.891 207.276C41.6677 207.276 41.4535 207.187 41.2952 207.03C41.1369 206.872 41.0473 206.658 41.046 206.435L40.746 96.282C40.7463 96.0587 40.8348 95.8445 40.9924 95.6862C41.1499 95.5279 41.3637 95.4383 41.587 95.437Z" stroke="black" stroke-width="3" stroke-miterlimit="10" stroke-linecap="round"/>
<path d="M61.324 94.8817L47.7966 94.9198L47.781 89.1151L61.3074 89.077L61.324 94.8817Z" stroke="black"/>
<path d="M47.451 95.421L61.673 95.382C61.7133 95.3815 61.7518 95.3652 61.7803 95.3365C61.8087 95.3079 61.8247 95.2693 61.825 95.229L61.807 88.729C61.8067 88.6886 61.7905 88.6499 61.7618 88.6215C61.7332 88.593 61.6944 88.577 61.654 88.577L47.433 88.617C47.413 88.617 47.3931 88.621 47.3746 88.6287C47.3561 88.6364 47.3393 88.6477 47.3252 88.6619C47.311 88.6761 47.2999 88.693 47.2923 88.7115C47.2847 88.7301 47.2809 88.75 47.281 88.77L47.298 95.27C47.2985 95.3102 47.3149 95.3486 47.3435 95.3769C47.3721 95.4052 47.4108 95.421 47.451 95.421Z" stroke="black" stroke-width="3" stroke-miterlimit="10" stroke-linecap="round"/>
<mask id="path-11-inside-1_1836_63" fill="white">
<path d="M28.593 202.1L2.644 202.172C2.42058 202.172 2.20626 202.084 2.04791 201.926C1.88955 201.768 1.80006 201.554 1.799 201.331L1.5 91.176C1.49973 90.9527 1.58799 90.7383 1.74543 90.58C1.90288 90.4216 2.11668 90.3321 2.34 90.331L28.29 90.258C28.5134 90.2585 28.7276 90.3473 28.8859 90.505C29.0441 90.6627 29.1337 90.8766 29.135 91.1L29.435 201.252C29.4353 201.475 29.347 201.69 29.1896 201.848C29.0321 202.006 28.8183 202.096 28.595 202.097"/>
</mask>
<path d="M2.644 202.172L2.64401 203.172L2.64677 203.172L2.644 202.172ZM1.799 201.331L0.799002 201.334L0.799012 201.336L1.799 201.331ZM1.5 91.176L0.5 91.1772L0.500004 91.1787L1.5 91.176ZM2.34 90.331L2.33719 89.331L2.33526 89.331L2.34 90.331ZM28.29 90.258L28.2923 89.258L28.2872 89.258L28.29 90.258ZM29.135 91.1L30.135 91.0973L30.135 91.0941L29.135 91.1ZM29.435 201.252L30.435 201.251L30.435 201.249L29.435 201.252ZM28.593 202.1L28.5902 201.1L2.64123 201.172L2.644 202.172L2.64677 203.172L28.5958 203.1L28.593 202.1ZM2.644 202.172L2.64399 201.172C2.68497 201.172 2.72428 201.188 2.75333 201.217L2.04791 201.926L1.34248 202.635C1.68823 202.979 2.1562 203.172 2.64401 203.172L2.644 202.172ZM2.04791 201.926L2.75333 201.217C2.78238 201.246 2.7988 201.285 2.79899 201.326L1.799 201.331L0.799012 201.336C0.801321 201.824 0.99672 202.291 1.34248 202.635L2.04791 201.926ZM1.799 201.331L2.799 201.328L2.5 91.1733L1.5 91.176L0.500004 91.1787L0.799004 201.334L1.799 201.331ZM1.5 91.176L2.5 91.1748C2.50005 91.2161 2.48374 91.2557 2.45464 91.285L1.74543 90.58L1.03623 89.875C0.692236 90.221 0.499418 90.6893 0.500001 91.1772L1.5 91.176ZM1.74543 90.58L2.45464 91.285C2.42553 91.3143 2.38601 91.3308 2.34474 91.331L2.34 90.331L2.33526 89.331C1.84735 89.3333 1.38023 89.5289 1.03623 89.875L1.74543 90.58ZM2.34 90.331L2.34281 91.331L28.2928 91.258L28.29 90.258L28.2872 89.258L2.33719 89.331L2.34 90.331ZM28.29 90.258L28.2877 91.258C28.2473 91.2579 28.2086 91.2419 28.18 91.2134L28.8859 90.505L29.5917 89.7966C29.2466 89.4527 28.7795 89.2591 28.2923 89.258L28.29 90.258ZM28.8859 90.505L28.18 91.2134C28.1514 91.1849 28.1353 91.1463 28.135 91.1059L29.135 91.1L30.135 91.0941C30.1321 90.6069 29.9368 90.1406 29.5917 89.7966L28.8859 90.505ZM29.135 91.1L28.135 91.1027L28.435 201.255L29.435 201.252L30.435 201.249L30.135 91.0973L29.135 91.1ZM29.435 201.252L28.435 201.253C28.435 201.212 28.4513 201.172 28.4804 201.143L29.1896 201.848L29.8988 202.553C30.2428 202.207 30.4356 201.739 30.435 201.251L29.435 201.252ZM29.1896 201.848L28.4804 201.143C28.5095 201.114 28.549 201.097 28.5903 201.097L28.595 202.097L28.5997 203.097C29.0876 203.095 29.5548 202.899 29.8988 202.553L29.1896 201.848Z" fill="black" mask="url(#path-11-inside-1_1836_63)"/>
<path d="M28.593 202.1L2.644 202.172C2.42058 202.172 2.20626 202.084 2.04791 201.926C1.88955 201.768 1.80006 201.554 1.799 201.331L1.5 91.176C1.49973 90.9527 1.58799 90.7383 1.74543 90.58C1.90288 90.4216 2.11668 90.3321 2.34 90.331L28.29 90.258C28.5134 90.2585 28.7276 90.3473 28.8859 90.505C29.0441 90.6627 29.1337 90.8766 29.135 91.1L29.435 201.252C29.4355 201.363 29.4142 201.473 29.3721 201.576C29.33 201.678 29.2681 201.772 29.1899 201.851C29.1117 201.929 29.0187 201.992 28.9163 202.035C28.8139 202.078 28.704 202.1 28.593 202.1Z" stroke="black" stroke-width="3" stroke-miterlimit="10" stroke-linecap="round"/>
<path d="M22.398 208.419L8.8716 208.457L8.855 202.652L22.3823 202.614L22.398 208.419Z" stroke="black"/>
<path d="M22.729 202.114L8.507 202.153C8.46668 202.154 8.42817 202.17 8.39975 202.198C8.37133 202.227 8.35526 202.266 8.355 202.306L8.373 208.806C8.37327 208.846 8.3895 208.885 8.41817 208.914C8.44683 208.942 8.4856 208.958 8.526 208.958L22.747 208.918C22.767 208.918 22.7869 208.914 22.8054 208.906C22.8239 208.899 22.8407 208.887 22.8548 208.873C22.869 208.859 22.8801 208.842 22.8877 208.823C22.8953 208.805 22.8991 208.785 22.899 208.765L22.882 202.265C22.8815 202.225 22.8651 202.186 22.8365 202.158C22.8079 202.13 22.7692 202.114 22.729 202.114Z" stroke="black" stroke-width="3" stroke-miterlimit="10" stroke-linecap="round"/>
<path d="M221.889 27.678H231.735C232.109 27.6782 232.468 27.8273 232.733 28.0921C232.997 28.3568 233.146 28.7159 233.146 29.0901V43.0618C233.146 43.436 232.997 43.7952 232.733 44.0598C232.468 44.3244 232.109 44.4729 231.735 44.4729H221.889C221.515 44.4729 221.156 44.3244 220.891 44.0598C220.626 43.7952 220.478 43.436 220.478 43.0618V29.0901L220.485 28.9505C220.517 28.6274 220.66 28.3237 220.891 28.0921C221.123 27.8604 221.426 27.7171 221.749 27.6848L221.889 27.678Z" fill="black" stroke="black"/>
<path d="M169.063 74.591H169.064C169.524 74.5895 169.98 74.6788 170.406 74.8537C170.831 75.0286 171.218 75.286 171.544 75.6105C171.87 75.935 172.129 76.3207 172.306 76.7453C172.483 77.1699 172.574 77.6252 172.575 78.0851V78.0861L172.908 218.794V218.795C172.909 219.255 172.82 219.711 172.645 220.137C172.47 220.562 172.214 220.95 171.889 221.276C171.564 221.602 171.178 221.86 170.753 222.037C170.329 222.214 169.873 222.305 169.413 222.306H169.412L109.654 222.448H109.652C109.192 222.45 108.736 222.36 108.311 222.186C107.885 222.011 107.498 221.753 107.172 221.429C106.846 221.104 106.587 220.719 106.411 220.294C106.234 219.869 106.142 219.413 106.141 218.953V218.952L105.808 78.2443V78.2433C105.807 77.7835 105.896 77.3278 106.071 76.9025C106.246 76.4771 106.503 76.0899 106.828 75.7638C107.152 75.4379 107.538 75.179 107.962 75.0021C108.334 74.8474 108.728 74.758 109.129 74.7375L109.302 74.7326L169.063 74.591Z" fill="black" stroke="black" stroke-width="3"/>
<mask id="mask2_1836_63" style="mask-type:luminance" maskUnits="userSpaceOnUse" x="124" y="122" width="30" height="51">
<path d="M152.654 123.425V172.262H125.29V123.425H152.654Z" fill="white" stroke="white"/>
</mask>
<g mask="url(#mask2_1836_63)">
<path d="M139.426 143.263C139.396 143.405 139.398 143.552 139.432 143.693C139.466 143.834 139.532 143.966 139.623 144.078C139.714 144.191 139.829 144.282 139.96 144.345C140.091 144.407 140.234 144.44 140.379 144.44H140.382L152.355 144.411C152.409 144.412 152.462 144.427 152.508 144.455C152.554 144.483 152.592 144.523 152.617 144.57C152.642 144.618 152.654 144.671 152.651 144.725C152.649 144.778 152.632 144.829 152.603 144.874L134.49 172.163L138.519 152.424L138.518 152.423C138.54 152.318 138.544 152.21 138.531 152.104L138.512 151.997L138.48 151.894C138.456 151.826 138.425 151.76 138.386 151.699L138.322 151.611L138.249 151.531C138.197 151.48 138.14 151.436 138.079 151.397L137.984 151.346L137.884 151.304C137.781 151.268 137.674 151.25 137.565 151.25H137.563L125.588 151.277C125.534 151.276 125.482 151.262 125.436 151.234C125.391 151.206 125.353 151.167 125.328 151.119C125.303 151.072 125.29 151.018 125.293 150.964C125.295 150.911 125.312 150.86 125.341 150.815L143.454 123.524L139.426 143.263Z" fill="white" stroke="white"/>
</g>
<path d="M226.812 36.076V33.621C226.812 29.4685 225.994 25.3567 224.405 21.5202C222.816 17.6838 220.487 14.1979 217.551 11.2616C214.615 8.32534 211.129 5.99614 207.293 4.40702C203.456 2.81791 199.344 2 195.192 2H173.043C164.657 2 156.614 5.33138 150.684 11.2613C144.754 17.1912 141.423 25.2339 141.423 33.62V73.707" stroke="black" stroke-width="4" stroke-miterlimit="10"/>
<path d="M212.614 81.262H364.506C367.518 81.262 370.406 82.4587 372.535 84.5882C374.665 86.7176 375.861 89.6061 375.861 92.6175V209.388C375.861 210.879 375.568 212.356 374.997 213.734C374.427 215.111 373.59 216.364 372.535 217.418C371.481 218.473 370.229 219.309 368.852 219.879C367.474 220.45 365.997 220.744 364.506 220.744H359.599C358.935 219.79 358.06 219 357.037 218.442C355.933 217.839 354.694 217.522 353.436 217.522C352.178 217.522 350.939 217.839 349.835 218.442C348.812 219 347.937 219.79 347.273 220.744H327.163C326.499 219.79 325.624 219 324.601 218.442C323.496 217.839 322.258 217.522 321 217.522C319.742 217.522 318.504 217.839 317.4 218.442C316.377 219 315.502 219.79 314.837 220.744H294.718C294.053 219.79 293.178 219 292.155 218.442C291.051 217.839 289.813 217.523 288.555 217.523C287.297 217.523 286.059 217.839 284.954 218.442C283.931 219 283.056 219.79 282.392 220.744H262.283C261.619 219.79 260.744 219 259.721 218.442C258.617 217.839 257.378 217.523 256.12 217.523C254.862 217.523 253.624 217.839 252.52 218.442C251.497 219 250.622 219.79 249.957 220.744H229.847C229.182 219.79 228.307 219 227.284 218.442C226.18 217.839 224.942 217.523 223.684 217.523C222.426 217.523 221.188 217.839 220.083 218.442C219.06 219 218.185 219.79 217.521 220.744H212.614C209.603 220.744 206.715 219.547 204.585 217.417C202.456 215.288 201.259 212.4 201.259 209.388V92.6175L201.273 92.054C201.412 89.2475 202.589 86.5845 204.585 84.5882C206.582 82.5918 209.245 81.4151 212.051 81.2757L212.614 81.262Z" stroke="black"/>
<path d="M364.506 80.762H212.614C209.47 80.7623 206.455 82.0114 204.232 84.2345C202.008 86.4577 200.759 89.4729 200.759 92.617V209.388C200.759 212.532 202.008 215.548 204.231 217.771C206.454 219.994 209.47 221.244 212.614 221.244H217.784C218.419 220.256 219.292 219.443 220.323 218.881C221.354 218.318 222.51 218.023 223.684 218.023C224.858 218.023 226.014 218.318 227.045 218.881C228.076 219.443 228.949 220.256 229.584 221.244H250.22C250.855 220.256 251.728 219.443 252.759 218.881C253.79 218.318 254.946 218.023 256.12 218.023C257.294 218.023 258.45 218.318 259.481 218.881C260.512 219.443 261.385 220.256 262.02 221.244H282.655C283.29 220.256 284.163 219.443 285.194 218.881C286.225 218.318 287.381 218.023 288.555 218.023C289.729 218.023 290.885 218.318 291.916 218.881C292.947 219.443 293.82 220.256 294.455 221.244H315.1C315.735 220.256 316.608 219.443 317.639 218.88C318.67 218.317 319.825 218.022 321 218.022C322.175 218.022 323.33 218.317 324.361 218.88C325.392 219.443 326.265 220.256 326.9 221.244H347.536C348.171 220.256 349.044 219.443 350.075 218.88C351.106 218.317 352.261 218.022 353.436 218.022C354.611 218.022 355.766 218.317 356.797 218.88C357.828 219.443 358.701 220.256 359.336 221.244H364.506C366.063 221.244 367.605 220.937 369.043 220.341C370.481 219.746 371.788 218.872 372.889 217.771C373.99 216.67 374.863 215.363 375.459 213.925C376.055 212.487 376.361 210.945 376.361 209.388V92.617C376.361 91.0602 376.054 89.5186 375.459 88.0803C374.863 86.642 373.99 85.3351 372.889 84.2342C371.788 83.1334 370.481 82.2602 369.043 81.6644C367.604 81.0686 366.063 80.762 364.506 80.762Z" stroke="black" stroke-width="4.182" stroke-linecap="round" stroke-linejoin="round"/>
<path d="M360.46 199.027C360.459 200.416 360.047 201.774 359.275 202.929C358.503 204.083 357.405 204.983 356.122 205.514C354.838 206.045 353.426 206.184 352.064 205.913C350.702 205.641 349.45 204.972 348.468 203.99C347.486 203.007 346.818 201.756 346.547 200.393C346.276 199.031 346.415 197.619 346.947 196.335C347.479 195.052 348.379 193.955 349.534 193.184C350.689 192.412 352.047 192 353.436 192C354.359 192 355.272 192.182 356.125 192.535C356.977 192.888 357.752 193.406 358.404 194.058C359.056 194.711 359.573 195.486 359.926 196.338C360.279 197.191 360.46 198.104 360.46 199.027Z" stroke="black" stroke-width="2.509" stroke-linecap="round" stroke-linejoin="round"/>
<path d="M328.022 199.027C328.021 200.416 327.609 201.774 326.837 202.929C326.064 204.083 324.967 204.983 323.683 205.514C322.4 206.046 320.988 206.184 319.625 205.913C318.263 205.641 317.011 204.972 316.03 203.989C315.048 203.006 314.379 201.755 314.109 200.392C313.838 199.029 313.978 197.617 314.51 196.334C315.042 195.051 315.942 193.954 317.097 193.183C318.253 192.411 319.611 192 321 192C321.923 192 322.836 192.182 323.688 192.535C324.54 192.889 325.315 193.406 325.967 194.059C326.619 194.711 327.136 195.486 327.489 196.338C327.841 197.191 328.023 198.104 328.022 199.027Z" stroke="black" stroke-width="2.509" stroke-linecap="round" stroke-linejoin="round"/>
<path d="M295.584 199.027C295.583 200.416 295.171 201.774 294.399 202.929C293.627 204.083 292.529 204.983 291.246 205.514C289.962 206.045 288.55 206.184 287.187 205.913C285.825 205.641 284.574 204.972 283.592 203.989C282.61 203.007 281.941 201.755 281.671 200.393C281.4 199.03 281.539 197.618 282.071 196.335C282.603 195.051 283.504 193.955 284.659 193.183C285.814 192.412 287.172 192 288.561 192C289.484 192 290.397 192.182 291.25 192.535C292.102 192.888 292.876 193.406 293.528 194.058C294.181 194.711 294.698 195.486 295.051 196.338C295.403 197.191 295.585 198.104 295.584 199.027Z" stroke="black" stroke-width="2.509" stroke-linecap="round" stroke-linejoin="round"/>
<path d="M263.147 199.027C263.146 200.416 262.734 201.774 261.962 202.929C261.19 204.083 260.092 204.983 258.809 205.514C257.525 206.045 256.113 206.184 254.751 205.913C253.389 205.641 252.137 204.972 251.155 203.99C250.173 203.007 249.505 201.756 249.234 200.393C248.963 199.031 249.102 197.619 249.634 196.335C250.166 195.052 251.066 193.955 252.221 193.184C253.376 192.412 254.734 192 256.123 192C257.046 192 257.959 192.182 258.812 192.535C259.664 192.888 260.439 193.406 261.091 194.058C261.743 194.711 262.26 195.486 262.613 196.338C262.966 197.191 263.147 198.104 263.147 199.027Z" stroke="black" stroke-width="2.509" stroke-linecap="round" stroke-linejoin="round"/>
<path d="M230.709 199.027C230.708 200.416 230.296 201.774 229.524 202.929C228.752 204.083 227.654 204.983 226.371 205.514C225.087 206.045 223.675 206.184 222.313 205.913C220.951 205.641 219.699 204.972 218.717 203.99C217.735 203.007 217.067 201.756 216.796 200.393C216.525 199.031 216.664 197.619 217.196 196.335C217.728 195.052 218.628 193.955 219.783 193.184C220.938 192.412 222.296 192 223.685 192C224.608 192 225.521 192.182 226.374 192.535C227.226 192.888 228.001 193.406 228.653 194.058C229.305 194.711 229.822 195.486 230.175 196.338C230.528 197.191 230.709 198.104 230.709 199.027Z" stroke="black" stroke-width="2.509" stroke-linecap="round" stroke-linejoin="round"/>
<path d="M361.863 140.967L362.021 140.975C362.389 141.012 362.735 141.176 362.999 141.44C363.262 141.703 363.425 142.049 363.462 142.416L363.471 142.575V159.433C363.469 159.858 363.299 160.266 362.999 160.567C362.697 160.868 362.289 161.038 361.863 161.039H345.008C344.582 161.038 344.173 160.869 343.872 160.568C343.608 160.304 343.445 159.958 343.408 159.59L343.399 159.431V142.575C343.4 142.149 343.57 141.74 343.872 141.439C344.135 141.175 344.481 141.012 344.849 140.975L345.008 140.967H361.863Z" fill="black" stroke="black"/>
<path d="M345.005 140.467H361.863C362.422 140.467 362.958 140.689 363.354 141.084C363.749 141.48 363.971 142.016 363.971 142.575V159.432C363.971 159.991 363.749 160.527 363.354 160.922C362.959 161.317 362.423 161.539 361.864 161.539H345.006C344.447 161.539 343.911 161.317 343.516 160.922C343.121 160.527 342.899 159.991 342.899 159.432V142.573C342.899 142.014 343.121 141.479 343.516 141.084C343.911 140.689 344.446 140.467 345.005 140.467Z" stroke="black" stroke-width="1.255" stroke-linecap="round" stroke-linejoin="round"/>
<path d="M232.112 140.967L232.271 140.976C232.639 141.013 232.984 141.176 233.248 141.44C233.511 141.703 233.674 142.049 233.711 142.416L233.72 142.575V159.433C233.718 159.858 233.548 160.266 233.248 160.567C232.946 160.868 232.538 161.038 232.112 161.039H215.257C214.831 161.038 214.422 160.869 214.121 160.568C213.857 160.304 213.694 159.958 213.657 159.59L213.648 159.431V142.575C213.649 142.149 213.819 141.74 214.121 141.439C214.384 141.175 214.73 141.012 215.098 140.975L215.257 140.967H232.112Z" fill="black" stroke="black"/>
<path d="M215.254 140.467H232.114C232.391 140.467 232.664 140.521 232.92 140.627C233.175 140.733 233.408 140.888 233.603 141.084C233.799 141.279 233.954 141.512 234.06 141.767C234.166 142.023 234.22 142.296 234.22 142.573V159.432C234.22 159.991 233.998 160.527 233.603 160.922C233.208 161.317 232.672 161.539 232.113 161.539H215.254C214.695 161.539 214.16 161.317 213.765 160.922C213.37 160.527 213.148 159.992 213.148 159.433V142.573C213.148 142.014 213.37 141.479 213.765 141.084C214.16 140.689 214.695 140.467 215.254 140.467Z" stroke="black" stroke-width="1.255" stroke-linecap="round" stroke-linejoin="round"/>
<path d="M353.434 146.935H353.435C354.513 146.935 355.547 147.363 356.309 148.125C357.072 148.888 357.5 149.922 357.5 151C357.5 151.804 357.262 152.591 356.815 153.259C356.369 153.928 355.733 154.449 354.99 154.757C354.247 155.065 353.43 155.145 352.641 154.989C351.853 154.832 351.127 154.445 350.558 153.876C349.99 153.308 349.603 152.583 349.446 151.794C349.289 151.006 349.37 150.188 349.678 149.445C349.985 148.702 350.507 148.066 351.176 147.62C351.844 147.173 352.63 146.935 353.434 146.935Z" fill="white" stroke="black"/>
<path d="M358 151C358 151.903 357.733 152.786 357.231 153.537C356.729 154.288 356.016 154.874 355.182 155.219C354.347 155.565 353.429 155.655 352.543 155.479C351.658 155.303 350.844 154.868 350.205 154.23C349.567 153.591 349.132 152.777 348.956 151.892C348.78 151.006 348.87 150.088 349.216 149.253C349.561 148.419 350.147 147.706 350.898 147.204C351.649 146.702 352.532 146.435 353.435 146.435C354.646 146.435 355.807 146.916 356.663 147.772C357.519 148.628 358 149.789 358 151Z" stroke="black" stroke-width="2.091" stroke-miterlimit="10"/>
<path d="M223.687 146.935C224.765 146.935 225.799 147.363 226.561 148.125C227.324 148.888 227.752 149.922 227.752 151C227.752 151.804 227.514 152.59 227.067 153.258C226.621 153.927 225.986 154.448 225.243 154.755C224.5 155.063 223.682 155.144 222.893 154.987C222.105 154.83 221.381 154.443 220.812 153.874C220.244 153.306 219.857 152.582 219.7 151.793C219.543 151.005 219.624 150.187 219.932 149.445C220.239 148.702 220.76 148.067 221.429 147.621C222.097 147.174 222.883 146.935 223.687 146.935Z" fill="white" stroke="black"/>
<path d="M228.252 151C228.252 151.903 227.984 152.785 227.483 153.536C226.981 154.287 226.268 154.872 225.434 155.218C224.6 155.563 223.682 155.653 222.796 155.477C221.911 155.301 221.097 154.866 220.459 154.228C219.821 153.59 219.386 152.776 219.21 151.891C219.034 151.005 219.124 150.087 219.469 149.253C219.815 148.419 220.4 147.706 221.151 147.204C221.902 146.703 222.784 146.435 223.687 146.435C224.898 146.435 226.059 146.916 226.915 147.772C227.771 148.628 228.252 149.789 228.252 151Z" stroke="black" stroke-width="2.091" stroke-miterlimit="10"/>
<path d="M202.184 127.329V90.6998C202.184 88.4108 203.094 86.2159 204.712 84.5973C206.331 82.9787 208.526 82.069 210.815 82.069L247.744 82.068L202.184 127.329Z" fill="black" stroke="black"/>
<path d="M270.208 82.1511L248.04 104.053L248.123 82.073L270.208 82.1511Z" fill="black" stroke="black"/>
<path d="M280.619 82.1071L270.472 92.2614L270.511 82.069L280.619 82.1071Z" fill="black" stroke="black"/>
<path d="M295.06 101.822C295.292 101.866 295.506 101.978 295.675 102.144C295.844 102.31 295.959 102.521 296.008 102.752C296.057 102.984 296.037 103.224 295.949 103.444C295.862 103.663 295.711 103.852 295.517 103.987C295.323 104.121 295.094 104.194 294.858 104.199C294.537 104.201 294.227 104.077 293.998 103.852C293.769 103.627 293.639 103.321 293.634 103C293.634 102.764 293.704 102.532 293.835 102.335C293.966 102.139 294.152 101.985 294.369 101.894C294.587 101.803 294.828 101.777 295.06 101.822Z" fill="black" stroke="black"/>
<path d="M282.107 101.757C282.428 101.756 282.737 101.881 282.966 102.107C283.168 102.304 283.294 102.565 283.325 102.843L283.332 102.963C283.331 103.197 283.261 103.426 283.131 103.621C283 103.818 282.814 103.972 282.596 104.064C282.378 104.155 282.138 104.179 281.906 104.135C281.674 104.09 281.46 103.978 281.291 103.813C281.123 103.647 281.007 103.435 280.958 103.204C280.91 102.973 280.93 102.732 281.017 102.513C281.104 102.293 281.254 102.104 281.449 101.97C281.642 101.836 281.871 101.762 282.107 101.757Z" fill="black" stroke="black"/>
<path d="M282.115 95.0537H282.127L295.05 95.1005V95.1015L295.064 95.1005C296.119 95.0765 297.17 95.265 298.152 95.6533C299.134 96.0416 300.028 96.6227 300.781 97.3623C301.535 98.1018 302.133 98.9846 302.54 99.9589C302.947 100.933 303.155 101.98 303.152 103.036C303.148 104.092 302.932 105.137 302.518 106.108C302.104 107.08 301.499 107.958 300.739 108.692C299.98 109.426 299.082 110.001 298.097 110.382C297.235 110.715 296.322 110.895 295.401 110.913L295.005 110.911H294.991L282.067 110.863H282.055C281.001 110.885 279.953 110.695 278.973 110.306C277.993 109.916 277.101 109.334 276.35 108.595C275.598 107.855 275.002 106.973 274.596 106C274.19 105.027 273.984 103.982 273.988 102.928C273.992 101.873 274.206 100.83 274.619 99.8603C275.032 98.8902 275.636 98.0119 276.393 97.2783C277.15 96.5447 278.047 95.9699 279.03 95.5878C280.012 95.2059 281.062 95.0243 282.115 95.0537ZM282.117 97.4111C281.385 97.3994 280.658 97.533 279.978 97.8037C279.296 98.0752 278.674 98.4795 278.15 98.9931C277.625 99.507 277.207 100.12 276.921 100.797C276.635 101.473 276.486 102.2 276.484 102.935C276.481 103.669 276.624 104.397 276.905 105.075C277.185 105.754 277.599 106.37 278.119 106.888C278.64 107.405 279.259 107.815 279.94 108.092C280.618 108.368 281.344 108.505 282.076 108.499V108.5L294.988 108.549V108.55C295.727 108.57 296.464 108.443 297.153 108.175C297.842 107.907 298.47 107.504 299.001 106.989C299.532 106.475 299.955 105.859 300.244 105.179C300.534 104.499 300.685 103.767 300.688 103.028C300.69 102.289 300.545 101.555 300.261 100.873C299.976 100.191 299.558 99.5721 299.03 99.0537C298.503 98.5353 297.878 98.1276 297.191 97.8544C296.507 97.5827 295.777 97.4494 295.041 97.4628H295.042L282.123 97.4111H282.117Z" fill="black" stroke="black"/>
<path d="M263.78 124.967C263.945 124.967 264.109 125 264.261 125.063C264.413 125.126 264.552 125.218 264.668 125.334C264.785 125.451 264.878 125.59 264.941 125.742C265.004 125.895 265.037 126.058 265.037 126.223C265.037 126.472 264.964 126.715 264.826 126.922C264.688 127.129 264.491 127.29 264.261 127.385C264.032 127.48 263.779 127.506 263.536 127.457C263.292 127.409 263.067 127.289 262.891 127.113C262.715 126.938 262.596 126.714 262.547 126.47C262.499 126.226 262.524 125.973 262.619 125.743C262.714 125.514 262.875 125.317 263.082 125.179C263.288 125.041 263.531 124.967 263.78 124.967Z" fill="black" stroke="black"/>
<path d="M276.171 124.967C276.504 124.967 276.824 125.1 277.059 125.335C277.295 125.571 277.427 125.89 277.427 126.223C277.427 126.472 277.354 126.715 277.216 126.922C277.078 127.129 276.881 127.29 276.651 127.385C276.422 127.48 276.169 127.506 275.925 127.457C275.681 127.409 275.457 127.288 275.281 127.113C275.105 126.937 274.986 126.713 274.937 126.469C274.889 126.225 274.913 125.972 275.009 125.742C275.104 125.513 275.266 125.317 275.473 125.179C275.628 125.076 275.803 125.008 275.985 124.981L276.171 124.967Z" fill="black" stroke="black"/>
<path d="M288.56 124.967C288.893 124.967 289.213 125.1 289.448 125.335C289.684 125.571 289.816 125.89 289.816 126.223C289.816 126.472 289.743 126.715 289.605 126.922C289.467 127.129 289.27 127.29 289.04 127.385C288.811 127.48 288.558 127.506 288.314 127.457C288.07 127.409 287.846 127.288 287.67 127.113C287.494 126.937 287.375 126.713 287.326 126.469C287.278 126.225 287.302 125.972 287.398 125.742C287.493 125.513 287.655 125.317 287.862 125.179C288.017 125.076 288.192 125.008 288.374 124.981L288.56 124.967Z" fill="black" stroke="black"/>
<path d="M300.95 124.967C301.283 124.967 301.603 125.1 301.839 125.335C302.074 125.571 302.206 125.89 302.206 126.223C302.206 126.471 302.133 126.715 301.995 126.921C301.857 127.128 301.66 127.288 301.43 127.383C301.201 127.478 300.948 127.504 300.705 127.455C300.461 127.407 300.238 127.287 300.062 127.112C299.887 126.936 299.767 126.712 299.718 126.468C299.67 126.224 299.695 125.972 299.79 125.742C299.885 125.513 300.046 125.317 300.253 125.179C300.459 125.041 300.702 124.967 300.95 124.967Z" fill="black" stroke="black"/>
<path d="M313.344 124.967C313.677 124.967 313.997 125.1 314.233 125.335C314.468 125.571 314.6 125.89 314.6 126.223C314.6 126.471 314.527 126.715 314.389 126.921C314.251 127.128 314.054 127.288 313.824 127.383C313.595 127.478 313.342 127.504 313.099 127.455C312.855 127.407 312.632 127.287 312.456 127.112C312.281 126.936 312.161 126.712 312.112 126.468C312.064 126.224 312.089 125.972 312.184 125.742C312.279 125.513 312.44 125.317 312.647 125.179C312.853 125.041 313.096 124.967 313.344 124.967Z" fill="black" stroke="black"/>
<path d="M263.78 137.357C263.945 137.357 264.109 137.39 264.261 137.453C264.413 137.516 264.552 137.608 264.668 137.724C264.785 137.841 264.878 137.98 264.941 138.132C265.004 138.285 265.037 138.448 265.037 138.613C265.037 138.861 264.964 139.105 264.826 139.312C264.688 139.519 264.491 139.68 264.261 139.775C264.032 139.87 263.779 139.896 263.536 139.847C263.292 139.799 263.067 139.679 262.891 139.503C262.715 139.328 262.596 139.104 262.547 138.86C262.499 138.616 262.524 138.363 262.619 138.133C262.714 137.904 262.875 137.707 263.082 137.569C263.288 137.431 263.531 137.357 263.78 137.357Z" fill="black" stroke="black"/>
<path d="M276.171 137.357C276.504 137.357 276.824 137.49 277.059 137.725C277.295 137.961 277.427 138.28 277.427 138.613C277.427 138.862 277.354 139.105 277.216 139.312C277.078 139.519 276.881 139.68 276.651 139.775C276.422 139.87 276.169 139.896 275.925 139.847C275.681 139.799 275.457 139.678 275.281 139.503C275.105 139.327 274.986 139.103 274.937 138.859C274.889 138.615 274.913 138.362 275.009 138.132C275.104 137.903 275.266 137.707 275.473 137.569C275.628 137.466 275.803 137.398 275.985 137.371L276.171 137.357Z" fill="black" stroke="black"/>
<path d="M288.56 137.357C288.893 137.357 289.213 137.49 289.448 137.725C289.684 137.961 289.816 138.28 289.816 138.613C289.816 138.861 289.743 139.105 289.605 139.312C289.467 139.519 289.27 139.68 289.04 139.775C288.811 139.87 288.558 139.896 288.314 139.847C288.07 139.799 287.846 139.678 287.67 139.503C287.494 139.327 287.375 139.103 287.326 138.859C287.278 138.615 287.302 138.362 287.398 138.132C287.493 137.903 287.655 137.707 287.862 137.569C288.017 137.466 288.192 137.398 288.374 137.371L288.56 137.357Z" fill="black" stroke="black"/>
<path d="M300.95 137.357C301.283 137.357 301.603 137.49 301.839 137.725C302.074 137.961 302.206 138.28 302.206 138.613C302.206 138.861 302.133 139.105 301.995 139.311C301.857 139.518 301.66 139.678 301.43 139.773C301.201 139.868 300.948 139.894 300.705 139.845C300.461 139.797 300.238 139.677 300.062 139.502C299.887 139.326 299.767 139.102 299.718 138.858C299.67 138.614 299.695 138.362 299.79 138.132C299.885 137.903 300.046 137.707 300.253 137.569C300.459 137.431 300.702 137.357 300.95 137.357Z" fill="black" stroke="black"/>
<path d="M313.344 137.357C313.677 137.357 313.997 137.49 314.233 137.725C314.468 137.961 314.6 138.28 314.6 138.613C314.6 138.861 314.527 139.105 314.389 139.311C314.251 139.518 314.054 139.678 313.824 139.773C313.595 139.868 313.342 139.894 313.099 139.845C312.855 139.797 312.632 139.677 312.456 139.502C312.281 139.326 312.161 139.102 312.112 138.858C312.064 138.614 312.089 138.362 312.184 138.132C312.279 137.903 312.44 137.707 312.647 137.569C312.853 137.431 313.096 137.357 313.344 137.357Z" fill="black" stroke="black"/>
<path d="M263.78 149.744C264.113 149.744 264.433 149.877 264.668 150.112C264.904 150.348 265.036 150.667 265.037 151C265.037 151.249 264.964 151.492 264.826 151.699C264.688 151.906 264.491 152.067 264.261 152.162C264.032 152.257 263.779 152.283 263.536 152.234C263.292 152.186 263.067 152.066 262.891 151.89C262.715 151.715 262.596 151.491 262.547 151.247C262.499 151.003 262.524 150.75 262.619 150.52C262.714 150.291 262.875 150.094 263.082 149.956C263.288 149.818 263.531 149.744 263.78 149.744Z" fill="black" stroke="black"/>
<path d="M276.171 149.744C276.504 149.744 276.823 149.877 277.059 150.112C277.294 150.348 277.426 150.667 277.427 151C277.427 151.249 277.354 151.492 277.216 151.699C277.078 151.906 276.881 152.067 276.651 152.162C276.422 152.257 276.169 152.283 275.925 152.234C275.681 152.186 275.457 152.065 275.281 151.89C275.105 151.714 274.986 151.49 274.937 151.246C274.889 151.002 274.913 150.749 275.009 150.519C275.104 150.29 275.266 150.094 275.473 149.956C275.679 149.818 275.922 149.744 276.171 149.744Z" fill="black" stroke="black"/>
<path d="M288.56 149.744C288.893 149.744 289.212 149.877 289.448 150.112C289.683 150.348 289.815 150.667 289.816 151C289.816 151.249 289.743 151.492 289.605 151.699C289.467 151.906 289.27 152.067 289.04 152.162C288.811 152.257 288.558 152.283 288.314 152.234C288.07 152.186 287.846 152.065 287.67 151.89C287.494 151.714 287.375 151.49 287.326 151.246C287.278 151.002 287.302 150.749 287.398 150.519C287.493 150.29 287.655 150.094 287.862 149.956C288.068 149.818 288.311 149.744 288.56 149.744Z" fill="black" stroke="black"/>
<path d="M300.95 149.744C301.283 149.744 301.602 149.877 301.838 150.112C302.073 150.348 302.205 150.667 302.206 151C302.206 151.248 302.133 151.492 301.995 151.698C301.857 151.905 301.66 152.065 301.43 152.16C301.201 152.255 300.948 152.281 300.705 152.232C300.461 152.184 300.238 152.064 300.062 151.889C299.887 151.713 299.767 151.489 299.718 151.245C299.67 151.001 299.695 150.749 299.79 150.519C299.885 150.29 300.046 150.094 300.253 149.956C300.407 149.852 300.583 149.785 300.765 149.758L300.95 149.744Z" fill="black" stroke="black"/>
<path d="M313.344 149.744C313.677 149.744 313.996 149.877 314.232 150.112C314.467 150.348 314.599 150.667 314.6 151C314.6 151.248 314.527 151.492 314.389 151.698C314.251 151.905 314.054 152.065 313.824 152.16C313.595 152.255 313.342 152.281 313.099 152.232C312.855 152.184 312.632 152.064 312.456 151.889C312.281 151.713 312.161 151.489 312.112 151.245C312.064 151.001 312.089 150.749 312.184 150.519C312.279 150.29 312.44 150.094 312.647 149.956C312.801 149.852 312.977 149.785 313.159 149.758L313.344 149.744Z" fill="black" stroke="black"/>
<path d="M263.78 162.136C263.945 162.136 264.109 162.169 264.261 162.232C264.413 162.295 264.552 162.387 264.668 162.503C264.785 162.62 264.878 162.759 264.941 162.911C265.004 163.064 265.037 163.227 265.037 163.392C265.037 163.641 264.964 163.884 264.826 164.091C264.688 164.298 264.491 164.459 264.261 164.554C264.032 164.649 263.779 164.675 263.536 164.626C263.292 164.578 263.067 164.458 262.891 164.282C262.715 164.107 262.596 163.883 262.547 163.639C262.499 163.395 262.524 163.142 262.619 162.912C262.714 162.683 262.875 162.486 263.082 162.348C263.288 162.21 263.531 162.136 263.78 162.136Z" fill="black" stroke="black"/>
<path d="M276.171 162.136C276.504 162.136 276.824 162.269 277.059 162.504C277.295 162.74 277.427 163.059 277.427 163.392C277.427 163.641 277.354 163.884 277.216 164.091C277.078 164.298 276.881 164.459 276.651 164.554C276.422 164.649 276.169 164.675 275.925 164.626C275.681 164.578 275.457 164.457 275.281 164.282C275.105 164.106 274.986 163.882 274.937 163.638C274.889 163.394 274.913 163.141 275.009 162.911C275.104 162.682 275.266 162.486 275.473 162.348C275.628 162.245 275.803 162.177 275.985 162.15L276.171 162.136Z" fill="black" stroke="black"/>
<path d="M288.56 162.136C288.893 162.136 289.213 162.269 289.448 162.504C289.684 162.74 289.816 163.059 289.816 163.392C289.816 163.641 289.743 163.884 289.605 164.091C289.467 164.298 289.27 164.459 289.04 164.554C288.811 164.649 288.558 164.675 288.314 164.626C288.07 164.578 287.846 164.457 287.67 164.282C287.494 164.106 287.375 163.882 287.326 163.638C287.278 163.394 287.302 163.141 287.398 162.911C287.493 162.682 287.655 162.486 287.862 162.348C288.017 162.245 288.192 162.177 288.374 162.15L288.56 162.136Z" fill="black" stroke="black"/>
<path d="M300.95 162.136C301.283 162.136 301.603 162.269 301.839 162.504C302.074 162.74 302.206 163.059 302.206 163.392C302.206 163.64 302.133 163.884 301.995 164.09C301.857 164.297 301.66 164.457 301.43 164.552C301.201 164.647 300.948 164.673 300.705 164.624C300.461 164.576 300.238 164.456 300.062 164.281C299.887 164.105 299.767 163.881 299.718 163.637C299.67 163.393 299.695 163.141 299.79 162.911C299.885 162.682 300.046 162.486 300.253 162.348C300.459 162.21 300.702 162.136 300.95 162.136Z" fill="black" stroke="black"/>
<path d="M313.344 162.136C313.677 162.136 313.997 162.269 314.233 162.504C314.468 162.74 314.6 163.059 314.6 163.392C314.6 163.64 314.527 163.884 314.389 164.09C314.251 164.297 314.054 164.457 313.824 164.552C313.595 164.647 313.342 164.673 313.099 164.624C312.855 164.576 312.632 164.456 312.456 164.281C312.281 164.105 312.161 163.881 312.112 163.637C312.064 163.393 312.089 163.141 312.184 162.911C312.279 162.682 312.44 162.486 312.647 162.348C312.853 162.21 313.096 162.136 313.344 162.136Z" fill="black" stroke="black"/>
<path d="M263.78 174.526C263.945 174.526 264.109 174.559 264.261 174.622C264.414 174.685 264.553 174.777 264.669 174.894C264.786 175.011 264.879 175.149 264.942 175.301C265.005 175.454 265.037 175.618 265.037 175.783L265.023 175.968C264.996 176.151 264.928 176.326 264.825 176.481C264.687 176.688 264.491 176.849 264.261 176.944C264.032 177.039 263.779 177.065 263.535 177.016C263.291 176.968 263.067 176.847 262.891 176.672C262.715 176.496 262.596 176.272 262.547 176.028C262.499 175.784 262.524 175.532 262.619 175.302C262.714 175.073 262.875 174.876 263.082 174.738C263.288 174.6 263.531 174.526 263.78 174.526Z" fill="black" stroke="black"/>
<path d="M276.171 174.526C276.336 174.526 276.5 174.559 276.652 174.622C276.805 174.685 276.943 174.778 277.059 174.894C277.176 175.011 277.269 175.149 277.332 175.301C277.395 175.454 277.427 175.618 277.427 175.783L277.413 175.968C277.386 176.151 277.318 176.326 277.215 176.481C277.077 176.688 276.881 176.849 276.651 176.944C276.422 177.039 276.168 177.065 275.925 177.016C275.681 176.968 275.457 176.847 275.281 176.672C275.105 176.496 274.986 176.272 274.937 176.028C274.889 175.784 274.913 175.531 275.009 175.301C275.104 175.072 275.266 174.876 275.473 174.738C275.628 174.634 275.803 174.567 275.986 174.54L276.171 174.526Z" fill="black" stroke="black"/>
<path d="M288.56 174.526C288.725 174.526 288.889 174.559 289.041 174.622C289.194 174.685 289.332 174.778 289.448 174.894C289.565 175.011 289.658 175.149 289.721 175.301C289.784 175.454 289.816 175.618 289.816 175.783L289.802 175.968C289.775 176.151 289.707 176.326 289.604 176.481C289.466 176.688 289.27 176.849 289.04 176.944C288.811 177.039 288.557 177.065 288.314 177.016C288.07 176.968 287.846 176.847 287.67 176.672C287.494 176.496 287.375 176.272 287.326 176.028C287.278 175.784 287.302 175.531 287.398 175.301C287.493 175.072 287.655 174.876 287.862 174.738C288.017 174.634 288.192 174.567 288.375 174.54L288.56 174.526Z" fill="black" stroke="black"/>
<path d="M300.95 174.526C301.115 174.526 301.279 174.559 301.431 174.622C301.584 174.685 301.722 174.778 301.839 174.894C301.955 175.011 302.048 175.149 302.111 175.301C302.174 175.454 302.206 175.618 302.206 175.783C302.206 176.031 302.132 176.274 301.994 176.48C301.856 176.687 301.66 176.848 301.43 176.943C301.201 177.038 300.948 177.062 300.705 177.013C300.461 176.965 300.237 176.845 300.061 176.67C299.886 176.494 299.767 176.27 299.718 176.027C299.67 175.783 299.695 175.531 299.79 175.301C299.885 175.072 300.046 174.876 300.253 174.738C300.459 174.6 300.702 174.526 300.95 174.526Z" fill="black" stroke="black"/>
<path d="M313.344 174.526C313.509 174.526 313.673 174.559 313.825 174.622C313.978 174.685 314.116 174.778 314.233 174.894C314.349 175.011 314.442 175.149 314.505 175.301C314.568 175.454 314.6 175.618 314.6 175.783C314.6 176.031 314.526 176.274 314.388 176.48C314.25 176.687 314.054 176.848 313.824 176.943C313.595 177.038 313.342 177.062 313.099 177.013C312.855 176.965 312.631 176.845 312.455 176.67C312.28 176.494 312.161 176.27 312.112 176.027C312.064 175.783 312.089 175.531 312.184 175.301C312.279 175.072 312.44 174.876 312.647 174.738C312.853 174.6 313.096 174.526 313.344 174.526Z" fill="black" stroke="black"/>
</g>
</g>
</g>
<defs>
<clipPath id="clip0_1836_63">
<rect width="378.452" height="223.948" fill="white"/>
</clipPath>
</defs>
</svg>
