<?xml version="1.0" encoding="UTF-8" standalone="no"?>
<svg
   width="582.99164"
   height="633.55084"
   viewBox="0 0 582.99164 633.55084"
   fill="none"
   version="1.1"
   id="svg45"
   sodipodi:docname="Group 582 (1).svg"
   inkscape:version="1.3.2 (091e20e, 2023-11-25)"
   xmlns:inkscape="http://www.inkscape.org/namespaces/inkscape"
   xmlns:sodipodi="http://sodipodi.sourceforge.net/DTD/sodipodi-0.dtd"
   xmlns="http://www.w3.org/2000/svg"
   xmlns:svg="http://www.w3.org/2000/svg">
  <sodipodi:namedview
     id="namedview45"
     pagecolor="#ffffff"
     bordercolor="#000000"
     borderopacity="0.25"
     inkscape:showpageshadow="2"
     inkscape:pageopacity="0.0"
     inkscape:pagecheckerboard="0"
     inkscape:deskcolor="#d1d1d1"
     inkscape:zoom="0.27283237"
     inkscape:cx="287.72246"
     inkscape:cy="329.87288"
     inkscape:window-width="1312"
     inkscape:window-height="449"
     inkscape:window-x="0"
     inkscape:window-y="492"
     inkscape:window-maximized="0"
     inkscape:current-layer="svg45" />
  <path
     d="m 1.5809369,552.65061 c 0,0 171.0610031,-139.641 172.3880031,-149.81 1.326,-10.169 22.991,-162.69 25.644,-181.277 2.652,-18.587 -11.496,-132.642 -2.653,-152.98 8.843,-20.338 35.746,-18.933 36.255,0.884 1.311,51.021 2.211,130.431 13.264,133.526 11.054,3.095 20.316,-0.18 28.297,-10.611 7.981,-10.431 58.858,-151.601 70.742,-176.856 11.885,-25.2545002 35.622,-8.5920002 32.719,6.19 -2.904,14.782 -49.55,155.603 -49.52,168.013 0,0 -1.326,19.012 15.033,2.653 16.359,-16.359 90.196,-143.253 106.997,-163.591 16.802,-20.3390002 35.814,-6.632 30.066,8.842 -5.748,15.475 -84.891,157.402 -93.734,173.319 -8.842,15.917 3.537,22.107 15.033,15.032 11.496,-7.074 97.271,-107.881 127.336,-127.336 30.065,-19.454 53.499,7.517 28.297,37.14 -25.202,29.623 -107.882,111.419 -135.295,147.674 -27.412,36.256 -6.632,83.102 14.149,91.502 20.78,8.401 55.267,-7.516 84.89,-8.843 29.624,-1.326 51.288,-1.768 58.363,19.455 7.074,21.222 -41.651,27.072 -71.627,36.255 -19.816,6.071 -40.234,11.979 -52.172,13.727 -11.938,1.748 -99.332,30.719 -122.766,32.046 -23.433,1.326 -20.487,-1.096 -32.867,1.556 -12.38,2.653 -199.339,162.49 -199.339,162.49"
     stroke="#000000"
     stroke-width="5"
     id="path1" />
  <g
     clip-path="url(#clip0_744_226)"
     id="g45"
     transform="translate(-144.41906,-101.84939)">
    <mask
       id="mask0_744_226"
       maskUnits="userSpaceOnUse"
       x="178"
       y="496"
       width="230"
       height="231">
      <path
         d="M 407.725,624.005 280.598,496.878 178.305,599.17 305.432,726.298 Z"
         fill="#ffffff"
         id="path2" />
    </mask>
    <g
       mask="url(#mask0_744_226)"
       id="g44">
      <path
         d="M 396.385,615.621 288.981,508.217 c -2.224,-2.223 -5.239,-3.471 -8.383,-3.471 -3.144,0 -6.159,1.248 -8.383,3.471 l -82.569,82.57 c -2.224,2.223 -3.473,5.239 -3.473,8.383 0,3.144 1.249,6.16 3.472,8.383 l 3.656,3.656 c 1.147,-0.25 2.339,-0.207 3.466,0.124 1.127,0.331 2.153,0.94 2.983,1.77 0.831,0.831 1.439,1.856 1.77,2.983 0.331,1.127 0.374,2.319 0.125,3.467 l 14.593,14.593 c 1.148,-0.249 2.34,-0.207 3.466,0.124 1.127,0.331 2.153,0.94 2.983,1.77 0.831,0.831 1.44,1.857 1.771,2.983 0.331,1.127 0.373,2.319 0.124,3.467 l 14.592,14.593 c 1.148,-0.25 2.34,-0.207 3.467,0.124 1.127,0.331 2.152,0.939 2.983,1.77 0.83,0.83 1.439,1.856 1.77,2.983 0.331,1.127 0.374,2.319 0.124,3.466 l 14.594,14.594 c 1.148,-0.249 2.34,-0.207 3.467,0.124 1.127,0.331 2.153,0.939 2.983,1.77 0.831,0.831 1.44,1.856 1.77,2.983 0.331,1.127 0.374,2.319 0.124,3.467 l 14.592,14.592 c 1.148,-0.25 2.34,-0.207 3.467,0.124 1.127,0.331 2.153,0.939 2.983,1.77 0.831,0.83 1.439,1.856 1.77,2.983 0.331,1.127 0.373,2.319 0.124,3.467 l 3.655,3.656 c 1.101,1.101 2.408,1.974 3.847,2.57 1.438,0.595 2.98,0.902 4.537,0.902 1.557,0 3.098,-0.307 4.537,-0.903 1.438,-0.596 2.745,-1.469 3.846,-2.57 l 82.569,-82.57 c 2.223,-2.223 3.472,-5.238 3.473,-8.381 0,-3.144 -1.249,-6.159 -3.471,-8.383 z"
         fill="#ffffff"
         id="path3" />
      <path
         d="M 396.385,615.621 288.981,508.217 c -2.224,-2.223 -5.239,-3.471 -8.383,-3.471 -3.144,0 -6.159,1.248 -8.383,3.471 l -82.569,82.57 c -2.224,2.223 -3.473,5.239 -3.473,8.383 0,3.144 1.249,6.16 3.472,8.383 l 3.656,3.656 c 1.147,-0.25 2.339,-0.207 3.466,0.124 1.127,0.331 2.153,0.94 2.983,1.77 0.831,0.831 1.439,1.856 1.77,2.983 0.331,1.127 0.374,2.319 0.125,3.467 l 14.593,14.593 c 1.148,-0.249 2.34,-0.207 3.466,0.124 1.127,0.331 2.153,0.94 2.983,1.77 0.831,0.831 1.44,1.857 1.771,2.983 0.331,1.127 0.373,2.319 0.124,3.467 l 14.592,14.593 c 1.148,-0.25 2.34,-0.207 3.467,0.124 1.127,0.331 2.152,0.939 2.983,1.77 0.83,0.83 1.439,1.856 1.77,2.983 0.331,1.127 0.374,2.319 0.124,3.466 l 14.594,14.594 c 1.148,-0.249 2.34,-0.207 3.467,0.124 1.127,0.331 2.153,0.939 2.983,1.77 0.831,0.831 1.44,1.856 1.77,2.983 0.331,1.127 0.374,2.319 0.124,3.467 l 14.592,14.592 c 1.148,-0.25 2.34,-0.207 3.467,0.124 1.127,0.331 2.153,0.939 2.983,1.77 0.831,0.83 1.439,1.856 1.77,2.983 0.331,1.127 0.373,2.319 0.124,3.467 l 3.655,3.656 c 1.101,1.101 2.408,1.974 3.847,2.57 1.438,0.595 2.98,0.902 4.537,0.902 1.557,0 3.098,-0.307 4.537,-0.903 1.438,-0.596 2.745,-1.469 3.846,-2.57 l 82.569,-82.57 c 2.223,-2.223 3.472,-5.238 3.473,-8.381 0,-3.144 -1.249,-6.159 -3.471,-8.383 z"
         stroke="#000000"
         stroke-width="4"
         stroke-linecap="round"
         stroke-linejoin="round"
         id="path4" />
      <path
         d="m 309.898,696.386 c -0.983,0.983 -2.234,1.653 -3.597,1.924 -1.363,0.271 -2.775,0.133 -4.059,-0.399 -1.284,-0.531 -2.382,-1.432 -3.154,-2.587 -0.772,-1.155 -1.184,-2.514 -1.184,-3.903 0,-1.39 0.412,-2.748 1.184,-3.903 0.772,-1.156 1.869,-2.056 3.153,-2.588 1.284,-0.532 2.696,-0.671 4.059,-0.4 1.363,0.272 2.615,0.941 3.597,1.924 1.317,1.317 2.057,3.103 2.057,4.966 0,1.863 -0.739,3.649 -2.056,4.966 z"
         stroke="#000000"
         stroke-width="1.51"
         stroke-linecap="round"
         stroke-linejoin="round"
         id="path5" />
      <path
         d="m 286.961,673.449 c -0.983,0.983 -2.234,1.652 -3.597,1.924 -1.363,0.271 -2.776,0.132 -4.059,-0.399 -1.284,-0.532 -2.382,-1.432 -3.154,-2.587 -0.772,-1.155 -1.184,-2.514 -1.184,-3.903 0,-1.39 0.412,-2.748 1.184,-3.904 0.772,-1.155 1.869,-2.055 3.153,-2.587 1.283,-0.532 2.696,-0.671 4.059,-0.4 1.363,0.272 2.614,0.941 3.597,1.923 1.317,1.318 2.057,3.104 2.057,4.967 0,1.862 -0.739,3.649 -2.056,4.966 z"
         stroke="#000000"
         stroke-width="1.51"
         stroke-linecap="round"
         stroke-linejoin="round"
         id="path6" />
      <path
         d="m 264.023,650.512 c -0.982,0.983 -2.233,1.652 -3.596,1.923 -1.362,0.271 -2.775,0.132 -4.058,-0.399 -1.284,-0.532 -2.381,-1.432 -3.153,-2.587 -0.772,-1.156 -1.184,-2.514 -1.184,-3.903 0,-1.389 0.412,-2.747 1.184,-3.902 0.772,-1.156 1.869,-2.056 3.153,-2.587 1.283,-0.532 2.696,-0.671 4.058,-0.4 1.363,0.271 2.614,0.941 3.596,1.923 1.318,1.317 2.057,3.103 2.057,4.966 0,1.863 -0.739,3.649 -2.057,4.966 z"
         stroke="#000000"
         stroke-width="1.51"
         stroke-linecap="round"
         stroke-linejoin="round"
         id="path7" />
      <path
         d="m 241.087,627.576 c -0.982,0.982 -2.234,1.651 -3.596,1.922 -1.363,0.272 -2.775,0.133 -4.058,-0.399 -1.284,-0.531 -2.381,-1.431 -3.153,-2.586 -0.772,-1.155 -1.184,-2.513 -1.184,-3.902 -0.001,-1.39 0.411,-2.748 1.183,-3.903 0.771,-1.155 1.868,-2.055 3.152,-2.587 1.283,-0.532 2.695,-0.671 4.058,-0.401 1.363,0.271 2.614,0.94 3.597,1.922 1.317,1.317 2.057,3.104 2.057,4.967 0,1.862 -0.739,3.649 -2.056,4.967 z"
         stroke="#000000"
         stroke-width="1.51"
         stroke-linecap="round"
         stroke-linejoin="round"
         id="path8" />
      <path
         d="m 218.15,604.639 c -0.982,0.982 -2.234,1.651 -3.596,1.922 -1.363,0.272 -2.775,0.133 -4.059,-0.399 -1.283,-0.531 -2.38,-1.432 -3.152,-2.587 -0.772,-1.155 -1.184,-2.513 -1.185,-3.902 0,-1.389 0.412,-2.747 1.184,-3.903 0.772,-1.155 1.869,-2.055 3.152,-2.587 1.284,-0.531 2.696,-0.671 4.059,-0.4 1.362,0.271 2.614,0.94 3.596,1.923 1.317,1.317 2.057,3.103 2.057,4.966 0.001,1.863 -0.739,3.649 -2.056,4.967 z"
         stroke="#000000"
         stroke-width="1.51"
         stroke-linecap="round"
         stroke-linejoin="round"
         id="path9" />
      <path
         d="m 314.106,534.487 -66.632,-0.22 26.752,-26.752 c 1.712,-1.711 4.034,-2.672 6.456,-2.672 2.421,0 4.743,0.962 6.455,2.674 z"
         fill="#000000"
         id="path10" />
      <path
         d="m 329.931,550.434 -33.577,-0.202 16.811,-16.686 z"
         fill="#000000"
         id="path11" />
      <path
         d="m 337.317,557.756 -16.767,0.003 8.446,-8.382 z"
         fill="#000000"
         id="path12" />
      <path
         d="m 330.217,583.306 c 0.241,0.232 0.546,0.388 0.875,0.448 0.33,0.06 0.669,0.021 0.977,-0.111 0.308,-0.133 0.569,-0.353 0.752,-0.634 0.183,-0.28 0.278,-0.609 0.275,-0.944 -0.003,-0.334 -0.105,-0.661 -0.293,-0.938 -0.188,-0.277 -0.453,-0.493 -0.763,-0.619 -0.31,-0.127 -0.651,-0.159 -0.979,-0.093 -0.328,0.066 -0.63,0.227 -0.866,0.464 -0.319,0.325 -0.496,0.763 -0.491,1.218 0.004,0.455 0.189,0.89 0.513,1.209 z"
         fill="#000000"
         id="path13" />
      <path
         d="m 323.626,571.847 c -0.241,-0.232 -0.545,-0.388 -0.875,-0.448 -0.329,-0.06 -0.669,-0.021 -0.977,0.111 -0.307,0.133 -0.569,0.353 -0.751,0.634 -0.183,0.28 -0.279,0.609 -0.276,0.943 0.003,0.335 0.105,0.662 0.293,0.939 0.188,0.277 0.454,0.492 0.764,0.619 0.31,0.127 0.65,0.159 0.978,0.093 0.329,-0.066 0.63,-0.227 0.867,-0.464 0.317,-0.325 0.493,-0.763 0.489,-1.218 -0.004,-0.455 -0.188,-0.889 -0.512,-1.209 z"
         fill="#000000"
         id="path14" />
      <path
         d="m 325.999,569.49 c -0.461,-0.492 -1.017,-0.886 -1.633,-1.16 -0.617,-0.273 -1.282,-0.42 -1.956,-0.432 -0.674,-0.012 -1.344,0.111 -1.97,0.363 -0.625,0.251 -1.195,0.625 -1.673,1.1 -0.479,0.476 -0.857,1.042 -1.113,1.666 -0.256,0.623 -0.385,1.292 -0.378,1.967 0.007,0.674 0.149,1.34 0.418,1.959 0.268,0.618 0.658,1.176 1.147,1.642 l 9.104,9.173 c 0.462,0.489 1.017,0.88 1.633,1.151 0.616,0.271 1.279,0.416 1.952,0.427 0.673,0.01 1.341,-0.114 1.965,-0.365 0.624,-0.251 1.191,-0.625 1.669,-1.099 0.477,-0.474 0.855,-1.038 1.111,-1.661 0.256,-0.622 0.385,-1.289 0.38,-1.961 -0.006,-0.673 -0.146,-1.338 -0.412,-1.956 -0.267,-0.618 -0.654,-1.176 -1.139,-1.642 z m -0.442,18.649 -9.101,-9.174 c -0.808,-0.777 -1.454,-1.707 -1.897,-2.736 -0.444,-1.03 -0.677,-2.138 -0.687,-3.259 -0.009,-1.121 0.206,-2.232 0.633,-3.269 0.427,-1.037 1.056,-1.978 1.852,-2.767 0.796,-0.79 1.741,-1.413 2.781,-1.831 1.04,-0.419 2.153,-0.626 3.274,-0.608 1.121,0.018 2.227,0.26 3.253,0.711 1.026,0.452 1.952,1.104 2.722,1.918 l 9.104,9.172 c 0.809,0.777 1.454,1.707 1.898,2.736 0.444,1.03 0.677,2.138 0.687,3.259 0.009,1.121 -0.206,2.232 -0.632,3.269 -0.427,1.037 -1.057,1.978 -1.852,2.768 -0.796,0.789 -1.741,1.412 -2.781,1.831 -1.04,0.419 -2.153,0.626 -3.274,0.608 -1.121,-0.018 -2.227,-0.259 -3.253,-0.711 -1.027,-0.451 -1.952,-1.103 -2.722,-1.918"
         fill="#000000"
         id="path15" />
      <path
         d="m 294.257,577.786 c -0.246,0.247 -0.559,0.415 -0.899,0.483 -0.341,0.069 -0.695,0.034 -1.016,-0.098 -0.322,-0.133 -0.597,-0.357 -0.79,-0.646 -0.194,-0.289 -0.297,-0.629 -0.298,-0.976 0,-0.348 0.103,-0.688 0.296,-0.977 0.193,-0.29 0.467,-0.515 0.788,-0.648 0.321,-0.134 0.675,-0.168 1.016,-0.101 0.341,0.068 0.654,0.235 0.9,0.481 0.163,0.163 0.292,0.357 0.381,0.57 0.088,0.213 0.134,0.441 0.134,0.672 0,0.231 -0.046,0.459 -0.134,0.672 -0.088,0.213 -0.217,0.407 -0.381,0.57"
         fill="#000000"
         id="path16" />
      <path
         d="m 303.018,586.547 c -0.246,0.247 -0.558,0.415 -0.899,0.483 -0.341,0.069 -0.694,0.035 -1.016,-0.098 -0.321,-0.132 -0.596,-0.357 -0.79,-0.646 -0.193,-0.288 -0.297,-0.628 -0.298,-0.975 0,-0.348 0.102,-0.688 0.295,-0.977 0.193,-0.29 0.467,-0.515 0.788,-0.649 0.321,-0.133 0.674,-0.168 1.015,-0.101 0.341,0.067 0.654,0.234 0.9,0.48 0.33,0.329 0.515,0.776 0.515,1.242 0,0.465 -0.185,0.912 -0.515,1.241"
         fill="#000000"
         id="path17" />
      <path
         d="m 311.778,595.308 c -0.245,0.246 -0.558,0.414 -0.899,0.483 -0.341,0.068 -0.695,0.034 -1.016,-0.099 -0.322,-0.132 -0.596,-0.357 -0.79,-0.646 -0.194,-0.289 -0.297,-0.629 -0.297,-0.977 -0.001,-0.347 0.102,-0.687 0.295,-0.976 0.193,-0.29 0.468,-0.515 0.789,-0.648 0.321,-0.133 0.675,-0.168 1.016,-0.1 0.341,0.068 0.654,0.235 0.9,0.481 0.329,0.33 0.514,0.776 0.514,1.242 0,0.466 -0.185,0.912 -0.514,1.242"
         fill="#000000"
         id="path18" />
      <path
         d="m 320.539,604.069 c -0.246,0.245 -0.558,0.412 -0.899,0.48 -0.341,0.068 -0.694,0.033 -1.015,-0.1 -0.321,-0.133 -0.595,-0.358 -0.788,-0.647 -0.193,-0.288 -0.296,-0.628 -0.296,-0.975 0,-0.347 0.103,-0.687 0.296,-0.976 0.193,-0.288 0.467,-0.514 0.788,-0.646 0.321,-0.133 0.674,-0.168 1.015,-0.1 0.341,0.067 0.653,0.235 0.899,0.48 0.329,0.33 0.514,0.776 0.514,1.242 0,0.466 -0.185,0.912 -0.514,1.242 z"
         fill="#000000"
         id="path19" />
      <path
         d="m 329.3,612.83 c -0.246,0.245 -0.558,0.412 -0.899,0.48 -0.341,0.068 -0.694,0.033 -1.015,-0.1 -0.32,-0.133 -0.595,-0.358 -0.788,-0.646 -0.193,-0.289 -0.296,-0.629 -0.296,-0.976 0,-0.347 0.103,-0.687 0.296,-0.976 0.193,-0.288 0.468,-0.513 0.788,-0.646 0.321,-0.133 0.674,-0.168 1.015,-0.1 0.341,0.067 0.653,0.235 0.899,0.48 0.329,0.33 0.514,0.776 0.514,1.242 0,0.466 -0.185,0.912 -0.514,1.242 z"
         fill="#000000"
         id="path20" />
      <path
         d="m 285.495,586.547 c -0.245,0.246 -0.558,0.414 -0.899,0.482 -0.341,0.068 -0.694,0.033 -1.015,-0.1 -0.321,-0.133 -0.596,-0.358 -0.789,-0.647 -0.193,-0.289 -0.297,-0.628 -0.297,-0.976 0,-0.348 0.103,-0.687 0.296,-0.976 0.193,-0.289 0.468,-0.515 0.789,-0.648 0.321,-0.133 0.674,-0.168 1.015,-0.1 0.341,0.068 0.654,0.235 0.9,0.481 0.163,0.163 0.292,0.357 0.381,0.57 0.088,0.213 0.134,0.441 0.134,0.672 0,0.231 -0.046,0.459 -0.134,0.672 -0.088,0.213 -0.217,0.407 -0.381,0.57 z"
         fill="#000000"
         id="path21" />
      <path
         d="m 294.257,595.308 c -0.246,0.246 -0.559,0.414 -0.9,0.482 -0.34,0.068 -0.694,0.033 -1.015,-0.1 -0.321,-0.132 -0.595,-0.357 -0.789,-0.646 -0.193,-0.289 -0.296,-0.628 -0.297,-0.976 0,-0.347 0.103,-0.687 0.296,-0.976 0.192,-0.289 0.467,-0.515 0.787,-0.648 0.321,-0.133 0.675,-0.168 1.015,-0.101 0.341,0.067 0.654,0.234 0.9,0.48 0.33,0.329 0.515,0.776 0.515,1.241 0,0.466 -0.185,0.913 -0.515,1.242"
         fill="#000000"
         id="path22" />
      <path
         d="m 303.017,604.069 c -0.246,0.246 -0.559,0.413 -0.9,0.481 -0.341,0.068 -0.694,0.033 -1.015,-0.1 -0.321,-0.133 -0.596,-0.358 -0.789,-0.647 -0.193,-0.289 -0.296,-0.629 -0.296,-0.976 0,-0.348 0.103,-0.687 0.296,-0.976 0.193,-0.289 0.468,-0.515 0.789,-0.648 0.321,-0.132 0.674,-0.167 1.015,-0.099 0.341,0.068 0.654,0.235 0.9,0.481 0.329,0.33 0.514,0.776 0.514,1.242 0,0.466 -0.185,0.912 -0.514,1.242 z"
         fill="#000000"
         id="path23" />
      <path
         d="m 311.778,612.83 c -0.246,0.245 -0.559,0.412 -0.899,0.48 -0.341,0.068 -0.694,0.033 -1.015,-0.1 -0.321,-0.133 -0.595,-0.358 -0.788,-0.646 -0.193,-0.289 -0.296,-0.629 -0.296,-0.976 0,-0.347 0.103,-0.687 0.296,-0.976 0.193,-0.288 0.467,-0.513 0.788,-0.646 0.321,-0.133 0.674,-0.168 1.015,-0.1 0.34,0.067 0.653,0.235 0.899,0.48 0.329,0.33 0.514,0.776 0.514,1.242 0,0.466 -0.185,0.912 -0.514,1.242 z"
         fill="#000000"
         id="path24" />
      <path
         d="m 320.539,621.591 c -0.246,0.245 -0.558,0.413 -0.899,0.48 -0.341,0.068 -0.694,0.033 -1.015,-0.1 -0.321,-0.133 -0.595,-0.358 -0.788,-0.646 -0.193,-0.289 -0.296,-0.629 -0.296,-0.976 0,-0.347 0.103,-0.687 0.296,-0.976 0.193,-0.288 0.467,-0.513 0.788,-0.646 0.321,-0.133 0.674,-0.168 1.015,-0.1 0.341,0.068 0.653,0.235 0.899,0.48 0.329,0.33 0.514,0.776 0.514,1.242 0,0.466 -0.185,0.912 -0.514,1.242 z"
         fill="#000000"
         id="path25" />
      <path
         d="m 276.735,595.308 c -0.245,0.245 -0.558,0.413 -0.899,0.481 -0.341,0.068 -0.694,0.033 -1.016,-0.1 -0.321,-0.132 -0.595,-0.358 -0.788,-0.646 -0.194,-0.289 -0.297,-0.629 -0.297,-0.977 0,-0.347 0.103,-0.687 0.296,-0.976 0.193,-0.289 0.467,-0.514 0.788,-0.647 0.322,-0.133 0.675,-0.168 1.016,-0.1 0.341,0.067 0.654,0.235 0.899,0.48 0.33,0.33 0.515,0.777 0.515,1.242 0,0.466 -0.185,0.913 -0.514,1.243 z"
         fill="#000000"
         id="path26" />
      <path
         d="m 285.496,604.069 c -0.245,0.245 -0.558,0.413 -0.899,0.481 -0.341,0.068 -0.694,0.033 -1.015,-0.099 -0.321,-0.133 -0.596,-0.358 -0.789,-0.647 -0.193,-0.289 -0.297,-0.628 -0.297,-0.976 0,-0.347 0.103,-0.687 0.295,-0.976 0.193,-0.289 0.467,-0.514 0.788,-0.648 0.321,-0.133 0.674,-0.168 1.015,-0.101 0.341,0.068 0.654,0.235 0.9,0.48 0.329,0.33 0.514,0.776 0.514,1.242 0,0.465 -0.185,0.912 -0.514,1.241"
         fill="#000000"
         id="path27" />
      <path
         d="m 294.257,612.829 c -0.246,0.246 -0.559,0.413 -0.9,0.481 -0.341,0.068 -0.694,0.034 -1.015,-0.099 -0.322,-0.133 -0.596,-0.358 -0.789,-0.647 -0.193,-0.289 -0.297,-0.629 -0.297,-0.977 0,-0.347 0.104,-0.687 0.297,-0.976 0.193,-0.289 0.467,-0.514 0.789,-0.647 0.321,-0.133 0.674,-0.168 1.015,-0.1 0.341,0.068 0.654,0.236 0.9,0.482 0.329,0.329 0.513,0.776 0.513,1.241 0,0.466 -0.184,0.912 -0.513,1.242 z"
         fill="#000000"
         id="path28" />
      <path
         d="m 303.018,621.59 c -0.246,0.246 -0.559,0.413 -0.9,0.481 -0.34,0.067 -0.693,0.033 -1.014,-0.1 -0.321,-0.133 -0.595,-0.358 -0.788,-0.647 -0.193,-0.289 -0.296,-0.628 -0.296,-0.976 0,-0.347 0.103,-0.686 0.296,-0.975 0.193,-0.289 0.467,-0.514 0.788,-0.647 0.321,-0.133 0.674,-0.168 1.014,-0.1 0.341,0.068 0.654,0.235 0.9,0.481 0.329,0.329 0.513,0.776 0.513,1.241 0,0.466 -0.184,0.913 -0.513,1.242 z"
         fill="#000000"
         id="path29" />
      <path
         d="m 311.779,630.351 c -0.246,0.246 -0.559,0.413 -0.899,0.481 -0.341,0.067 -0.694,0.033 -1.015,-0.1 -0.321,-0.133 -0.595,-0.358 -0.788,-0.647 -0.193,-0.289 -0.296,-0.628 -0.296,-0.976 0,-0.347 0.103,-0.686 0.296,-0.975 0.193,-0.289 0.467,-0.514 0.788,-0.647 0.321,-0.133 0.674,-0.168 1.015,-0.1 0.34,0.068 0.653,0.235 0.899,0.481 0.329,0.329 0.514,0.776 0.514,1.241 0,0.466 -0.185,0.913 -0.514,1.242 z"
         fill="#000000"
         id="path30" />
      <path
         d="m 267.974,604.069 c -0.246,0.245 -0.559,0.413 -0.899,0.481 -0.341,0.068 -0.695,0.033 -1.016,-0.1 -0.321,-0.132 -0.595,-0.358 -0.789,-0.646 -0.193,-0.289 -0.296,-0.629 -0.296,-0.977 0,-0.347 0.103,-0.687 0.296,-0.976 0.193,-0.289 0.467,-0.514 0.788,-0.647 0.321,-0.133 0.675,-0.168 1.016,-0.1 0.341,0.067 0.654,0.235 0.899,0.481 0.164,0.163 0.293,0.356 0.381,0.569 0.089,0.213 0.134,0.442 0.134,0.672 0,0.231 -0.045,0.46 -0.133,0.673 -0.088,0.213 -0.218,0.406 -0.381,0.57 z"
         fill="#000000"
         id="path31" />
      <path
         d="m 276.735,612.83 c -0.245,0.245 -0.558,0.413 -0.899,0.481 -0.341,0.068 -0.694,0.033 -1.015,-0.099 -0.321,-0.133 -0.596,-0.358 -0.789,-0.647 -0.193,-0.289 -0.297,-0.628 -0.297,-0.976 0,-0.347 0.102,-0.687 0.295,-0.976 0.193,-0.289 0.467,-0.514 0.788,-0.648 0.321,-0.133 0.674,-0.168 1.015,-0.101 0.341,0.068 0.654,0.235 0.9,0.48 0.329,0.329 0.514,0.776 0.514,1.242 0,0.466 -0.185,0.912 -0.514,1.242"
         fill="#000000"
         id="path32" />
      <path
         d="m 294.257,630.351 c -0.246,0.246 -0.559,0.413 -0.9,0.481 -0.34,0.067 -0.693,0.033 -1.014,-0.1 -0.321,-0.133 -0.595,-0.358 -0.788,-0.647 -0.193,-0.289 -0.296,-0.628 -0.296,-0.976 0,-0.347 0.103,-0.686 0.296,-0.975 0.193,-0.289 0.467,-0.514 0.788,-0.647 0.321,-0.133 0.674,-0.168 1.014,-0.1 0.341,0.068 0.654,0.235 0.9,0.481 0.329,0.329 0.514,0.776 0.514,1.241 0,0.466 -0.185,0.913 -0.514,1.242 z"
         fill="#000000"
         id="path33" />
      <path
         d="m 303.018,639.112 c -0.246,0.246 -0.559,0.413 -0.9,0.481 -0.34,0.067 -0.693,0.033 -1.014,-0.1 -0.321,-0.133 -0.595,-0.358 -0.788,-0.647 -0.193,-0.289 -0.296,-0.628 -0.296,-0.976 0,-0.347 0.103,-0.686 0.296,-0.975 0.193,-0.289 0.467,-0.514 0.788,-0.647 0.321,-0.133 0.674,-0.168 1.014,-0.1 0.341,0.068 0.654,0.235 0.9,0.481 0.329,0.329 0.514,0.776 0.514,1.241 0,0.466 -0.185,0.913 -0.514,1.242 z"
         fill="#000000"
         id="path34" />
      <path
         d="m 259.213,612.83 c -0.246,0.245 -0.559,0.413 -0.9,0.48 -0.34,0.068 -0.694,0.034 -1.015,-0.099 -0.321,-0.133 -0.595,-0.359 -0.788,-0.648 -0.193,-0.289 -0.296,-0.628 -0.296,-0.976 0,-0.347 0.103,-0.687 0.296,-0.976 0.193,-0.289 0.467,-0.514 0.788,-0.647 0.321,-0.133 0.675,-0.168 1.015,-0.1 0.341,0.068 0.654,0.235 0.9,0.481 0.163,0.163 0.293,0.357 0.381,0.57 0.089,0.213 0.134,0.441 0.134,0.672 0,0.231 -0.045,0.46 -0.134,0.673 -0.088,0.213 -0.218,0.407 -0.381,0.57 z"
         fill="#000000"
         id="path35" />
      <path
         d="m 267.974,621.591 c -0.246,0.245 -0.559,0.413 -0.899,0.481 -0.341,0.067 -0.694,0.033 -1.015,-0.1 -0.321,-0.133 -0.596,-0.358 -0.789,-0.647 -0.193,-0.289 -0.296,-0.628 -0.296,-0.976 -0.001,-0.347 0.102,-0.687 0.295,-0.976 0.193,-0.289 0.467,-0.514 0.788,-0.647 0.321,-0.134 0.674,-0.169 1.015,-0.101 0.341,0.067 0.654,0.234 0.9,0.48 0.163,0.163 0.292,0.356 0.38,0.569 0.089,0.214 0.134,0.442 0.134,0.673 0,0.23 -0.046,0.459 -0.134,0.672 -0.088,0.213 -0.218,0.407 -0.381,0.57"
         fill="#000000"
         id="path36" />
      <path
         d="m 276.734,630.351 c -0.245,0.246 -0.558,0.413 -0.899,0.481 -0.341,0.068 -0.694,0.033 -1.016,-0.1 -0.321,-0.133 -0.595,-0.358 -0.788,-0.648 -0.193,-0.289 -0.296,-0.628 -0.296,-0.976 0,-0.347 0.103,-0.687 0.297,-0.976 0.193,-0.289 0.467,-0.514 0.788,-0.647 0.322,-0.133 0.675,-0.167 1.016,-0.099 0.341,0.068 0.654,0.235 0.899,0.481 0.163,0.163 0.293,0.357 0.381,0.57 0.088,0.213 0.134,0.441 0.133,0.672 0,0.231 -0.045,0.459 -0.133,0.672 -0.089,0.213 -0.218,0.407 -0.382,0.57 z"
         fill="#000000"
         id="path37" />
      <path
         d="m 285.495,639.112 c -0.245,0.246 -0.558,0.413 -0.899,0.48 -0.34,0.068 -0.693,0.033 -1.014,-0.1 -0.321,-0.133 -0.595,-0.358 -0.788,-0.647 -0.193,-0.289 -0.296,-0.629 -0.295,-0.976 0,-0.347 0.103,-0.686 0.296,-0.975 0.193,-0.289 0.467,-0.514 0.788,-0.647 0.321,-0.133 0.674,-0.167 1.014,-0.1 0.341,0.068 0.654,0.235 0.899,0.481 0.163,0.163 0.293,0.357 0.381,0.57 0.088,0.213 0.134,0.442 0.134,0.672 -0.001,0.231 -0.046,0.459 -0.134,0.672 -0.089,0.213 -0.218,0.407 -0.382,0.57 z"
         fill="#000000"
         id="path38" />
      <path
         d="m 294.257,647.873 c -0.246,0.246 -0.559,0.413 -0.9,0.48 -0.34,0.068 -0.693,0.033 -1.014,-0.1 -0.321,-0.133 -0.595,-0.358 -0.788,-0.647 -0.193,-0.289 -0.296,-0.628 -0.295,-0.976 0,-0.347 0.103,-0.686 0.296,-0.975 0.193,-0.289 0.467,-0.514 0.788,-0.647 0.321,-0.133 0.674,-0.167 1.014,-0.099 0.341,0.067 0.654,0.235 0.899,0.48 0.163,0.163 0.293,0.357 0.381,0.57 0.088,0.213 0.134,0.442 0.134,0.672 -10e-4,0.231 -0.046,0.459 -0.134,0.672 -0.089,0.214 -0.218,0.407 -0.381,0.57 z"
         fill="#000000"
         id="path39" />
      <path
         d="m 285.495,621.59 c -0.245,0.246 -0.558,0.413 -0.899,0.481 -0.341,0.068 -0.694,0.034 -1.016,-0.099 -0.321,-0.133 -0.595,-0.358 -0.788,-0.647 -0.194,-0.289 -0.297,-0.629 -0.297,-0.977 0,-0.347 0.103,-0.687 0.297,-0.976 0.193,-0.289 0.467,-0.514 0.788,-0.647 0.322,-0.133 0.675,-0.168 1.016,-0.1 0.341,0.068 0.654,0.236 0.899,0.482 0.33,0.329 0.515,0.776 0.515,1.241 0,0.466 -0.185,0.913 -0.515,1.242 z"
         fill="#000000"
         id="path40" />
      <path
         d="m 337.401,670.874 -11.922,-11.923 c -0.394,-0.395 -0.615,-0.931 -0.616,-1.489 0,-0.559 0.221,-1.094 0.614,-1.49 l 11.924,-11.924 c 0.396,-0.393 0.932,-0.614 1.49,-0.614 0.559,0 1.094,0.221 1.49,0.615 l 11.923,11.923 c 0.391,0.396 0.61,0.931 0.609,1.488 -0.001,0.557 -0.221,1.091 -0.614,1.486 l -11.924,11.924 c -0.396,0.393 -0.931,0.614 -1.489,0.614 -0.558,-0.001 -1.094,-0.221 -1.49,-0.615"
         fill="#000000"
         id="path41" />
      <path
         d="m 245.651,579.124 -11.92,-11.92 c -0.394,-0.396 -0.615,-0.932 -0.615,-1.49 -0.001,-0.558 0.22,-1.094 0.614,-1.49 l 11.923,-11.923 c 0.396,-0.392 0.931,-0.611 1.489,-0.61 0.557,10e-4 1.091,0.222 1.486,0.615 l 11.921,11.921 c 0.392,0.395 0.613,0.929 0.614,1.486 10e-4,0.557 -0.219,1.092 -0.61,1.488 l -11.923,11.923 c -0.396,0.393 -0.931,0.614 -1.489,0.614 -0.558,0 -1.094,-0.221 -1.49,-0.614 z"
         fill="#000000"
         id="path42" />
      <path
         d="m 342.117,660.689 c -0.638,0.639 -1.452,1.074 -2.337,1.25 -0.886,0.176 -1.804,0.086 -2.638,-0.26 -0.834,-0.345 -1.547,-0.931 -2.049,-1.681 -0.501,-0.751 -0.769,-1.634 -0.769,-2.536 0,-0.903 0.268,-1.786 0.769,-2.537 0.502,-0.75 1.215,-1.335 2.049,-1.681 0.834,-0.346 1.752,-0.436 2.638,-0.26 0.885,0.176 1.699,0.611 2.337,1.25 0.856,0.856 1.337,2.017 1.337,3.228 0,1.21 -0.481,2.371 -1.337,3.227 z"
         fill="#ffffff"
         id="path43" />
      <path
         d="m 250.371,568.943 c -0.639,0.639 -1.452,1.074 -2.338,1.25 -0.886,0.177 -1.804,0.086 -2.639,-0.259 -0.834,-0.346 -1.547,-0.931 -2.049,-1.682 -0.502,-0.751 -0.77,-1.634 -0.77,-2.537 0,-0.903 0.268,-1.786 0.77,-2.537 0.502,-0.751 1.215,-1.336 2.049,-1.682 0.835,-0.345 1.753,-0.435 2.639,-0.259 0.886,0.176 1.699,0.611 2.338,1.25 0.856,0.856 1.337,2.017 1.337,3.228 0,1.211 -0.481,2.372 -1.337,3.228 z"
         fill="#ffffff"
         id="path44" />
    </g>
  </g>
  <defs
     id="defs45">
    <clipPath
       id="clip0_744_226">
      <rect
         width="179.785"
         height="144.664"
         fill="#ffffff"
         transform="rotate(45,-459.4858,587.15075)"
         id="rect45"
         x="0"
         y="0" />
    </clipPath>
  </defs>
</svg>
