<svg width="278" height="120" viewBox="0 0 278 120" fill="none" xmlns="http://www.w3.org/2000/svg">
<g clip-path="url(#clip0_749_28)">
<mask id="mask0_749_28" style="mask-type:luminance" maskUnits="userSpaceOnUse" x="191" y="32" width="87" height="70">
<path d="M277.424 32L191 32V101.541L277.424 101.541V32Z" fill="white"/>
</mask>
<g mask="url(#mask0_749_28)">
<path d="M270.72 33.0052L197.704 33.0052C196.193 33.0053 194.743 33.6057 193.674 34.6744C192.606 35.7431 192.005 37.1926 192.005 38.704V94.8368C192.005 96.3483 192.606 97.7978 193.674 98.8666C194.743 99.9354 196.192 100.536 197.704 100.536H200.189C200.495 100.061 200.914 99.6705 201.41 99.4C201.905 99.1295 202.461 98.9877 203.025 98.9877C203.59 98.9877 204.146 99.1295 204.641 99.4C205.137 99.6705 205.556 100.061 205.862 100.536H215.782C216.088 100.061 216.507 99.6705 217.003 99.4C217.498 99.1295 218.054 98.9877 218.619 98.9877C219.183 98.9877 219.739 99.1295 220.234 99.4C220.73 99.6705 221.149 100.061 221.455 100.536H231.375C231.68 100.061 232.1 99.6705 232.596 99.4C233.091 99.1295 233.647 98.9877 234.211 98.9877C234.776 98.9877 235.331 99.1295 235.827 99.4C236.323 99.6705 236.742 100.061 237.048 100.536H246.969C247.274 100.061 247.694 99.6703 248.189 99.3997C248.685 99.1291 249.24 98.9873 249.805 98.9873C250.37 98.9873 250.925 99.1291 251.421 99.3997C251.916 99.6703 252.336 100.061 252.641 100.536L262.561 100.536C262.866 100.061 263.286 99.6703 263.782 99.3997C264.277 99.1291 264.833 98.9873 265.397 98.9873C265.962 98.9873 266.518 99.1291 267.013 99.3997C267.509 99.6703 267.928 100.061 268.234 100.536H270.719C271.467 100.536 272.208 100.389 272.9 100.102C273.591 99.8158 274.219 99.396 274.749 98.8668C275.278 98.3376 275.698 97.7093 275.984 97.0178C276.27 96.3263 276.418 95.5852 276.418 94.8368V38.704C276.418 37.1927 275.817 35.7433 274.749 34.6746C273.68 33.6059 272.231 33.0054 270.72 33.0052Z" fill="white"/>
<path d="M270.72 33.0052L197.704 33.0052C196.193 33.0053 194.743 33.6057 193.674 34.6744C192.606 35.7431 192.005 37.1926 192.005 38.704V94.8368C192.005 96.3483 192.606 97.7978 193.674 98.8666C194.743 99.9354 196.192 100.536 197.704 100.536H200.189C200.495 100.061 200.914 99.6705 201.41 99.4C201.905 99.1295 202.461 98.9877 203.025 98.9877C203.59 98.9877 204.146 99.1295 204.641 99.4C205.137 99.6705 205.556 100.061 205.862 100.536H215.782C216.088 100.061 216.507 99.6705 217.003 99.4C217.498 99.1295 218.054 98.9877 218.619 98.9877C219.183 98.9877 219.739 99.1295 220.234 99.4C220.73 99.6705 221.149 100.061 221.455 100.536H231.375C231.68 100.061 232.1 99.6705 232.596 99.4C233.091 99.1295 233.647 98.9877 234.211 98.9877C234.776 98.9877 235.331 99.1295 235.827 99.4C236.323 99.6705 236.742 100.061 237.048 100.536H246.969C247.274 100.061 247.694 99.6703 248.189 99.3997C248.685 99.1291 249.24 98.9873 249.805 98.9873C250.37 98.9873 250.925 99.1291 251.421 99.3997C251.916 99.6703 252.336 100.061 252.641 100.536L262.561 100.536C262.866 100.061 263.286 99.6703 263.782 99.3997C264.277 99.1291 264.833 98.9873 265.397 98.9873C265.962 98.9873 266.518 99.1291 267.013 99.3997C267.509 99.6703 267.928 100.061 268.234 100.536H270.719C271.467 100.536 272.208 100.389 272.9 100.102C273.591 99.8158 274.219 99.396 274.749 98.8668C275.278 98.3376 275.698 97.7093 275.984 97.0178C276.27 96.3263 276.418 95.5852 276.418 94.8368V38.704C276.418 37.1927 275.817 35.7433 274.749 34.6746C273.68 33.6059 272.231 33.0054 270.72 33.0052Z" stroke="black" stroke-width="4" stroke-linecap="round" stroke-linejoin="round"/>
<path d="M268.775 89.8562C268.775 90.5241 268.577 91.1772 268.206 91.7326C267.835 92.2881 267.308 92.7211 266.691 92.9768C266.074 93.2326 265.395 93.2995 264.739 93.1693C264.084 93.0391 263.482 92.7175 263.01 92.2452C262.538 91.7729 262.216 91.1711 262.086 90.516C261.955 89.8609 262.022 89.1818 262.278 88.5647C262.534 87.9476 262.967 87.4202 263.522 87.0491C264.077 86.6781 264.73 86.4801 265.398 86.4802C266.294 86.4802 267.153 86.8358 267.786 87.4689C268.419 88.1021 268.775 88.9608 268.775 89.8562Z" stroke="black" stroke-width="1.51" stroke-linecap="round" stroke-linejoin="round"/>
<path d="M253.182 89.8562C253.182 90.5241 252.984 91.1772 252.613 91.7326C252.242 92.2881 251.715 92.7211 251.097 92.9768C250.48 93.2326 249.801 93.2995 249.146 93.1693C248.491 93.0391 247.889 92.7175 247.417 92.2452C246.945 91.7729 246.623 91.1711 246.493 90.516C246.362 89.8609 246.429 89.1818 246.685 88.5647C246.94 87.9476 247.373 87.4202 247.929 87.0491C248.484 86.6781 249.137 86.4801 249.805 86.4802C250.7 86.4802 251.559 86.8358 252.192 87.4689C252.826 88.1021 253.181 88.9608 253.182 89.8562Z" stroke="black" stroke-width="1.51" stroke-linecap="round" stroke-linejoin="round"/>
<path d="M237.588 89.8562C237.588 90.524 237.39 91.1769 237.019 91.7322C236.649 92.2876 236.121 92.7204 235.504 92.976C234.887 93.2317 234.208 93.2986 233.553 93.1683C232.898 93.038 232.297 92.7164 231.824 92.2442C231.352 91.772 231.03 91.1703 230.9 90.5153C230.77 89.8602 230.837 89.1813 231.092 88.5643C231.348 87.9473 231.781 87.42 232.336 87.049C232.892 86.678 233.544 86.4801 234.212 86.4802C235.108 86.4802 235.966 86.8359 236.6 87.469C237.233 88.1021 237.588 88.9608 237.588 89.8562Z" stroke="black" stroke-width="1.51" stroke-linecap="round" stroke-linejoin="round"/>
<path d="M221.996 89.8562C221.996 90.524 221.798 91.1768 221.427 91.7321C221.056 92.2875 220.529 92.7203 219.912 92.976C219.295 93.2316 218.616 93.2986 217.961 93.1684C217.306 93.0382 216.704 92.7167 216.232 92.2445C215.76 91.7724 215.438 91.1708 215.308 90.5159C215.177 89.8609 215.244 89.182 215.499 88.565C215.755 87.948 216.188 87.4206 216.743 87.0495C217.298 86.6784 217.951 86.4803 218.619 86.4802C219.514 86.4802 220.373 86.8358 221.006 87.4689C221.639 88.102 221.995 88.9607 221.996 89.8562Z" stroke="black" stroke-width="1.51" stroke-linecap="round" stroke-linejoin="round"/>
<path d="M206.402 89.8562C206.403 90.524 206.205 91.1769 205.834 91.7322C205.463 92.2875 204.935 92.7204 204.318 92.976C203.701 93.2316 203.022 93.2986 202.367 93.1683C201.712 93.0381 201.111 92.7166 200.639 92.2444C200.166 91.7722 199.845 91.1706 199.714 90.5156C199.584 89.8606 199.651 89.1816 199.906 88.5646C200.162 87.9476 200.595 87.4203 201.15 87.0492C201.705 86.6782 202.358 86.4802 203.026 86.4802C203.921 86.4802 204.78 86.8358 205.413 87.4689C206.046 88.1021 206.402 88.9608 206.402 89.8562Z" stroke="black" stroke-width="1.51" stroke-linecap="round" stroke-linejoin="round"/>
<path d="M215.174 33.394L192.45 55.9681V37.782C192.45 36.6181 192.913 35.502 193.736 34.6791C194.559 33.8563 195.675 33.394 196.839 33.394H215.174Z" fill="black"/>
<path d="M225.974 33.4354L214.491 44.7801L214.534 33.394L225.974 33.4354Z" fill="black"/>
<path d="M230.973 33.4138L225.275 39.1145L225.296 33.394L230.973 33.4138Z" fill="black"/>
<path d="M237.244 44.5119C237.405 44.5089 237.562 44.4584 237.694 44.3668C237.826 44.2751 237.929 44.1465 237.988 43.9969C238.048 43.8473 238.062 43.6835 238.028 43.526C237.995 43.3685 237.916 43.2244 237.801 43.1116C237.686 42.9989 237.541 42.9225 237.383 42.8922C237.225 42.8619 237.061 42.879 236.913 42.9413C236.764 43.0035 236.637 43.1083 236.548 43.2423C236.459 43.3763 236.412 43.5337 236.412 43.6947C236.414 43.9134 236.503 44.1224 236.659 44.2756C236.815 44.4288 237.025 44.5138 237.244 44.5119Z" fill="black"/>
<path d="M231.109 42.8573C230.948 42.8603 230.792 42.9108 230.659 43.0024C230.527 43.094 230.425 43.2227 230.365 43.3723C230.306 43.5218 230.292 43.6856 230.325 43.8431C230.358 44.0006 230.437 44.1448 230.552 44.2576C230.667 44.3703 230.812 44.4466 230.97 44.4769C231.129 44.5072 231.292 44.4902 231.441 44.4279C231.589 44.3656 231.716 44.2609 231.805 44.1269C231.894 43.9928 231.942 43.8355 231.942 43.6745C231.939 43.4559 231.85 43.2473 231.694 43.0942C231.538 42.941 231.328 42.8559 231.109 42.8573Z" fill="black"/>
<path d="M231.114 41.2493C230.79 41.239 230.467 41.2938 230.165 41.4105C229.863 41.5271 229.586 41.7032 229.353 41.9283C229.12 42.1534 228.934 42.423 228.807 42.7212C228.68 43.0193 228.614 43.34 228.612 43.6641C228.611 43.9883 228.675 44.3094 228.8 44.6085C228.925 44.9076 229.109 45.1786 229.34 45.4055C229.572 45.6324 229.846 45.8105 230.148 45.9294C230.45 46.0483 230.772 46.1056 231.096 46.0977L237.309 46.1213C237.632 46.1303 237.954 46.0746 238.255 45.9574C238.557 45.8402 238.831 45.6639 239.064 45.4388C239.296 45.2138 239.481 44.9446 239.608 44.647C239.734 44.3495 239.8 44.0296 239.801 43.7062C239.803 43.3828 239.739 43.0624 239.615 42.7639C239.49 42.4654 239.307 42.1948 239.077 41.9681C238.846 41.7413 238.573 41.5629 238.272 41.4434C237.972 41.324 237.65 41.2658 237.327 41.2724L231.114 41.2493ZM237.303 47.7389L231.091 47.7139C230.552 47.7248 230.017 47.6279 229.516 47.4288C229.015 47.2297 228.559 46.9324 228.175 46.5545C227.791 46.1766 227.486 45.7256 227.279 45.2282C227.072 44.7308 226.966 44.1969 226.968 43.658C226.97 43.1191 227.08 42.5861 227.291 42.0902C227.502 41.5944 227.81 41.1458 228.197 40.7708C228.584 40.3958 229.042 40.1021 229.545 39.9068C230.047 39.7115 230.583 39.6186 231.122 39.6337L237.334 39.6567C237.873 39.6457 238.409 39.7426 238.909 39.9416C239.41 40.1407 239.866 40.4379 240.25 40.8158C240.635 41.1936 240.939 41.6445 241.147 42.1419C241.354 42.6393 241.46 43.1732 241.458 43.7121C241.456 44.251 241.346 44.7841 241.135 45.28C240.924 45.7758 240.616 46.2245 240.229 46.5995C239.842 46.9745 239.384 47.2683 238.882 47.4637C238.379 47.659 237.843 47.7519 237.304 47.737" fill="black"/>
<path d="M223.145 54.8591C223.145 55.0263 223.096 55.1897 223.003 55.3289C222.911 55.468 222.779 55.5766 222.624 55.6408C222.47 55.705 222.3 55.722 222.136 55.6897C221.972 55.6573 221.822 55.577 221.703 55.459C221.585 55.3409 221.504 55.1904 221.472 55.0265C221.439 54.8626 221.456 54.6927 221.519 54.5383C221.583 54.3838 221.692 54.2518 221.83 54.1589C221.969 54.066 222.133 54.0164 222.3 54.0164C222.411 54.0164 222.521 54.0382 222.623 54.0806C222.726 54.123 222.819 54.1851 222.897 54.2635C222.976 54.3419 223.038 54.435 223.08 54.5374C223.123 54.6399 223.145 54.7497 223.145 54.8606" fill="black"/>
<path d="M229.1 54.8591C229.101 55.0262 229.052 55.1897 228.959 55.3288C228.867 55.4679 228.735 55.5765 228.581 55.6407C228.426 55.705 228.257 55.722 228.093 55.6897C227.929 55.6574 227.778 55.5772 227.66 55.4593C227.541 55.3414 227.461 55.191 227.428 55.0271C227.395 54.8633 227.411 54.6934 227.475 54.5389C227.539 54.3845 227.647 54.2524 227.786 54.1594C227.925 54.0664 228.088 54.0166 228.255 54.0164C228.479 54.0164 228.693 54.1054 228.852 54.2637C229.01 54.422 229.099 54.6367 229.099 54.8606" fill="black"/>
<path d="M235.056 54.8591C235.056 55.0263 235.007 55.1898 234.915 55.3289C234.822 55.4681 234.69 55.5767 234.536 55.6409C234.382 55.7051 234.212 55.722 234.048 55.6896C233.884 55.6572 233.733 55.5769 233.615 55.4588C233.496 55.3407 233.416 55.1902 233.383 55.0262C233.35 54.8623 233.367 54.6924 233.431 54.5379C233.495 54.3835 233.603 54.2515 233.742 54.1587C233.881 54.0659 234.045 54.0164 234.212 54.0164C234.436 54.0164 234.65 54.1054 234.809 54.2637C234.967 54.422 235.056 54.6367 235.056 54.8606" fill="black"/>
<path d="M241.012 54.8591C241.012 55.0261 240.962 55.1893 240.87 55.3281C240.777 55.4669 240.645 55.5751 240.491 55.639C240.337 55.7029 240.167 55.7196 240.003 55.687C239.839 55.6545 239.689 55.5741 239.571 55.456C239.453 55.338 239.373 55.1876 239.34 55.0238C239.307 54.8601 239.324 54.6904 239.388 54.5361C239.452 54.3819 239.56 54.25 239.699 54.1573C239.838 54.0645 240.001 54.015 240.168 54.015C240.392 54.015 240.606 54.1039 240.765 54.2623C240.923 54.4206 241.012 54.6353 241.012 54.8591Z" fill="black"/>
<path d="M246.968 54.8591C246.968 55.0261 246.919 55.1893 246.826 55.3281C246.733 55.4669 246.601 55.5751 246.447 55.639C246.293 55.7029 246.123 55.7196 245.959 55.687C245.795 55.6545 245.645 55.5741 245.527 55.456C245.409 55.338 245.329 55.1876 245.296 55.0238C245.263 54.8601 245.28 54.6904 245.344 54.5361C245.408 54.3819 245.516 54.25 245.655 54.1573C245.794 54.0645 245.957 54.015 246.124 54.015C246.348 54.015 246.562 54.1039 246.721 54.2623C246.879 54.4206 246.968 54.6353 246.968 54.8591Z" fill="black"/>
<path d="M223.145 60.8151C223.145 60.9822 223.095 61.1455 223.002 61.2845C222.91 61.4234 222.778 61.5318 222.623 61.5958C222.469 61.6598 222.299 61.6766 222.135 61.644C221.972 61.6115 221.821 61.5311 221.703 61.413C221.585 61.2949 221.504 61.1444 221.472 60.9805C221.439 60.8167 221.456 60.6468 221.52 60.4925C221.583 60.3381 221.692 60.2062 221.831 60.1134C221.97 60.0205 222.133 59.971 222.3 59.971C222.411 59.9709 222.521 59.9927 222.623 60.0351C222.726 60.0775 222.819 60.1397 222.897 60.218C222.976 60.2964 223.038 60.3895 223.08 60.492C223.123 60.5944 223.145 60.7042 223.145 60.8151Z" fill="black"/>
<path d="M229.1 60.8151C229.101 60.9821 229.051 61.1454 228.958 61.2844C228.866 61.4233 228.734 61.5316 228.58 61.5957C228.425 61.6597 228.256 61.6765 228.092 61.6441C227.928 61.6116 227.777 61.5313 227.659 61.4133C227.541 61.2953 227.46 61.1449 227.428 60.9811C227.395 60.8173 227.411 60.6475 227.475 60.4931C227.539 60.3388 227.647 60.2068 227.786 60.1138C227.925 60.0209 228.088 59.9712 228.255 59.971C228.479 59.971 228.693 60.0599 228.852 60.2182C229.01 60.3765 229.099 60.5912 229.099 60.8151" fill="black"/>
<path d="M235.056 60.8151C235.056 60.9822 235.007 61.1456 234.914 61.2845C234.821 61.4235 234.689 61.5318 234.535 61.5958C234.381 61.6598 234.211 61.6766 234.047 61.644C233.883 61.6114 233.732 61.531 233.614 61.4128C233.496 61.2947 233.416 61.1441 233.383 60.9802C233.35 60.8164 233.367 60.6465 233.431 60.4921C233.495 60.3378 233.604 60.2059 233.742 60.1131C233.881 60.0204 234.045 59.9709 234.212 59.971C234.436 59.971 234.65 60.0599 234.809 60.2182C234.967 60.3765 235.056 60.5912 235.056 60.8151Z" fill="black"/>
<path d="M241.012 60.8151C241.012 60.9821 240.962 61.1453 240.87 61.2841C240.777 61.4229 240.645 61.5311 240.491 61.595C240.337 61.6589 240.167 61.6756 240.003 61.643C239.839 61.6104 239.689 61.53 239.571 61.412C239.453 61.2939 239.373 61.1435 239.34 60.9798C239.307 60.816 239.324 60.6463 239.388 60.4921C239.452 60.3378 239.56 60.206 239.699 60.1132C239.838 60.0205 240.001 59.971 240.168 59.971C240.392 59.971 240.606 60.0599 240.765 60.2182C240.923 60.3765 241.012 60.5912 241.012 60.8151Z" fill="black"/>
<path d="M246.968 60.8151C246.968 60.9821 246.919 61.1453 246.826 61.2841C246.733 61.4229 246.601 61.5311 246.447 61.595C246.293 61.6589 246.123 61.6756 245.959 61.643C245.795 61.6104 245.645 61.53 245.527 61.412C245.409 61.2939 245.329 61.1435 245.296 60.9798C245.263 60.816 245.28 60.6463 245.344 60.4921C245.408 60.3378 245.516 60.206 245.655 60.1132C245.794 60.0205 245.957 59.971 246.124 59.971C246.348 59.971 246.562 60.0599 246.721 60.2182C246.879 60.3765 246.968 60.5912 246.968 60.8151Z" fill="black"/>
<path d="M223.145 66.7706C223.145 66.9377 223.095 67.101 223.002 67.24C222.91 67.3789 222.778 67.4873 222.623 67.5513C222.469 67.6153 222.299 67.6321 222.135 67.5995C221.972 67.567 221.821 67.4866 221.703 67.3685C221.585 67.2504 221.504 67.0999 221.472 66.936C221.439 66.7722 221.456 66.6023 221.52 66.448C221.583 66.2936 221.692 66.1617 221.831 66.0689C221.97 65.976 222.133 65.9265 222.3 65.9265C222.524 65.9265 222.739 66.0154 222.897 66.1737C223.055 66.332 223.144 66.5467 223.145 66.7706Z" fill="black"/>
<path d="M229.1 66.7706C229.101 66.9376 229.051 67.1009 228.958 67.2399C228.866 67.3788 228.734 67.4871 228.58 67.5512C228.425 67.6152 228.256 67.6321 228.092 67.5996C227.928 67.5671 227.777 67.4868 227.659 67.3688C227.541 67.2508 227.46 67.1004 227.428 66.9366C227.395 66.7728 227.411 66.603 227.475 66.4486C227.539 66.2943 227.647 66.1623 227.786 66.0693C227.925 65.9764 228.088 65.9267 228.255 65.9265C228.479 65.9266 228.693 66.0156 228.852 66.1739C229.01 66.3321 229.099 66.5468 229.099 66.7706" fill="black"/>
<path d="M235.056 66.7706C235.056 66.9377 235.007 67.1011 234.914 67.24C234.821 67.379 234.689 67.4873 234.535 67.5513C234.381 67.6153 234.211 67.6321 234.047 67.5995C233.883 67.5669 233.732 67.4865 233.614 67.3683C233.496 67.2502 233.416 67.0996 233.383 66.9357C233.35 66.7719 233.367 66.602 233.431 66.4477C233.495 66.2933 233.604 66.1614 233.742 66.0686C233.881 65.9759 234.045 65.9264 234.212 65.9265C234.436 65.9266 234.65 66.0156 234.809 66.1739C234.967 66.3321 235.056 66.5468 235.056 66.7706Z" fill="black"/>
<path d="M241.012 66.7706C241.012 66.9376 240.962 67.1008 240.87 67.2396C240.777 67.3784 240.645 67.4866 240.491 67.5505C240.337 67.6144 240.167 67.6311 240.003 67.5985C239.839 67.5659 239.689 67.4855 239.571 67.3675C239.453 67.2494 239.373 67.099 239.34 66.9353C239.307 66.7715 239.324 66.6018 239.388 66.4476C239.452 66.2933 239.56 66.1615 239.699 66.0687C239.838 65.976 240.001 65.9265 240.168 65.9265C240.392 65.9266 240.606 66.0156 240.765 66.1739C240.923 66.3321 241.012 66.5468 241.012 66.7706Z" fill="black"/>
<path d="M246.968 66.7706C246.968 66.9376 246.919 67.1008 246.826 67.2396C246.733 67.3784 246.601 67.4866 246.447 67.5505C246.293 67.6144 246.123 67.6311 245.959 67.5985C245.795 67.5659 245.645 67.4855 245.527 67.3675C245.409 67.2494 245.329 67.099 245.296 66.9353C245.263 66.7715 245.28 66.6018 245.344 66.4476C245.408 66.2933 245.516 66.1615 245.655 66.0687C245.794 65.976 245.957 65.9265 246.124 65.9265C246.348 65.9266 246.562 66.0156 246.721 66.1739C246.879 66.3321 246.968 66.5468 246.968 66.7706Z" fill="black"/>
<path d="M223.145 72.7266C223.145 72.8937 223.095 73.057 223.002 73.196C222.91 73.3349 222.778 73.4433 222.623 73.5073C222.469 73.5713 222.299 73.5881 222.135 73.5555C221.972 73.523 221.821 73.4426 221.703 73.3245C221.585 73.2064 221.504 73.0559 221.472 72.892C221.439 72.7282 221.456 72.5583 221.52 72.404C221.583 72.2496 221.692 72.1177 221.831 72.0248C221.97 71.932 222.133 71.8825 222.3 71.8825C222.411 71.8824 222.521 71.9042 222.623 71.9466C222.726 71.989 222.819 72.0512 222.897 72.1295C222.976 72.2079 223.038 72.301 223.08 72.4035C223.123 72.5059 223.145 72.6157 223.145 72.7266Z" fill="black"/>
<path d="M229.1 72.7266C229.101 72.8936 229.051 73.0569 228.958 73.1959C228.866 73.3348 228.734 73.4431 228.58 73.5072C228.425 73.5712 228.256 73.588 228.092 73.5556C227.928 73.5231 227.777 73.4428 227.659 73.3248C227.541 73.2068 227.46 73.0564 227.428 72.8926C227.395 72.7288 227.411 72.559 227.475 72.4046C227.539 72.2503 227.647 72.1183 227.786 72.0253C227.925 71.9324 228.088 71.8827 228.255 71.8825C228.479 71.8825 228.693 71.9714 228.852 72.1297C229.01 72.288 229.099 72.5027 229.099 72.7266" fill="black"/>
<path d="M241.012 72.7266C241.012 72.8936 240.962 73.0568 240.87 73.1956C240.777 73.3344 240.645 73.4426 240.491 73.5065C240.337 73.5704 240.167 73.5871 240.003 73.5545C239.839 73.5219 239.689 73.4415 239.571 73.3235C239.453 73.2054 239.373 73.055 239.34 72.8913C239.307 72.7275 239.324 72.5578 239.388 72.4036C239.452 72.2493 239.56 72.1175 239.699 72.0247C239.838 71.932 240.001 71.8825 240.168 71.8825C240.392 71.8825 240.606 71.9714 240.765 72.1297C240.923 72.288 241.012 72.5027 241.012 72.7266Z" fill="black"/>
<path d="M246.968 72.7266C246.968 72.8936 246.919 73.0568 246.826 73.1956C246.733 73.3344 246.601 73.4426 246.447 73.5065C246.293 73.5704 246.123 73.5871 245.959 73.5545C245.795 73.5219 245.645 73.4415 245.527 73.3235C245.409 73.2054 245.329 73.055 245.296 72.8913C245.263 72.7275 245.28 72.5578 245.344 72.4036C245.408 72.2493 245.516 72.1175 245.655 72.0247C245.794 71.932 245.957 71.8825 246.124 71.8825C246.348 71.8825 246.562 71.9714 246.721 72.1297C246.879 72.288 246.968 72.5027 246.968 72.7266Z" fill="black"/>
<path d="M223.145 78.6826C223.145 78.8496 223.095 79.0129 223.002 79.1518C222.909 79.2907 222.777 79.399 222.623 79.4629C222.469 79.5268 222.299 79.5436 222.135 79.511C221.971 79.4784 221.821 79.3979 221.703 79.2798C221.585 79.1617 221.504 79.0112 221.472 78.8474C221.439 78.6835 221.456 78.5137 221.52 78.3594C221.584 78.205 221.692 78.0731 221.831 77.9803C221.97 77.8875 222.133 77.838 222.3 77.838C222.411 77.8379 222.521 77.8597 222.623 77.9021C222.726 77.9446 222.819 78.0068 222.897 78.0852C222.976 78.1637 223.038 78.2568 223.08 78.3593C223.123 78.4618 223.145 78.5717 223.145 78.6826Z" fill="black"/>
<path d="M229.1 78.6826C229.1 78.8496 229.051 79.0128 228.958 79.1517C228.865 79.2906 228.734 79.3989 228.579 79.4628C228.425 79.5268 228.255 79.5435 228.091 79.511C227.928 79.4785 227.777 79.3982 227.659 79.2802C227.541 79.1621 227.46 79.0117 227.428 78.848C227.395 78.6842 227.411 78.5144 227.475 78.36C227.539 78.2057 227.647 78.0737 227.786 77.9808C227.925 77.8879 228.088 77.8382 228.255 77.838C228.366 77.838 228.476 77.8598 228.578 77.9023C228.68 77.9447 228.774 78.007 228.852 78.0854C228.93 78.1638 228.993 78.2569 229.035 78.3594C229.077 78.4619 229.099 78.5717 229.099 78.6826" fill="black"/>
<path d="M235.056 78.6826C235.056 78.8497 235.006 79.013 234.914 79.1519C234.821 79.2908 234.689 79.399 234.535 79.4629C234.38 79.5269 234.21 79.5436 234.046 79.5109C233.883 79.4783 233.732 79.3978 233.614 79.2796C233.496 79.1615 233.416 79.0109 233.383 78.8471C233.35 78.6832 233.367 78.5134 233.431 78.359C233.495 78.2047 233.604 78.0728 233.743 77.9801C233.881 77.8873 234.045 77.8379 234.212 77.838C234.323 77.838 234.433 77.8598 234.535 77.9023C234.637 77.9447 234.731 78.007 234.809 78.0854C234.887 78.1638 234.95 78.2569 234.992 78.3594C235.034 78.4619 235.056 78.5717 235.056 78.6826Z" fill="black"/>
<path d="M241.012 78.6826C241.012 78.8495 240.962 79.0127 240.869 79.1514C240.777 79.2902 240.645 79.3983 240.491 79.4621C240.336 79.5259 240.167 79.5426 240.003 79.51C239.839 79.4773 239.689 79.3969 239.571 79.2788C239.453 79.1607 239.372 79.0103 239.34 78.8466C239.307 78.6829 239.324 78.5132 239.388 78.359C239.452 78.2047 239.56 78.0729 239.699 77.9802C239.838 77.8875 240.001 77.838 240.168 77.838C240.279 77.838 240.389 77.8598 240.491 77.9023C240.593 77.9447 240.687 78.007 240.765 78.0854C240.843 78.1638 240.905 78.2569 240.948 78.3594C240.99 78.4619 241.012 78.5717 241.012 78.6826Z" fill="black"/>
<path d="M246.968 78.6826C246.968 78.8495 246.918 79.0127 246.826 79.1514C246.733 79.2902 246.601 79.3983 246.447 79.4621C246.292 79.5259 246.123 79.5426 245.959 79.51C245.795 79.4773 245.645 79.3969 245.527 79.2788C245.409 79.1607 245.329 79.0103 245.296 78.8466C245.263 78.6829 245.28 78.5132 245.344 78.359C245.408 78.2047 245.516 78.0729 245.655 77.9802C245.794 77.8875 245.957 77.838 246.124 77.838C246.235 77.838 246.345 77.8598 246.447 77.9023C246.549 77.9447 246.643 78.007 246.721 78.0854C246.799 78.1638 246.862 78.2569 246.904 78.3594C246.946 78.4619 246.968 78.5717 246.968 78.6826Z" fill="black"/>
<path d="M235.056 72.7266C235.056 72.8937 235.007 73.0571 234.914 73.196C234.821 73.335 234.689 73.4433 234.535 73.5073C234.381 73.5713 234.211 73.5881 234.047 73.5555C233.883 73.5229 233.732 73.4425 233.614 73.3243C233.496 73.2062 233.416 73.0556 233.383 72.8917C233.35 72.7279 233.367 72.558 233.431 72.4036C233.495 72.2493 233.604 72.1174 233.742 72.0246C233.881 71.9318 234.045 71.8824 234.212 71.8825C234.436 71.8825 234.65 71.9714 234.809 72.1297C234.967 72.288 235.056 72.5027 235.056 72.7266Z" fill="black"/>
<path d="M269.452 71.8354H261.346C261.078 71.8347 260.821 71.7279 260.631 71.5382C260.441 71.3485 260.334 71.0914 260.333 70.823V62.7173C260.334 62.4488 260.441 62.1916 260.631 62.0018C260.821 61.812 261.078 61.7051 261.346 61.7044H269.452C269.72 61.7061 269.976 61.8134 270.165 62.0031C270.354 62.1928 270.46 62.4495 270.461 62.7173V70.823C270.46 71.0913 270.353 71.3484 270.164 71.538C269.974 71.7277 269.717 71.8346 269.448 71.8354" fill="black"/>
<path d="M207.078 71.8354H198.974C198.706 71.8347 198.448 71.7279 198.259 71.5382C198.069 71.3485 197.962 71.0914 197.961 70.823V62.7173C197.962 62.4494 198.07 62.193 198.26 62.0039C198.449 61.8149 198.706 61.7084 198.974 61.7078H207.078C207.346 61.7087 207.602 61.8152 207.792 62.0043C207.981 62.1933 208.089 62.4496 208.09 62.7173V70.823C208.089 71.0912 207.982 71.3482 207.793 71.5379C207.603 71.7275 207.346 71.8345 207.078 71.8354Z" fill="black"/>
<path d="M267.593 66.7706C267.593 67.2047 267.464 67.6289 267.223 67.9898C266.982 68.3507 266.639 68.6319 266.238 68.798C265.837 68.9641 265.396 69.0076 264.97 68.9229C264.545 68.8382 264.153 68.6292 263.847 68.3223C263.54 68.0154 263.331 67.6244 263.246 67.1988C263.161 66.7731 263.205 66.3318 263.371 65.9309C263.537 65.5299 263.818 65.1872 264.179 64.946C264.54 64.7049 264.964 64.5762 265.398 64.5762C265.98 64.5762 266.538 64.8074 266.95 65.2189C267.362 65.6305 267.593 66.1886 267.593 66.7706Z" fill="white"/>
<path d="M205.221 66.7706C205.221 67.2048 205.093 67.6292 204.852 67.9903C204.61 68.3513 204.268 68.6327 203.867 68.7989C203.465 68.9651 203.024 69.0086 202.598 68.9239C202.172 68.8392 201.781 68.6302 201.474 68.3232C201.167 68.0162 200.958 67.625 200.874 67.1992C200.789 66.7734 200.832 66.332 200.999 65.9309C201.165 65.5299 201.446 65.1871 201.807 64.9459C202.168 64.7048 202.593 64.5761 203.027 64.5762C203.609 64.5762 204.167 64.8074 204.579 65.2189C204.99 65.6305 205.221 66.1886 205.221 66.7706Z" fill="white"/>
</g>
</g>
<path d="M172 103H178.023L178.023 20L209 20V37.8192" stroke="black" stroke-width="4"/>
<g clip-path="url(#clip1_749_28)">
<mask id="mask1_749_28" style="mask-type:luminance" maskUnits="userSpaceOnUse" x="0" y="0" width="174" height="120">
<path d="M173.082 0H0V120H173.082V0Z" fill="white"/>
</mask>
<g mask="url(#mask1_749_28)">
<path d="M143.059 4C144.12 4 145.137 4.42143 145.887 5.17157C146.638 5.92172 147.059 6.93913 147.059 8V97.666H26.0229V8C26.0229 6.93913 26.4444 5.92172 27.1945 5.17157C27.9447 4.42143 28.9621 4 30.0229 4H143.059ZM143.059 0H30.0229C27.9032 0.00633091 25.872 0.851219 24.3731 2.35014C22.8742 3.84906 22.0293 5.88022 22.0229 8V101.666H151.059V8C151.053 5.88022 150.208 3.84906 148.709 2.35014C147.21 0.851219 145.179 0.00633091 143.059 0Z" fill="black"/>
<path d="M169.082 101.871V112C169.082 113.061 168.661 114.078 167.91 114.828C167.16 115.579 166.143 116 165.082 116H8C6.93913 116 5.92172 115.579 5.17157 114.828C4.42143 114.078 4 113.061 4 112V101.871H169.082ZM169.082 97.871H4C2.93913 97.871 1.92172 98.2924 1.17157 99.0426C0.421427 99.7927 0 100.81 0 101.871L0 112C0 114.122 0.842855 116.157 2.34315 117.657C3.84344 119.157 5.87827 120 8 120H165.082C167.204 120 169.239 119.157 170.739 117.657C172.239 116.157 173.082 114.122 173.082 112V101.871C173.082 100.81 172.661 99.7927 171.91 99.0426C171.16 98.2924 170.143 97.871 169.082 97.871Z" fill="black"/>
<path d="M78.146 44.261C78.146 45.4401 77.7963 46.5926 77.1413 47.573C76.4862 48.5533 75.5551 49.3173 74.4657 49.7684C73.3764 50.2195 72.1777 50.3375 71.0213 50.1073C69.865 49.8771 68.8028 49.3092 67.9692 48.4753C67.1357 47.6415 66.5681 46.5791 66.3383 45.4227C66.1085 44.2662 66.2269 43.0676 66.6783 41.9784C67.1298 40.8892 67.8942 39.9584 68.8747 39.3036C69.8552 38.6489 71.0079 38.2996 72.187 38.3C73.7676 38.3005 75.2833 38.9288 76.4008 40.0466C77.5182 41.1645 78.146 42.6804 78.146 44.261Z" stroke="#48AC34" stroke-width="3" stroke-miterlimit="10"/>
<path d="M92.1571 74.846C92.1569 76.0249 91.8071 77.1772 91.1519 78.1572C90.4968 79.1373 89.5657 79.9011 88.4765 80.3519C87.3872 80.8028 86.1888 80.9205 85.0326 80.6901C83.8765 80.4598 82.8146 79.8918 81.9813 79.0579C81.148 78.2241 80.5807 77.1618 80.3511 76.0055C80.1216 74.8492 80.2401 73.6508 80.6917 72.5619C81.1433 71.473 81.9077 70.5424 82.8882 69.8879C83.8686 69.2334 85.0212 68.8844 86.2001 68.885C87.7803 68.8861 89.2955 69.5146 90.4125 70.6324C91.5296 71.7501 92.1571 73.2657 92.1571 74.846Z" stroke="#48AC34" stroke-width="3" stroke-miterlimit="10"/>
<path d="M105.703 35.757H94.743V46.716H105.703V35.757Z" stroke="#48AC34" stroke-width="3" stroke-linejoin="round"/>
<path d="M78.458 28.675L86.21 20.928L93.958 28.678" stroke="#48AC34" stroke-width="3" stroke-linecap="round" stroke-linejoin="round"/>
<path d="M86.209 24.286L86.198 68.12" stroke="#48AC34" stroke-width="3" stroke-linecap="round" stroke-linejoin="round"/>
<path d="M72.184 50.22V55.509C72.1838 55.9265 72.2659 56.3399 72.4256 56.7256C72.5852 57.1114 72.8193 57.4619 73.1144 57.7572C73.4095 58.0525 73.7598 58.2868 74.1455 58.4466C74.5311 58.6065 74.9445 58.6889 75.362 58.689H96.786C97.2034 58.6891 97.6168 58.607 98.0026 58.4474C98.3883 58.2878 98.7389 58.0537 99.0341 57.7586C99.3294 57.4635 99.5637 57.1131 99.7236 56.7275C99.8835 56.3418 99.9658 55.9285 99.966 55.511V46.967" stroke="#48AC34" stroke-width="3" stroke-linejoin="round"/>
</g>
</g>
<g filter="url(#filter0_d_749_28)">
<rect x="205" y="30" width="8" height="4" rx="2" fill="black"/>
</g>
<defs>
<filter id="filter0_d_749_28" x="201" y="30" width="16" height="12" filterUnits="userSpaceOnUse" color-interpolation-filters="sRGB">
<feFlood flood-opacity="0" result="BackgroundImageFix"/>
<feColorMatrix in="SourceAlpha" type="matrix" values="0 0 0 0 0 0 0 0 0 0 0 0 0 0 0 0 0 0 127 0" result="hardAlpha"/>
<feOffset dy="4"/>
<feGaussianBlur stdDeviation="2"/>
<feComposite in2="hardAlpha" operator="out"/>
<feColorMatrix type="matrix" values="0 0 0 0 0 0 0 0 0 0 0 0 0 0 0 0 0 0 0.25 0"/>
<feBlend mode="normal" in2="BackgroundImageFix" result="effect1_dropShadow_749_28"/>
<feBlend mode="normal" in="SourceGraphic" in2="effect1_dropShadow_749_28" result="shape"/>
</filter>
<clipPath id="clip0_749_28">
<rect width="86.4242" height="69.5413" fill="white" transform="translate(191 32)"/>
</clipPath>
<clipPath id="clip1_749_28">
<rect width="173.082" height="120" fill="white"/>
</clipPath>
</defs>
</svg>
