<svg width="326" height="228" viewBox="0 0 326 228" fill="none" xmlns="http://www.w3.org/2000/svg">
<path d="M215.591 28.9302L18.1714 41.6493C14.085 41.9127 10.2705 43.7886 7.56706 46.8644C4.86366 49.9403 3.49282 53.9641 3.75609 58.0506L13.5332 209.826C13.6634 211.849 14.191 213.828 15.0858 215.647C15.9806 217.467 17.2251 219.093 18.7482 220.432C20.2713 221.77 22.0432 222.796 23.9627 223.45C25.8821 224.104 27.9116 224.373 29.9352 224.243L36.6513 223.814C37.3939 222.476 38.4606 221.346 39.7535 220.528C41.0465 219.71 42.5242 219.23 44.0511 219.131C45.5779 219.033 47.105 219.32 48.4922 219.965C49.8794 220.611 51.0822 221.595 51.9902 222.826L78.8129 221.098C79.5551 219.76 80.6217 218.63 81.9146 217.812C83.2075 216.993 84.6853 216.513 86.2122 216.414C87.7392 216.316 89.2665 216.602 90.6538 217.248C92.041 217.894 93.2439 218.878 94.1518 220.109L120.974 218.381C121.717 217.044 122.784 215.914 124.077 215.096C125.37 214.277 126.847 213.797 128.374 213.699C129.901 213.601 131.428 213.887 132.815 214.533C134.203 215.178 135.405 216.162 136.313 217.394L163.134 215.666C163.876 214.328 164.943 213.198 166.236 212.379C167.528 211.561 169.006 211.08 170.533 210.982C172.06 210.883 173.587 211.17 174.974 211.815C176.362 212.461 177.564 213.444 178.473 214.676L205.295 212.949C206.038 211.611 207.104 210.481 208.397 209.663C209.69 208.845 211.168 208.365 212.694 208.267C214.221 208.168 215.748 208.455 217.135 209.1C218.522 209.745 219.725 210.729 220.633 211.96L227.354 211.528C231.44 211.265 235.255 209.389 237.959 206.313C240.663 203.237 242.034 199.214 241.771 195.127L231.993 43.3458C231.73 39.259 229.854 35.4441 226.778 32.7404C223.702 30.0367 219.678 28.6658 215.591 28.929" fill="white"/>
<path d="M215.591 28.9301L18.1714 41.6493C14.085 41.9127 10.2705 43.7886 7.56706 46.8644C4.86366 49.9402 3.49282 53.964 3.75609 58.0506L13.5332 209.826C13.6634 211.849 14.191 213.828 15.0858 215.647C15.9806 217.467 17.2251 219.093 18.7482 220.432C20.2713 221.77 22.0432 222.796 23.9627 223.45C25.8821 224.104 27.9116 224.373 29.9352 224.243L36.6513 223.814C37.3939 222.476 38.4606 221.346 39.7535 220.528C41.0465 219.71 42.5242 219.23 44.0511 219.131C45.5779 219.033 47.105 219.32 48.4922 219.965C49.8794 220.611 51.0822 221.595 51.9902 222.826L78.8129 221.098C79.5551 219.76 80.6217 218.63 81.9146 217.812C83.2075 216.993 84.6853 216.513 86.2122 216.414C87.7392 216.316 89.2665 216.602 90.6538 217.248C92.041 217.894 93.2439 218.878 94.1518 220.109L120.974 218.381C121.717 217.044 122.784 215.914 124.077 215.096C125.37 214.277 126.847 213.797 128.374 213.699C129.901 213.601 131.428 213.887 132.815 214.533C134.203 215.178 135.405 216.162 136.313 217.394L163.134 215.666C163.876 214.328 164.943 213.198 166.236 212.379C167.528 211.561 169.006 211.08 170.533 210.982C172.06 210.883 173.587 211.17 174.974 211.815C176.362 212.461 177.564 213.444 178.473 214.676L205.295 212.949C206.038 211.611 207.104 210.481 208.397 209.663C209.69 208.845 211.168 208.365 212.694 208.267C214.221 208.168 215.748 208.455 217.135 209.1C218.522 209.745 219.725 210.729 220.633 211.96L227.354 211.528C231.44 211.265 235.255 209.389 237.959 206.313C240.663 203.237 242.034 199.214 241.771 195.127L231.993 43.3458C231.729 39.2591 229.853 35.4445 226.777 32.7411C223.701 30.0377 219.678 28.6669 215.591 28.9301Z" stroke="#1D1D1B" stroke-width="5" stroke-linecap="round" stroke-linejoin="round"/>
<path d="M220.236 182.987C220.352 184.792 219.931 186.592 219.024 188.158C218.118 189.724 216.768 190.986 215.144 191.785C213.52 192.583 211.696 192.882 209.903 192.644C208.109 192.406 206.426 191.641 205.067 190.447C203.708 189.252 202.734 187.682 202.268 185.934C201.801 184.185 201.864 182.338 202.447 180.625C203.031 178.912 204.109 177.411 205.546 176.311C206.982 175.211 208.713 174.562 210.519 174.446C211.717 174.368 212.92 174.528 214.057 174.915C215.194 175.303 216.244 175.91 217.146 176.703C218.049 177.497 218.786 178.46 219.316 179.538C219.846 180.616 220.159 181.788 220.236 182.987Z" stroke="#1D1D1B" stroke-width="2.436" stroke-linecap="round" stroke-linejoin="round"/>
<path d="M178.076 185.704C178.192 187.509 177.77 189.309 176.864 190.875C175.958 192.441 174.607 193.703 172.984 194.502C171.36 195.3 169.536 195.599 167.742 195.361C165.949 195.123 164.266 194.358 162.907 193.164C161.548 191.969 160.574 190.399 160.107 188.65C159.641 186.902 159.703 185.055 160.287 183.342C160.87 181.629 161.949 180.128 163.385 179.028C164.822 177.928 166.553 177.279 168.358 177.163C169.557 177.085 170.759 177.245 171.897 177.632C173.034 178.02 174.084 178.627 174.986 179.42C175.888 180.213 176.626 181.177 177.156 182.255C177.686 183.333 177.998 184.505 178.076 185.704Z" stroke="#1D1D1B" stroke-width="2.436" stroke-linecap="round" stroke-linejoin="round"/>
<path d="M135.915 188.418C136.032 190.224 135.61 192.024 134.704 193.59C133.797 195.156 132.447 196.418 130.823 197.216C129.2 198.015 127.376 198.314 125.582 198.076C123.788 197.838 122.106 197.073 120.747 195.878C119.388 194.684 118.413 193.113 117.947 191.365C117.48 189.617 117.543 187.769 118.126 186.057C118.71 184.344 119.788 182.843 121.225 181.743C122.662 180.643 124.392 179.994 126.198 179.877C127.397 179.8 128.599 179.96 129.736 180.347C130.873 180.734 131.923 181.342 132.826 182.135C133.728 182.928 134.465 183.891 134.995 184.969C135.526 186.047 135.838 187.219 135.915 188.418Z" stroke="#1D1D1B" stroke-width="2.436" stroke-linecap="round" stroke-linejoin="round"/>
<path d="M93.7547 191.135C93.8708 192.941 93.449 194.74 92.5425 196.306C91.636 197.872 90.2855 199.134 88.6618 199.932C87.0382 200.731 85.2142 201.03 83.4206 200.791C81.6271 200.553 79.9444 199.788 78.5855 198.594C77.2266 197.399 76.2523 195.829 75.7861 194.08C75.3198 192.332 75.3824 190.485 75.9659 188.772C76.5494 187.059 77.6277 185.558 79.0644 184.458C80.5011 183.359 82.2316 182.709 84.0372 182.593C85.2361 182.516 86.4385 182.676 87.5757 183.063C88.713 183.451 89.7627 184.058 90.6651 184.851C91.5675 185.645 92.3047 186.608 92.8348 187.686C93.365 188.764 93.6775 189.936 93.7547 191.135Z" stroke="#1D1D1B" stroke-width="2.436" stroke-linecap="round" stroke-linejoin="round"/>
<path d="M51.5932 193.852C51.7096 195.658 51.288 197.457 50.3816 199.023C49.4752 200.589 48.1249 201.851 46.5012 202.65C44.8776 203.448 43.0536 203.748 41.26 203.509C39.4664 203.271 37.7836 202.507 36.4246 201.312C35.0655 200.118 34.0912 198.547 33.6248 196.799C33.1584 195.05 33.2209 193.203 33.8044 191.49C34.3879 189.778 35.4662 188.276 36.9028 187.176C38.3395 186.077 40.0701 185.427 41.8757 185.311C44.2969 185.155 46.6809 185.967 48.5033 187.569C50.3256 189.171 51.4371 191.431 51.5932 193.852Z" stroke="#1D1D1B" stroke-width="2.436" stroke-linecap="round" stroke-linejoin="round"/>
<path d="M170.068 32.837C171.453 32.7516 172.816 33.2186 173.858 34.1349C174.9 35.0511 175.537 36.3423 175.63 37.7267L175.631 37.7335L177.044 59.6456V59.6525C177.129 61.0377 176.663 62.4009 175.747 63.4435C174.829 64.4879 173.537 65.1228 172.154 65.2159L172.146 65.2169V65.2159L150.234 66.6281L150.227 66.629C148.842 66.7137 147.479 66.2466 146.438 65.3302C145.396 64.4138 144.759 63.1219 144.666 61.7374V61.7316L143.253 39.8214L143.252 39.8146C143.167 38.4292 143.634 37.0661 144.55 36.0236C145.466 34.981 146.758 34.3434 148.143 34.2501L148.149 34.2491L170.062 32.838L170.068 32.837Z" fill="#1D1D1B" stroke="#00A000" stroke-width="5"/>
<path d="M171.986 62.7216L150.074 64.1335C149.348 64.1779 148.635 63.9333 148.089 63.4531C147.543 62.9729 147.209 62.2962 147.16 61.5707L145.747 39.6603C145.703 38.9343 145.947 38.2201 146.427 37.6737C146.907 37.1273 147.584 36.7932 148.31 36.7444L170.222 35.3325C170.948 35.2877 171.662 35.5321 172.208 36.0121C172.754 36.4921 173.087 37.1687 173.136 37.8941L174.549 59.8067C174.593 60.5326 174.349 61.2465 173.869 61.7926C173.388 62.3388 172.712 62.6727 171.986 62.7216Z" stroke="#1D1D1B" stroke-width="1.218" stroke-linecap="round" stroke-linejoin="round"/>
<path d="M166.029 49.3533C166.105 50.527 165.831 51.6967 165.241 52.7145C164.652 53.7323 163.774 54.5525 162.719 55.0714C161.663 55.5903 160.478 55.7846 159.312 55.6296C158.146 55.4747 157.052 54.9776 156.169 54.2011C155.286 53.4246 154.652 52.4036 154.349 51.2672C154.046 50.1308 154.087 48.93 154.466 47.8168C154.846 46.7035 155.546 45.7277 156.48 45.0128C157.414 44.2979 158.539 43.876 159.713 43.8003C160.492 43.7501 161.274 43.8539 162.013 44.1058C162.752 44.3577 163.435 44.7528 164.021 45.2684C164.608 45.7841 165.087 46.4102 165.432 47.1111C165.776 47.812 165.979 48.5739 166.029 49.3533Z" fill="white"/>
<path d="M166.029 49.3533C166.105 50.527 165.831 51.6967 165.241 52.7145C164.652 53.7323 163.774 54.5525 162.719 55.0714C161.663 55.5903 160.478 55.7846 159.312 55.6297C158.146 55.4747 157.052 54.9776 156.169 54.2011C155.286 53.4246 154.652 52.4036 154.349 51.2672C154.046 50.1308 154.087 48.93 154.466 47.8168C154.846 46.7035 155.546 45.7277 156.48 45.0128C157.414 44.2979 158.539 43.876 159.713 43.8003C160.492 43.7501 161.274 43.8539 162.013 44.1058C162.752 44.3577 163.435 44.7528 164.021 45.2684C164.608 45.7841 165.087 46.4102 165.432 47.1111C165.776 47.812 165.979 48.5739 166.029 49.3533Z" stroke="white" stroke-width="2.03" stroke-miterlimit="10"/>
<path d="M120.309 88.6149L94.9595 117.46L123.804 142.811L149.154 113.965L120.309 88.6149Z" fill="#B3B3B3"/>
<path d="M120.309 88.6149L94.9595 117.46L123.804 142.811L149.154 113.965L120.309 88.6149Z" stroke="#B3B3B3" stroke-width="1.21776" stroke-linecap="round" stroke-linejoin="round"/>
<path d="M167.743 122.342L173.652 121.959L174.01 127.522L168.102 127.903L167.743 122.342ZM171.516 122.874C171.489 122.87 171.462 122.868 171.435 122.866H171.402L171.264 122.859C171.233 122.859 171.201 122.859 171.168 122.859H171.004H170.941L170.81 122.874L170.74 122.885L170.636 122.901L170.607 122.908H170.576L170.537 122.919L170.488 122.93C170.464 122.938 170.441 122.943 170.419 122.949C170.288 122.987 170.16 123.034 170.035 123.09C169.977 123.117 169.923 123.147 169.865 123.179C169.808 123.21 169.774 123.232 169.733 123.261C169.694 123.286 169.656 123.314 169.62 123.343C169.598 123.359 169.579 123.377 169.557 123.394C169.536 123.411 169.522 123.422 169.507 123.435C169.471 123.468 169.437 123.499 169.404 123.532C169.372 123.565 169.346 123.591 169.319 123.622C169.292 123.654 169.272 123.676 169.251 123.703C169.231 123.73 169.207 123.759 169.187 123.789C169.167 123.818 169.141 123.853 169.12 123.888C169.098 123.922 169.089 123.937 169.076 123.962C169.062 123.987 169.057 123.999 169.047 124.016C168.991 124.124 168.944 124.237 168.907 124.353C168.86 124.505 168.831 124.662 168.819 124.821C168.816 124.875 168.816 124.929 168.819 124.982C168.819 125.023 168.819 125.065 168.819 125.106C168.819 125.146 168.819 125.17 168.827 125.199C168.835 125.229 168.835 125.263 168.841 125.296V125.317C168.847 125.355 168.855 125.393 168.863 125.43C168.863 125.445 168.871 125.459 168.877 125.472C168.883 125.502 168.892 125.53 168.903 125.562L168.943 125.674C168.962 125.717 168.982 125.762 169.002 125.805C169.035 125.869 169.07 125.932 169.107 125.991C169.128 126.027 169.151 126.061 169.176 126.094C169.194 126.12 169.213 126.144 169.232 126.169C169.251 126.194 169.283 126.232 169.309 126.26C169.335 126.288 169.364 126.318 169.391 126.348C169.418 126.378 169.459 126.412 169.491 126.441L169.509 126.455C169.536 126.478 169.565 126.503 169.599 126.529C169.633 126.555 169.645 126.565 169.671 126.582C169.697 126.599 169.719 126.616 169.745 126.631C169.771 126.647 169.809 126.671 169.844 126.689C169.879 126.707 169.919 126.729 169.957 126.75C170.043 126.792 170.132 126.83 170.223 126.862C170.259 126.874 170.297 126.885 170.336 126.896C170.374 126.907 170.413 126.916 170.448 126.924C170.518 126.939 170.59 126.952 170.665 126.961C170.741 126.97 170.79 126.975 170.855 126.979C170.921 126.984 170.988 126.979 171.058 126.979H171.161H171.21C171.326 126.972 171.441 126.959 171.555 126.94H171.575C171.617 126.94 171.659 126.926 171.698 126.918C171.759 126.906 171.811 126.895 171.871 126.881L171.97 126.855L172.114 126.811L172.211 126.777C172.248 126.763 172.285 126.748 172.324 126.734L172.357 126.719L172.421 126.692L172.545 126.63C172.573 126.617 172.603 126.6 172.635 126.584L172.723 126.535L172.76 126.513L172.712 125.756L172.685 125.772L172.636 125.808C172.586 125.842 172.538 125.875 172.489 125.906C172.439 125.936 172.384 125.969 172.331 125.998C172.24 126.046 172.153 126.091 172.068 126.129C171.925 126.191 171.776 126.24 171.624 126.277L171.578 126.288C171.541 126.297 171.508 126.304 171.473 126.311C171.42 126.319 171.371 126.323 171.327 126.33L171.248 126.337C171.193 126.337 171.136 126.337 171.082 126.337C171.028 126.337 170.948 126.337 170.879 126.325C170.765 126.314 170.652 126.293 170.542 126.261L170.492 126.248L170.459 126.235L170.407 126.215C170.367 126.201 170.329 126.185 170.294 126.167C170.276 126.156 170.257 126.146 170.238 126.139L170.182 126.104C170.158 126.091 170.135 126.077 170.113 126.061L170.051 126.017L170.024 125.996L170.011 125.985L170.003 125.978L169.995 125.97C169.959 125.94 169.925 125.907 169.892 125.873C169.877 125.855 169.859 125.837 169.844 125.818C169.829 125.799 169.816 125.782 169.801 125.764C169.788 125.748 169.776 125.731 169.765 125.713C169.747 125.688 169.732 125.661 169.717 125.637C169.702 125.613 169.691 125.591 169.682 125.572C169.663 125.535 169.647 125.496 169.633 125.459C169.618 125.422 169.612 125.404 169.603 125.376C169.581 125.307 169.564 125.237 169.554 125.166C169.554 125.143 169.547 125.119 169.546 125.101C169.545 125.083 169.539 125.044 169.538 125.024V124.975C169.535 124.921 169.535 124.867 169.538 124.812C169.538 124.775 169.546 124.735 169.553 124.692C169.56 124.649 169.565 124.633 169.572 124.603C169.579 124.573 169.585 124.548 169.594 124.519L169.615 124.461C169.624 124.435 169.635 124.408 169.647 124.383C169.66 124.357 169.665 124.342 169.674 124.322C169.697 124.276 169.723 124.231 169.752 124.189C169.763 124.171 169.773 124.155 169.786 124.14C169.8 124.118 169.816 124.097 169.833 124.078L169.856 124.047C169.981 123.907 170.129 123.79 170.294 123.701C170.318 123.687 170.344 123.677 170.368 123.665L170.444 123.63L170.528 123.601C170.554 123.589 170.581 123.583 170.606 123.575L170.684 123.553C170.714 123.547 170.742 123.539 170.772 123.534C170.801 123.527 170.83 123.522 170.86 123.519C170.915 123.51 170.972 123.504 171.021 123.499H171.074H171.186H171.264C171.311 123.499 171.357 123.499 171.402 123.508C171.44 123.511 171.477 123.515 171.515 123.522C171.569 123.522 171.619 123.537 171.665 123.544C171.712 123.552 171.722 123.557 171.748 123.564L171.841 123.585L171.908 123.604L172.021 123.64C172.069 123.656 172.117 123.675 172.162 123.69L172.274 123.733C172.302 123.746 172.33 123.755 172.355 123.767L172.468 123.817L172.549 123.856L172.5 123.11L172.372 123.07C172.335 123.057 172.291 123.044 172.244 123.03L172.158 123.007L172.083 122.986C172.055 122.98 172.025 122.971 171.993 122.964L171.925 122.95H171.903L171.835 122.936C171.808 122.929 171.781 122.925 171.751 122.92C171.721 122.916 171.716 122.913 171.697 122.911L171.606 122.896L171.512 122.885" fill="#1D1D1B"/>
<path d="M164.087 125.656H164.162H164.245C164.287 125.656 164.33 125.659 164.371 125.664C164.445 125.673 164.519 125.69 164.59 125.713C164.637 125.73 164.682 125.753 164.725 125.781C164.748 125.796 164.77 125.813 164.792 125.83C164.802 125.839 164.812 125.849 164.821 125.86C164.864 125.906 164.895 125.962 164.914 126.022C164.924 126.056 164.932 126.091 164.935 126.126V126.153V126.19C164.935 126.271 164.915 126.351 164.878 126.422C164.862 126.452 164.842 126.479 164.819 126.504C164.755 126.574 164.676 126.628 164.587 126.662C164.499 126.696 164.408 126.721 164.314 126.734C164.273 126.741 164.24 126.743 164.216 126.747H164.179L163.469 126.793L163.399 125.701L164.087 125.656ZM163.299 124.038L163.367 125.076L163.71 125.054H163.763L163.84 125.043C163.93 125.033 164.019 125.014 164.105 124.986C164.123 124.978 164.141 124.972 164.16 124.965C164.234 124.932 164.302 124.885 164.358 124.826C164.397 124.784 164.426 124.733 164.443 124.678C164.46 124.627 164.47 124.574 164.47 124.52C164.47 124.484 164.47 124.461 164.47 124.461V124.417C164.463 124.352 164.443 124.288 164.412 124.231C164.391 124.196 164.364 124.164 164.333 124.137C164.29 124.103 164.242 124.076 164.191 124.056C164.057 124.017 163.916 124.003 163.776 124.015L163.299 124.038ZM161.3 128.341L167.208 127.96L166.851 122.399L160.942 122.782L161.3 128.341ZM163.841 123.377C164.025 123.353 164.211 123.367 164.389 123.419C164.567 123.471 164.732 123.559 164.874 123.677C164.969 123.758 165.047 123.858 165.103 123.969C165.159 124.081 165.192 124.203 165.2 124.327C165.217 124.446 165.208 124.567 165.172 124.682C165.137 124.797 165.077 124.902 164.996 124.991C164.923 125.072 164.837 125.14 164.743 125.194C164.969 125.237 165.181 125.338 165.358 125.487C165.456 125.576 165.535 125.683 165.591 125.803C165.647 125.922 165.68 126.052 165.686 126.184C165.692 126.316 165.672 126.447 165.627 126.571C165.582 126.696 165.512 126.81 165.423 126.907C165.117 127.186 164.722 127.349 164.307 127.366L162.801 127.463L162.543 123.459L163.841 123.377Z" fill="#1D1D1B"/>
<path d="M157.278 126.095H157.355C157.382 126.095 157.409 126.095 157.437 126.095C157.465 126.095 157.522 126.095 157.563 126.104C157.637 126.112 157.71 126.129 157.781 126.153C157.829 126.169 157.874 126.191 157.916 126.219C157.94 126.234 157.962 126.251 157.984 126.269C157.994 126.278 158.004 126.288 158.013 126.298C158.055 126.345 158.087 126.4 158.106 126.459C158.117 126.494 158.124 126.529 158.127 126.565V126.592V126.626C158.127 126.707 158.107 126.788 158.068 126.86C158.052 126.889 158.032 126.917 158.01 126.942C157.946 127.011 157.866 127.064 157.778 127.097C157.69 127.133 157.598 127.158 157.504 127.171L157.408 127.185H157.368L156.66 127.231L156.589 126.138L157.278 126.095ZM156.491 124.477L156.558 125.514L156.901 125.492H156.954L157.032 125.481C157.122 125.471 157.21 125.451 157.295 125.422L157.351 125.402C157.427 125.37 157.495 125.323 157.552 125.263C157.59 125.221 157.619 125.17 157.637 125.116C157.653 125.065 157.662 125.011 157.664 124.957C157.664 124.92 157.664 124.899 157.664 124.899V124.853C157.657 124.788 157.638 124.724 157.606 124.667C157.585 124.632 157.558 124.6 157.527 124.574C157.485 124.538 157.437 124.511 157.385 124.493C157.287 124.46 157.184 124.444 157.08 124.447C157.043 124.444 157.005 124.444 156.968 124.447L156.491 124.477ZM154.492 128.78L160.4 128.399L160.042 122.838L154.134 123.219L154.492 128.78ZM157.033 123.814C157.217 123.791 157.403 123.806 157.581 123.858C157.758 123.91 157.924 123.998 158.066 124.116C158.161 124.197 158.239 124.296 158.295 124.407C158.351 124.519 158.384 124.641 158.392 124.765C158.409 124.884 158.399 125.006 158.364 125.121C158.329 125.236 158.269 125.342 158.188 125.431C158.115 125.512 158.029 125.58 157.933 125.634C158.16 125.677 158.371 125.778 158.547 125.927C158.645 126.016 158.725 126.123 158.781 126.242C158.838 126.361 158.87 126.491 158.877 126.623C158.883 126.755 158.863 126.887 158.819 127.011C158.774 127.135 158.705 127.249 158.616 127.347C158.308 127.626 157.913 127.788 157.499 127.806L155.992 127.903L155.735 123.898L157.033 123.814Z" fill="#1D1D1B"/>
<path d="M176.583 154.112C176.343 154.125 176.104 154.068 175.897 153.947C175.69 153.825 175.523 153.645 175.418 153.429C175.312 153.213 175.273 152.971 175.305 152.733C175.337 152.495 175.439 152.272 175.597 152.091C175.756 151.911 175.964 151.781 176.196 151.719C176.428 151.656 176.673 151.664 176.901 151.74C177.129 151.817 177.329 151.959 177.476 152.149C177.623 152.339 177.711 152.568 177.728 152.808C177.739 152.969 177.719 153.13 177.667 153.283C177.615 153.436 177.534 153.577 177.427 153.699C177.321 153.82 177.191 153.919 177.046 153.99C176.901 154.061 176.744 154.102 176.583 154.112Z" fill="#1D1D1B"/>
<path d="M170.341 140.175C170.63 140.157 170.907 140.053 171.136 139.877C171.366 139.701 171.538 139.461 171.632 139.188C171.725 138.914 171.735 138.619 171.661 138.339C171.586 138.06 171.431 137.809 171.213 137.618C170.996 137.427 170.727 137.304 170.441 137.266C170.154 137.228 169.863 137.275 169.603 137.403C169.343 137.53 169.127 137.732 168.982 137.982C168.837 138.232 168.77 138.52 168.788 138.808C168.8 139 168.85 139.188 168.935 139.36C169.019 139.533 169.137 139.687 169.281 139.814C169.426 139.941 169.594 140.038 169.775 140.1C169.957 140.162 170.15 140.188 170.341 140.175Z" fill="#1D1D1B"/>
<path d="M159.429 137.942C159.14 137.961 158.864 138.064 158.634 138.24C158.405 138.416 158.232 138.656 158.139 138.93C158.046 139.204 158.036 139.499 158.11 139.778C158.185 140.058 158.34 140.309 158.558 140.5C158.775 140.691 159.044 140.813 159.331 140.851C159.617 140.889 159.909 140.842 160.168 140.714C160.428 140.586 160.644 140.385 160.789 140.134C160.934 139.884 161.001 139.596 160.983 139.308C160.97 139.116 160.92 138.929 160.836 138.756C160.751 138.584 160.633 138.43 160.489 138.303C160.345 138.176 160.177 138.079 159.995 138.017C159.813 137.955 159.621 137.93 159.429 137.942Z" fill="#1D1D1B"/>
<path d="M159.244 135.063C158.093 135.138 157.018 135.667 156.257 136.533C155.496 137.4 155.111 138.533 155.185 139.684C155.26 140.835 155.789 141.909 156.655 142.67C157.522 143.431 158.655 143.817 159.806 143.743L170.656 143.044C171.226 143.007 171.783 142.858 172.296 142.606C172.808 142.354 173.266 142.003 173.642 141.574C174.019 141.145 174.308 140.646 174.492 140.105C174.676 139.565 174.752 138.993 174.715 138.423C174.678 137.853 174.529 137.296 174.277 136.784C174.024 136.271 173.674 135.814 173.245 135.437C172.816 135.06 172.317 134.771 171.776 134.587C171.235 134.403 170.664 134.328 170.094 134.365L159.244 135.063ZM170.837 145.936L159.989 146.635C159.036 146.703 158.078 146.582 157.172 146.278C156.265 145.975 155.427 145.495 154.707 144.866C153.987 144.237 153.398 143.472 152.975 142.615C152.551 141.758 152.302 140.825 152.24 139.871C152.179 138.917 152.306 137.96 152.616 137.056C152.926 136.151 153.412 135.317 154.045 134.601C154.679 133.885 155.448 133.302 156.308 132.884C157.168 132.467 158.102 132.224 159.057 132.169L169.907 131.471C170.861 131.402 171.819 131.523 172.726 131.827C173.633 132.13 174.471 132.61 175.191 133.238C175.912 133.867 176.501 134.632 176.925 135.489C177.348 136.347 177.598 137.28 177.659 138.234C177.721 139.188 177.593 140.145 177.283 141.05C176.973 141.955 176.486 142.789 175.852 143.505C175.218 144.221 174.449 144.804 173.588 145.221C172.728 145.638 171.793 145.881 170.839 145.935" fill="#1D1D1B"/>
<path d="M147.534 162.089L145.783 162.201L145.468 157.313C145.399 156.222 144.726 155.469 143.872 155.525C142.992 155.581 142.429 156.395 142.5 157.505L142.815 162.393L141.047 162.505L140.732 157.617C140.651 156.38 139.859 155.782 139.118 155.828C138.238 155.886 137.675 156.699 137.745 157.808L138.06 162.696L136.31 162.809L136.001 158.003C135.86 155.815 137.095 154.2 139.005 154.077C139.458 154.05 139.911 154.124 140.331 154.295C140.751 154.465 141.128 154.727 141.434 155.061C141.702 154.687 142.049 154.378 142.451 154.155C142.853 153.932 143.3 153.801 143.758 153.771C145.66 153.648 147.084 155.091 147.227 157.28L147.534 162.089Z" fill="#1D1D1B"/>
<path d="M150.729 161.883L148.961 161.996L148.426 153.684L150.193 153.572L150.729 161.883ZM149.231 152.419C149.082 152.429 148.931 152.409 148.789 152.361C148.647 152.312 148.516 152.236 148.404 152.136C148.292 152.036 148.201 151.915 148.136 151.779C148.072 151.644 148.035 151.496 148.029 151.346C148.016 151.198 148.033 151.048 148.08 150.906C148.127 150.764 148.202 150.633 148.301 150.522C148.399 150.41 148.52 150.319 148.655 150.255C148.789 150.19 148.936 150.154 149.085 150.148C149.234 150.136 149.385 150.153 149.527 150.2C149.67 150.246 149.802 150.32 149.915 150.418C150.029 150.517 150.121 150.636 150.188 150.771C150.254 150.905 150.293 151.052 150.302 151.201C150.321 151.505 150.219 151.803 150.019 152.031C149.818 152.26 149.535 152.399 149.231 152.419Z" fill="#1D1D1B"/>
<path d="M156.348 161.73C155.781 161.767 155.213 161.689 154.678 161.501C154.142 161.314 153.649 161.02 153.23 160.638C152.586 160.068 152.125 159.322 151.902 158.493C151.68 157.663 151.706 156.786 151.979 155.971C152.251 155.156 152.758 154.44 153.435 153.911C154.111 153.381 154.929 153.063 155.786 152.996C156.356 152.942 156.932 153.006 157.476 153.185C158.02 153.364 158.522 153.654 158.949 154.036L159.191 154.252L158.012 155.619L157.761 155.43C157.374 155.085 156.893 154.863 156.38 154.792C155.866 154.72 155.343 154.804 154.877 155.031C154.411 155.257 154.023 155.618 153.762 156.066C153.502 156.514 153.38 157.029 153.413 157.547C153.446 158.064 153.632 158.56 153.948 158.971C154.264 159.383 154.694 159.691 155.186 159.856C155.677 160.022 156.206 160.038 156.706 159.902C157.207 159.766 157.655 159.485 157.995 159.093L158.206 158.868L159.585 160.005L159.335 160.262C158.562 161.115 157.493 161.642 156.346 161.733" fill="#1D1D1B"/>
<path d="M162.732 161.109L160.868 161.229L160.599 157.073C160.427 154.409 161.499 153.053 164.07 152.678L164.424 152.626L164.537 154.369L164.244 154.42C162.844 154.668 162.359 155.327 162.457 156.853L162.732 161.109Z" fill="#1D1D1B"/>
<path d="M169.83 160.865C169.263 160.902 168.695 160.824 168.159 160.636C167.623 160.449 167.13 160.156 166.71 159.774C165.856 159 165.336 157.924 165.263 156.774C165.189 155.624 165.566 154.491 166.314 153.614C166.68 153.182 167.129 152.827 167.635 152.572C168.14 152.318 168.692 152.167 169.258 152.131C169.823 152.094 170.39 152.173 170.924 152.36C171.458 152.548 171.949 152.842 172.368 153.224C173.223 153.997 173.743 155.074 173.817 156.225C173.891 157.376 173.513 158.51 172.763 159.387C172.398 159.817 171.95 160.169 171.446 160.423C170.942 160.677 170.393 160.827 169.83 160.865ZM169.363 153.883C168.702 153.968 168.099 154.302 167.675 154.815C167.252 155.329 167.04 155.985 167.083 156.65C167.126 157.315 167.421 157.938 167.907 158.393C168.393 158.848 169.034 159.101 169.7 159.1C170.034 159.073 170.359 158.981 170.656 158.827C170.953 158.673 171.217 158.462 171.431 158.205C171.646 157.948 171.807 157.651 171.905 157.331C172.003 157.011 172.037 156.674 172.003 156.341C171.978 155.666 171.686 155.028 171.192 154.568C170.697 154.107 170.04 153.861 169.365 153.883" fill="#1D1D1B"/>
<path d="M176.975 160.193C176.657 160.207 176.345 160.096 176.108 159.883C175.87 159.67 175.726 159.372 175.705 159.054C175.685 158.735 175.79 158.422 175.998 158.18C176.206 157.938 176.5 157.787 176.818 157.76C176.98 157.746 177.142 157.765 177.297 157.815C177.451 157.864 177.594 157.945 177.717 158.05C177.84 158.156 177.941 158.286 178.013 158.431C178.086 158.576 178.129 158.734 178.139 158.896C178.15 159.058 178.128 159.221 178.074 159.374C178.021 159.527 177.938 159.669 177.83 159.789C177.721 159.91 177.59 160.008 177.443 160.077C177.297 160.147 177.138 160.186 176.975 160.193Z" fill="#1D1D1B"/>
<path d="M184.15 159.941C181.628 160.103 179.739 158.254 179.559 155.441C179.547 155.269 179.537 155.08 179.54 154.89L179.079 147.737L180.828 147.625L181.123 152.188C181.912 151.54 182.907 151.195 183.928 151.216C184.948 151.237 185.928 151.621 186.691 152.3C187.548 153.071 188.069 154.148 188.138 155.298C188.181 155.869 188.109 156.443 187.928 156.986C187.747 157.529 187.46 158.03 187.084 158.462C186.72 158.893 186.272 159.246 185.768 159.5C185.264 159.754 184.714 159.905 184.15 159.941ZM183.7 152.974C183.362 153 183.031 153.093 182.728 153.247C182.425 153.4 182.155 153.613 181.934 153.871C181.713 154.129 181.544 154.428 181.439 154.751C181.333 155.074 181.293 155.415 181.319 155.754C181.334 156.094 181.416 156.427 181.562 156.734C181.707 157.041 181.912 157.317 182.165 157.544C182.418 157.771 182.714 157.945 183.035 158.056C183.356 158.167 183.697 158.213 184.036 158.191C184.716 158.131 185.345 157.807 185.79 157.289C186.234 156.77 186.458 156.099 186.414 155.418C186.37 154.737 186.061 154.1 185.554 153.643C185.046 153.186 184.38 152.946 183.698 152.974" fill="#1D1D1B"/>
<path d="M191.688 159.244L189.92 159.356L189.385 151.045L191.152 150.932L191.688 159.244ZM190.19 149.779C190.04 149.79 189.89 149.77 189.748 149.722C189.606 149.673 189.475 149.597 189.363 149.497C189.251 149.397 189.16 149.276 189.095 149.14C189.031 149.004 188.994 148.857 188.988 148.707C188.975 148.558 188.992 148.409 189.039 148.267C189.086 148.125 189.161 147.994 189.26 147.882C189.358 147.77 189.479 147.679 189.614 147.615C189.748 147.551 189.895 147.515 190.044 147.509C190.193 147.496 190.344 147.514 190.486 147.56C190.629 147.607 190.761 147.681 190.874 147.779C190.988 147.877 191.08 147.997 191.147 148.132C191.213 148.266 191.252 148.412 191.261 148.562C191.28 148.865 191.178 149.164 190.978 149.392C190.777 149.62 190.494 149.76 190.19 149.779Z" fill="#1D1D1B"/>
<path d="M198.314 159.066L197.917 159.015C195.279 158.678 194.231 157.494 194.048 154.64L193.914 152.563L193.149 152.611L193.037 150.923L193.802 150.874L193.689 149.033L195.472 148.921L195.591 150.761L197.773 150.62L197.885 152.307L195.704 152.447L195.857 154.802C195.956 156.358 196.593 157.1 197.917 157.201L198.204 157.223L198.314 159.066Z" fill="#1D1D1B"/>
<path d="M46.0583 107.28L28.7698 92.0851" stroke="#1D1D1B" stroke-width="4.06" stroke-miterlimit="10"/>
<path d="M42.978 118.642L19.6968 98.178" stroke="#1D1D1B" stroke-width="6.09" stroke-miterlimit="10"/>
<path d="M63.187 52.9263L74.3883 62.7711L65.8273 72.5113L54.5259 62.7801L45.966 72.5192L57.0672 82.4787L48.5062 92.2189L37.3049 82.3741L21.7949 100.022L34.9942 111.623" stroke="#1D1D1B" stroke-width="4.06" stroke-miterlimit="10"/>
<path d="M250.982 43.8925L273.851 67.136C283.1 76.6946 288.197 89.5205 288.034 102.82C287.87 116.12 282.459 128.817 272.978 138.145C263.497 147.474 250.714 152.678 237.414 152.626C224.113 152.573 211.372 147.267 201.965 137.864L198.196 134.033C196.338 132.144 194.87 129.909 193.876 127.454C192.883 124.998 192.382 122.371 192.404 119.722C192.425 117.074 192.968 114.455 194.002 112.016C195.035 109.577 196.539 107.366 198.427 105.508L188.467 95.3834" fill="white"/>
<path d="M250.982 43.8925L273.851 67.136C283.1 76.6946 288.197 89.5205 288.034 102.82C287.87 116.12 282.459 128.817 272.978 138.145C263.497 147.474 250.714 152.678 237.414 152.626C224.113 152.573 211.372 147.267 201.965 137.864L198.196 134.033C196.338 132.144 194.87 129.909 193.876 127.454C192.883 124.998 192.382 122.371 192.404 119.722C192.425 117.074 192.968 114.455 194.002 112.016C195.035 109.577 196.539 107.366 198.427 105.508L188.467 95.3834" stroke="#1D1D1B" stroke-width="5" stroke-miterlimit="10" stroke-linecap="round"/>
<path d="M252.697 45.6342L250.491 43.3921C248.615 41.4855 246.059 40.4022 243.384 40.3805C240.71 40.3587 238.136 41.4004 236.23 43.2762C234.323 45.152 233.24 47.7084 233.218 50.383C233.196 53.0575 234.238 55.6312 236.114 57.5377L236.308 57.738" fill="#C6C6C6"/>
<path d="M252.697 45.6342L250.491 43.3921C248.615 41.4855 246.059 40.4022 243.384 40.3805C240.71 40.3587 238.136 41.4004 236.23 43.2762C234.323 45.152 233.24 47.7084 233.218 50.383C233.196 53.0575 234.238 55.6312 236.114 57.5377L236.308 57.738" fill="white"/>
<path d="M252.697 45.6342L250.491 43.3921C248.615 41.4855 246.059 40.4022 243.384 40.3805C240.71 40.3587 238.136 41.4004 236.23 43.2762C234.323 45.152 233.24 47.7084 233.218 50.383C233.196 53.0575 234.238 55.6312 236.114 57.5377L236.308 57.738" stroke="#1D1D1B" stroke-width="5" stroke-miterlimit="10" stroke-linecap="round"/>
<path d="M236.312 57.7365L231.61 52.9576C229.734 51.0539 227.178 49.9732 224.505 49.9528C221.832 49.9324 219.261 50.974 217.355 52.8488C215.45 54.7236 214.366 57.2781 214.343 59.9511C214.32 62.6242 215.359 65.197 217.232 67.1043L221.935 71.8822" fill="white"/>
<path d="M236.312 57.7365L231.61 52.9576C229.734 51.0539 227.178 49.9732 224.505 49.9528C221.832 49.9324 219.261 50.974 217.355 52.8488C215.45 54.7236 214.366 57.2781 214.343 59.9511C214.32 62.6242 215.359 65.197 217.232 67.1043L221.935 71.8822" stroke="#1D1D1B" stroke-width="5" stroke-miterlimit="10" stroke-linecap="round"/>
<path d="M221.935 71.8822L214.735 64.5698C212.853 62.6911 210.305 61.6317 207.646 61.6222C204.987 61.6126 202.432 62.6536 200.536 64.5187C198.641 66.3837 197.559 68.9219 197.525 71.5809C197.492 74.2399 198.51 76.8045 200.358 78.7166L207.558 86.029" fill="#C6C6C6"/>
<path d="M221.935 71.8822L214.735 64.5698C212.853 62.6911 210.305 61.6317 207.646 61.6222C204.987 61.6126 202.432 62.6536 200.536 64.5187C198.641 66.3837 197.559 68.9219 197.525 71.5809C197.492 74.2399 198.51 76.8045 200.358 78.7166L207.558 86.029" fill="white"/>
<path d="M221.935 71.8822L214.735 64.5698C212.853 62.6911 210.305 61.6317 207.646 61.6222C204.987 61.6126 202.432 62.6536 200.536 64.5187C198.641 66.3837 197.559 68.9219 197.525 71.5809C197.492 74.2399 198.51 76.8045 200.358 78.7166L207.558 86.029" stroke="#1D1D1B" stroke-width="5" stroke-miterlimit="10" stroke-linecap="round"/>
<path d="M207.557 86.0279L173.048 50.9506C171.166 49.0716 168.618 48.0118 165.959 48.0019C163.3 47.9921 160.744 49.0329 158.849 50.8979C156.953 52.7629 155.871 55.3011 155.837 57.9602C155.804 60.6193 156.822 63.1841 158.67 65.0963L215.361 122.715" fill="white"/>
<path d="M207.557 86.0279L173.048 50.9506C171.166 49.0716 168.618 48.0118 165.959 48.0019C163.3 47.9921 160.744 49.0329 158.849 50.8979C156.953 52.7629 155.871 55.3011 155.837 57.9602C155.804 60.6193 156.822 63.1841 158.67 65.0963L215.361 122.715" stroke="#1D1D1B" stroke-width="5" stroke-miterlimit="10" stroke-linecap="round"/>
<path d="M174.5 10.5L169.365 24.2424" stroke="#00A000" stroke-width="5" stroke-miterlimit="10" stroke-linecap="round"/>
<path d="M185.51 40.3075L202 33.4309" stroke="#1D1D1B" stroke-width="5" stroke-miterlimit="10" stroke-linecap="round"/>
<path d="M202 33.4297L185.51 40.3062" stroke="#00A000" stroke-width="5" stroke-miterlimit="10" stroke-linecap="round"/>
<path d="M147 24L140 12" stroke="#00A000" stroke-width="5" stroke-miterlimit="10" stroke-linecap="round"/>
<path d="M119 35L130.521 40.4414" stroke="#00A000" stroke-width="5" stroke-miterlimit="10" stroke-linecap="round"/>
<path d="M130.577 63.2181L119 69" stroke="#00A000" stroke-width="5" stroke-miterlimit="10" stroke-linecap="round"/>
<path d="M142.5 91L146.721 79.2845" stroke="#00A000" stroke-width="5" stroke-miterlimit="10" stroke-linecap="round"/>
<path d="M287.043 35.0852L271.191 19.2841L275.486 14.9375L291.338 30.7898L287.043 35.0852ZM275.486 35.0852L271.191 30.7898L287.043 14.9375L291.338 19.2841L275.486 35.0852ZM312.886 38.358C310.823 38.358 308.991 38.0043 307.389 37.2969C305.795 36.581 304.542 35.5966 303.63 34.3438C302.718 33.0909 302.258 31.6506 302.249 30.0227H309.409C309.417 30.5256 309.57 30.9773 309.869 31.3778C310.176 31.7699 310.593 32.0767 311.122 32.2983C311.65 32.5199 312.255 32.6307 312.937 32.6307C313.593 32.6307 314.173 32.5156 314.676 32.2855C315.178 32.0469 315.57 31.7187 315.852 31.3011C316.133 30.8835 316.269 30.4062 316.261 29.8693C316.269 29.3409 316.107 28.8722 315.775 28.4631C315.451 28.054 314.995 27.7344 314.407 27.5043C313.819 27.2741 313.142 27.1591 312.374 27.1591H309.715V22.25H312.374C313.082 22.25 313.704 22.1349 314.241 21.9048C314.786 21.6747 315.208 21.3551 315.507 20.946C315.813 20.5369 315.963 20.0682 315.954 19.5398C315.963 19.0284 315.839 18.5767 315.583 18.1847C315.328 17.7926 314.97 17.4858 314.509 17.2642C314.058 17.0426 313.534 16.9318 312.937 16.9318C312.289 16.9318 311.71 17.0469 311.198 17.277C310.695 17.5071 310.299 17.8267 310.009 18.2358C309.72 18.6449 309.57 19.1136 309.562 19.642H302.761C302.769 18.0398 303.208 16.625 304.078 15.3977C304.955 14.1705 306.157 13.2074 307.683 12.5085C309.208 11.8097 310.96 11.4602 312.937 11.4602C314.872 11.4602 316.58 11.7884 318.063 12.4446C319.555 13.1009 320.718 14.0043 321.553 15.1548C322.397 16.2969 322.815 17.6051 322.806 19.0795C322.823 20.5455 322.32 21.7472 321.298 22.6847C320.284 23.6222 318.997 24.1761 317.437 24.3466V24.5511C319.551 24.7812 321.14 25.429 322.205 26.4943C323.271 27.5511 323.795 28.8807 323.778 30.483C323.786 32.017 323.326 33.3764 322.397 34.5611C321.477 35.7457 320.194 36.6747 318.549 37.348C316.913 38.0213 315.025 38.358 312.886 38.358Z" fill="#00A000"/>
</svg>
