<svg width="118" height="76" viewBox="0 0 118 76" fill="none" xmlns="http://www.w3.org/2000/svg">
<g clip-path="url(#clip0_1836_54)">
<mask id="mask0_1836_54" style="mask-type:luminance" maskUnits="userSpaceOnUse" x="0" y="0" width="118" height="76">
<path d="M117.548 0H0V75.413H117.548V0Z" fill="white"/>
</mask>
<g mask="url(#mask0_1836_54)">
<path d="M62.122 7.737C62.4964 7.7439 62.8605 7.86129 63.1684 8.07444C63.4763 8.28758 63.7144 8.58697 63.8527 8.93499C63.991 9.28301 64.0234 9.66414 63.9457 10.0305C63.8681 10.3969 63.6839 10.7321 63.4164 10.9941C63.1488 11.2562 62.8098 11.4333 62.4419 11.5032C62.074 11.5732 61.6936 11.5329 61.3486 11.3873C61.0035 11.2418 60.7092 10.9975 60.5025 10.6852C60.2958 10.3729 60.1861 10.0065 60.187 9.632C60.1896 9.38051 60.2417 9.13201 60.3404 8.90067C60.4391 8.66933 60.5823 8.45969 60.762 8.28372C60.9417 8.10775 61.1543 7.96889 61.3876 7.87509C61.621 7.78128 61.8705 7.73436 62.122 7.737Z" fill="#1D1D1B"/>
<path d="M111.548 4C112.076 4.00699 112.581 4.21995 112.954 4.59352C113.328 4.96709 113.541 5.47174 113.548 6V69.413C113.541 69.9413 113.328 70.4459 112.954 70.8195C112.581 71.193 112.076 71.406 111.548 71.413H6C5.46957 71.413 4.96086 71.2023 4.58579 70.8272C4.21071 70.4521 4 69.9434 4 69.413V6C4 5.46957 4.21071 4.96086 4.58579 4.58579C4.96086 4.21071 5.46957 4 6 4H111.548ZM111.548 0H6C4.4087 0 2.88258 0.632141 1.75736 1.75736C0.632141 2.88258 0 4.4087 0 6L0 69.413C0 71.0043 0.632141 72.5304 1.75736 73.6556C2.88258 74.7809 4.4087 75.413 6 75.413H111.548C113.138 75.4083 114.661 74.7746 115.785 73.6504C116.91 72.5262 117.543 71.0028 117.548 69.413V6C117.543 4.41016 116.91 2.8868 115.785 1.7626C114.661 0.638414 113.138 0.00474818 111.548 0Z" fill="black"/>
<path d="M50.77 33.99L68.9 47.657L59.664 54.543L59.676 26.891L68.906 33.784L50.552 46.984" stroke="#48AC34" stroke-width="3" stroke-linecap="round" stroke-linejoin="round"/>
</g>
</g>
<defs>
<clipPath id="clip0_1836_54">
<rect width="117.548" height="75.413" fill="white"/>
</clipPath>
</defs>
</svg>
