<svg width="736" height="736" viewBox="0 0 736 736" fill="none" xmlns="http://www.w3.org/2000/svg">
<path d="M457.22 413.53C425.9 405.7 424.55 405.43 421.31 360.34C421.31 358.18 419.42 356.56 417.26 356.56C415.1 356.56 413.48 358.18 413.21 360.34C408.62 407.05 406.19 407.32 377.3 413.53C375.41 414.07 374.06 415.69 374.06 417.58C374.06 419.47 375.41 421.09 377.3 421.63C407 427.03 407.27 428.92 412.94 475.09C412.94 477.25 414.83 478.6 416.99 478.6C419.15 478.6 420.77 476.98 421.04 475.09C426.44 428.65 426.98 427.84 456.68 421.63C458.57 421.36 459.92 419.74 459.92 417.85C459.92 415.96 458.57 414.34 456.95 413.8L457.22 413.53Z" fill="#007DBC"/>
<path d="M378.38 239.92C354.89 233.98 354.08 233.98 351.65 200.23C351.65 198.61 350.3 197.53 348.68 197.53C347.06 197.53 345.71 198.61 345.71 200.23C342.2 235.06 340.58 235.33 318.98 239.92C317.63 240.19 316.55 241.54 316.55 242.89C316.55 244.24 317.63 245.59 318.98 245.86C341.12 249.91 341.39 251.26 345.44 285.55C345.44 287.17 346.79 288.25 348.41 288.25C350.03 288.25 351.11 287.17 351.38 285.55C355.43 250.99 355.97 250.18 378.11 245.86C379.46 245.59 380.54 244.24 380.54 242.89C380.54 241.54 379.73 240.19 378.11 239.92H378.38Z" fill="#007DBC"/>
<path d="M484.49 458.62C479.63 486.16 455.87 506.95 426.98 506.95H265.25C233.39 506.41 207.74 480.49 207.74 448.36C207.74 416.23 233.93 389.77 266.33 389.77H346.52V346.3H265.52C207.47 346.84 164 390.58 164 448.63C164 506.68 206.66 549.34 263.9 550.42H426.98C481.79 550.42 524.18 511.54 528.77 458.35H484.49V458.62Z" fill="#007DBC"/>
<path d="M266.6 470.23C278.75 470.23 288.47 460.51 288.47 448.36C288.47 436.21 278.75 426.49 266.6 426.49C254.45 426.49 244.73 436.21 244.73 448.36C244.73 460.51 254.45 470.23 266.6 470.23Z" fill="#007DBC"/>
<path d="M585.47 284.2C515.81 266.92 513.11 266.11 505.82 166.21C505.55 161.62 501.5 157.84 496.91 157.84C492.05 157.84 488.27 161.35 487.73 165.94C477.74 269.35 472.34 270.43 408.35 283.93C404.03 284.74 401.06 288.52 401.33 292.84C401.33 297.16 404.57 300.94 408.62 301.48C474.5 313.63 475.04 317.68 487.73 419.74C488.27 424.33 492.05 427.57 496.64 427.57C501.23 427.57 505.01 424.06 505.55 419.47C517.43 316.6 519.05 314.44 584.93 301.21C588.98 300.4 592.22 296.89 592.22 292.57C592.22 288.25 589.52 284.74 585.47 283.66V284.2Z" fill="#007DBC"/>
</svg>
